<svg width="28" height="28" viewBox="0 0 28 28" fill="none" xmlns="http://www.w3.org/2000/svg">
<path d="M13.8538 0C6.20353 0 0 6.20245 0 13.8538C0 19.9747 3.96951 25.1678 9.47408 26.9996C10.1664 27.1279 10.4207 26.6991 10.4207 26.3331C10.4207 26.0028 10.4077 24.9115 10.4018 23.754C6.54771 24.5919 5.73445 22.1194 5.73445 22.1194C5.10422 20.5181 4.19615 20.0922 4.19615 20.0922C2.93925 19.2324 4.29096 19.2501 4.29096 19.2501C5.68207 19.3478 6.41458 20.6777 6.41458 20.6777C7.65026 22.7956 9.65558 22.1833 10.4461 21.8293C10.5705 20.934 10.9295 20.3227 11.3257 19.9768C8.24857 19.6266 5.01384 18.4386 5.01384 13.1303C5.01384 11.6177 5.555 10.3818 6.44121 9.41163C6.29737 9.06269 5.8232 7.65373 6.57541 5.74538C6.57541 5.74538 7.7388 5.37306 10.3863 7.16549C11.4913 6.85855 12.6764 6.70464 13.8538 6.69934C15.0311 6.70464 16.2173 6.85844 17.3244 7.16549C19.9686 5.37317 21.1303 5.74549 21.1303 5.74549C21.8844 7.65362 21.41 9.0628 21.2662 9.41163C22.1544 10.3818 22.6919 11.6177 22.6919 13.1303C22.6919 18.4513 19.451 19.6229 16.3661 19.9659C16.863 20.3958 17.3057 21.2389 17.3057 22.5314C17.3057 24.385 17.2897 25.8768 17.2897 26.3331C17.2897 26.7019 17.5391 27.1338 18.2413 26.9977C23.7428 25.1639 27.7074 19.9728 27.7074 13.8539C27.7074 6.20245 21.5047 0 13.8538 0ZM5.18875 19.735C5.15822 19.8038 5.04988 19.8245 4.95129 19.7772C4.85074 19.7321 4.79435 19.6382 4.82682 19.5692C4.85669 19.4983 4.96525 19.4785 5.06547 19.526C5.16612 19.5713 5.22349 19.666 5.18875 19.735ZM5.87017 20.3431C5.80415 20.4043 5.67492 20.3758 5.58726 20.2791C5.49667 20.1825 5.47967 20.0533 5.54667 19.9912C5.61486 19.9299 5.74008 19.9586 5.83089 20.0552C5.92158 20.1529 5.93912 20.2811 5.87017 20.3431ZM6.33774 21.121C6.25277 21.18 6.11402 21.1247 6.02819 21.0015C5.94334 20.8784 5.94334 20.7306 6.03003 20.6714C6.11608 20.6122 6.25277 20.6655 6.33968 20.7878C6.42432 20.913 6.42443 21.0606 6.33774 21.121ZM7.12815 22.0222C7.05228 22.1059 6.89048 22.0834 6.77207 21.9691C6.65096 21.8574 6.6173 21.699 6.69349 21.6152C6.77034 21.5312 6.93301 21.5548 7.05228 21.6682C7.17242 21.7797 7.20922 21.9394 7.12815 22.0222ZM8.15008 22.3263C8.11653 22.4349 7.96067 22.4842 7.80384 22.4381C7.64713 22.3906 7.54463 22.2635 7.57623 22.1539C7.60881 22.0446 7.76532 21.9933 7.92333 22.0426C8.07984 22.0898 8.18266 22.2159 8.15008 22.3263ZM9.31292 22.4555C9.31682 22.5697 9.1838 22.6644 9.01907 22.6666C8.85348 22.6703 8.71938 22.5778 8.71754 22.4653C8.71754 22.35 8.84763 22.2562 9.01334 22.2533C9.17807 22.2501 9.31292 22.3419 9.31292 22.4555ZM10.4553 22.4117C10.475 22.5232 10.3606 22.6377 10.197 22.6682C10.0362 22.6975 9.88731 22.6287 9.86685 22.5182C9.84694 22.4039 9.9635 22.2894 10.124 22.2598C10.2879 22.2314 10.4344 22.2984 10.4553 22.4117Z" fill="#23400E"/>
</svg>
