<svg width="28" height="28" viewBox="0 0 28 28" fill="none" xmlns="http://www.w3.org/2000/svg">
<path d="M13.8537 2.49626C17.5527 2.49626 17.9908 2.51033 19.4517 2.57689C20.8024 2.63859 21.536 2.86425 22.0242 3.05398C22.6708 3.30529 23.1323 3.60553 23.6171 4.0903C24.1018 4.57507 24.4021 5.03657 24.6534 5.68315C24.8431 6.17138 25.0688 6.90498 25.1305 8.25561C25.197 9.71652 25.2111 10.1546 25.2111 13.8537C25.2111 17.5527 25.197 17.991 25.1305 19.4518C25.0688 20.8025 24.8431 21.536 24.6534 22.0242C24.4021 22.6708 24.1018 23.1324 23.6171 23.6172C23.1323 24.1019 22.6708 24.4022 22.0242 24.6534C21.536 24.8431 20.8024 25.0689 19.4517 25.1305C17.9911 25.1971 17.5529 25.2112 13.8537 25.2112C10.1544 25.2112 9.7162 25.1971 8.25561 25.1305C6.90487 25.0688 6.17138 24.8431 5.68315 24.6534C5.03657 24.4022 4.57496 24.1019 4.09019 23.6172C3.60542 23.1323 3.30519 22.6708 3.05398 22.0242C2.86425 21.5361 2.63848 20.8025 2.57689 19.4518C2.51022 17.991 2.49615 17.5528 2.49615 13.8537C2.49615 10.1545 2.51022 9.71652 2.57689 8.25571C2.63859 6.90498 2.86425 6.17138 3.05398 5.68315C3.30519 5.03657 3.60542 4.57507 4.09019 4.0903C4.57507 3.60542 5.03657 3.30529 5.68315 3.05398C6.17128 2.86425 6.90487 2.63859 8.25561 2.57689C9.71641 2.51033 10.1545 2.49626 13.8537 2.49626ZM13.8537 0C10.0912 0 9.61944 0.0159101 8.14185 0.0833386C6.66719 0.150659 5.6601 0.384873 4.77898 0.727318C3.86788 1.08134 3.09532 1.55508 2.32515 2.32525C1.55497 3.09543 1.08134 3.86799 0.727318 4.77898C0.384764 5.6602 0.150659 6.6673 0.0833386 8.14185C0.0159101 9.61944 0 10.0912 0 13.8537C0 17.6161 0.0159101 18.0879 0.0833386 19.5655C0.150659 21.0402 0.384764 22.0473 0.727318 22.9284C1.08124 23.8394 1.55497 24.612 2.32515 25.3822C3.09532 26.1524 3.86788 26.626 4.77898 26.9801C5.6602 27.3226 6.66719 27.5567 8.14175 27.624C9.61944 27.6915 10.0912 27.7074 13.8537 27.7074C17.6161 27.7074 18.0879 27.6915 19.5655 27.624C21.0401 27.5567 22.0472 27.3226 22.9283 26.9801C23.8394 26.6261 24.6119 26.1524 25.3821 25.3822C26.1523 24.612 26.626 23.8395 26.9801 22.9284C27.3225 22.0472 27.5567 21.0402 27.624 19.5656C27.6915 18.0879 27.7074 17.6161 27.7074 13.8537C27.7074 10.0912 27.6915 9.61944 27.624 8.14185C27.5567 6.6673 27.3225 5.6602 26.9801 4.77909C26.626 3.86799 26.1523 3.09543 25.3821 2.32525C24.6119 1.55508 23.8394 1.08124 22.9284 0.727318C22.0472 0.384873 21.0401 0.150659 19.5655 0.0833386C18.0879 0.0159101 17.6161 0 13.8537 0ZM13.8537 6.7396C9.92465 6.7396 6.7396 9.92487 6.7396 13.8537C6.7396 17.7825 9.92465 20.9678 13.8537 20.9678C17.7826 20.9678 20.9678 17.7827 20.9678 13.8537C20.9678 9.92476 17.7826 6.7396 13.8537 6.7396ZM13.8537 18.4716C11.3033 18.4716 9.23575 16.4041 9.23575 13.8537C9.23575 11.3033 11.3033 9.23575 13.8537 9.23575C16.4041 9.23575 18.4716 11.3033 18.4716 13.8537C18.4716 16.4041 16.4041 18.4716 13.8537 18.4716ZM22.9112 6.45852C22.9112 7.37676 22.167 8.12097 21.2487 8.12097C20.3305 8.12097 19.5863 7.37676 19.5863 6.45852C19.5863 5.54028 20.3306 4.79608 21.2487 4.79608C22.1669 4.79608 22.9112 5.54039 22.9112 6.45852Z" fill="#23400E"/>
</svg>
