<svg width="28" height="28" viewBox="0 0 28 28" fill="none" xmlns="http://www.w3.org/2000/svg">
<path d="M23.608 23.6084H19.5026V17.1791C19.5026 15.646 19.4753 13.6724 17.3674 13.6724C15.2292 13.6724 14.902 15.3428 14.902 17.0675V23.6079H10.7968V10.3868H14.7378V12.1936H14.793C15.1875 11.5192 15.7574 10.9644 16.4422 10.5884C17.1269 10.2123 17.9009 10.0289 18.6816 10.0578C22.8426 10.0578 23.6097 12.7948 23.6097 16.3554L23.608 23.6084ZM6.16446 8.57961C4.84868 8.57983 3.78184 7.51331 3.78162 6.19754C3.78141 4.88176 4.84782 3.81492 6.16359 3.8147C7.47937 3.81438 8.54621 4.88089 8.54642 6.19667C8.54654 6.82853 8.29565 7.43456 7.84895 7.88145C7.40225 8.32833 6.79632 8.57947 6.16446 8.57961ZM8.21718 23.6085H4.10751V10.3868H8.21707L8.21718 23.6085ZM25.6546 0.00201657H2.04461C0.928738 -0.0105383 0.0136372 0.883349 0 1.99922V25.7077C0.0132043 26.8242 0.928197 27.7189 2.0445 27.7072H25.6546C26.7733 27.7211 27.6919 26.8263 27.7074 25.7077V1.99738C27.6915 0.879344 26.7728 -0.0144347 25.6546 0.000176623" fill="#23400E"/>
</svg>
