<svg width="654" height="154" viewBox="0 0 654 154" fill="none" xmlns="http://www.w3.org/2000/svg">
<path d="M542.5 81.452C494.1 50.5119 375 78.3267 321.5 96.1016C313.242 102.128 284.589 109.998 233.5 96.8237C229.942 95.9063 226.276 94.8869 222.5 93.7577C202.5 84.9911 175.112 36.3311 141 43.3861C127.4 46.1989 92.3333 29.7131 80 25.2206L5.9527e-06 -9.15527e-05H662V90.8278L660.449 86.4572C649.449 87.2386 623.949 90.2076 609.949 95.833C604.967 97.8346 599.248 99.2526 593.578 100.24C577.205 98.0201 559.662 92.4227 542.5 81.452Z" fill="#F2BB16"/>
<path d="M609.949 95.833C623.949 90.2076 649.449 87.2386 660.449 86.4572L661.164 91.2351C648.191 97.4333 622.74 104.194 593.578 100.24C599.248 99.2526 604.967 97.8346 609.949 95.833Z" fill="#D97823"/>
<path fill-rule="evenodd" clip-rule="evenodd" d="M662 90.8278L660.449 86.4572L661.164 91.2351C661.448 91.099 661.727 90.9632 662 90.8278ZM593.578 100.24C583.312 102.028 573.21 102.405 567.949 102.279C556.949 99.7396 520.449 96.8237 520.449 96.8237C511.58 91.7162 495.317 97.243 477.267 102.279C458.681 107.464 438.202 112.128 421.949 104.128C405.786 96.1726 396.643 96.5434 389.687 96.8256C385.884 96.9799 382.734 97.1076 379.449 95.833C365.133 90.2791 354.507 92.6566 344.555 94.8837C336.928 96.5903 329.695 98.2085 321.5 96.1016C375 78.3267 494.1 50.5119 542.5 81.452C559.662 92.4227 577.205 98.0201 593.578 100.24Z" fill="#D97823"/>
<path d="M520.449 96.8237C520.449 96.8237 556.949 99.7396 567.949 102.279C573.21 102.405 583.312 102.028 593.578 100.24C622.74 104.194 648.191 97.4333 661.164 91.2351L670.449 153.283C665.831 153.901 657.176 147.416 647.386 140.081C632.444 128.885 614.857 115.708 604.949 122.788C588.549 134.508 539.115 111.278 520.449 96.8237Z" fill="#D97823"/>
<path d="M520.449 96.8237C539.115 111.278 588.549 134.508 604.949 122.788C614.857 115.708 632.444 128.885 647.386 140.081C630.907 145.995 594.949 155.224 582.949 144.824C569.949 135.657 539.949 117.124 523.949 116.324C512.161 114.482 486.321 109.096 477.267 102.279C495.317 97.243 511.58 91.7162 520.449 96.8237Z" fill="#BF395D"/>
</svg>
