<svg width="1440" height="688" viewBox="0 0 1440 688" fill="none" xmlns="http://www.w3.org/2000/svg">
<rect y="516" width="1440" height="172" fill="#F2EAD0"/>
<g filter="url(#filter0_d_50_9)">
<path d="M0 34H1440L1494.35 551.21C1497.29 579.162 1463.71 595.532 1443.5 576L1397.5 583L1320 603L1295 590.5L1186 583L1127 603L1112 595.5L1088 583L1046.5 608L1002.5 621.5L970.842 612.107C961.958 609.471 952.4 610.362 944.156 614.595L920 627L904.5 621.5L887.5 634L857.5 627L835.5 641.5L825 655.5L816 645.5L805.5 641.5H794L775 659L732 651.5L717.5 664L691.5 674L672.5 664L634.056 659.477C631.361 659.16 628.71 658.539 626.154 657.626L609 651.5L595.5 655.5L586.5 659L580.5 651.5L568 641.5H546.5L537.5 634H520H500.5L488.5 627L473 629.5L464 624L451 621.5L439.5 624H428.5L425.5 617.5H409L393.5 609.5H368.5L352.5 612L338 605.5L335.5 599.5L328 596H310.5L294 589.5L278.5 583L258.5 589.5L243 596L227 599.5L215.5 580.5H200.5L190 571L167 563.5L151.5 568H138.5L130 560L117.5 551.5H100L83 543H54H31L6.5 539.5L2.37239 539.814C-19.6386 541.489 -37.9589 523.141 -36.2509 501.132L0 34Z" fill="white" fill-opacity="0.9" shape-rendering="crispEdges"/>
</g>
<path d="M0 0H1440V569.259C1440 574.263 1432.93 575.295 1431.5 570.5L1420.5 578.5L1393.5 570.5L1364 578.5L1327.5 589.5L1297 578.5H1234H1186L1118.5 586.5L1089.5 578.5L1064.5 589.5L1010.5 607.5L955.5 600L919 617H883H851.5L822.5 643.5L797 633.5L774.5 647.5L734.5 643.5L690 665L626.944 648.652C623.993 647.887 620.957 647.5 617.909 647.5H588.5L555 633.5L543.5 626.5H511L498 617H473.5L457 609.5L434.5 617L416.5 598.5L385 594L352.5 598.5L337 584.5H315.5L301 561L284.5 549.5L238.5 584.5L203.5 570L170.5 556L144 561L99.5 538L13 528.5C4.80324 522.195 0 512.44 0 502.099V0Z" fill="#F2BB16"/>
<defs>
<filter id="filter0_d_50_9" x="-40.3615" y="34" width="1538.89" height="648" filterUnits="userSpaceOnUse" color-interpolation-filters="sRGB">
<feFlood flood-opacity="0" result="BackgroundImageFix"/>
<feColorMatrix in="SourceAlpha" type="matrix" values="0 0 0 0 0 0 0 0 0 0 0 0 0 0 0 0 0 0 127 0" result="hardAlpha"/>
<feOffset dy="4"/>
<feGaussianBlur stdDeviation="2"/>
<feComposite in2="hardAlpha" operator="out"/>
<feColorMatrix type="matrix" values="0 0 0 0 0 0 0 0 0 0 0 0 0 0 0 0 0 0 0.1 0"/>
<feBlend mode="normal" in2="BackgroundImageFix" result="effect1_dropShadow_50_9"/>
<feBlend mode="normal" in="SourceGraphic" in2="effect1_dropShadow_50_9" result="shape"/>
</filter>
</defs>
</svg>
