<svg width="1440" height="376" viewBox="0 0 1440 376" fill="none" xmlns="http://www.w3.org/2000/svg">
<g filter="url(#filter0_d_64_3)">
<path d="M-11.4872 481H1428.98L1481.81 103.282C1485.63 75.9723 1454.8 57.4514 1432.48 73.6531L1386.47 68.3922L1308.94 53.361L1283.93 62.7555L1174.9 68.3922L1115.88 53.361L1100.87 58.9977L1076.87 68.3922L1035.35 49.6031L991.338 39.457L956.453 47.2335C949.521 48.7787 942.288 48.2392 935.662 45.6829L908.811 35.3235L893.306 39.457L876.3 30.0625L846.291 35.3235L824.284 24.4258L813.78 13.9039L804.777 21.4196L794.274 24.4258H782.77L763.764 11.2734L720.75 16.9102L706.245 7.51562L680.237 0L661.231 7.51562L621.845 10.997C619.763 11.181 617.702 11.5457 615.685 12.0872L597.71 16.9102L584.206 13.9039L575.203 11.2734L569.201 16.9102L556.697 24.4258H535.19L526.187 30.0625H508.681H489.175L477.171 35.3235L461.666 33.4445L452.663 37.5781L439.659 39.457L428.155 37.5781H417.152L414.151 42.4633H397.645L382.14 48.4758H357.132L341.127 46.5969L326.622 51.4821L324.122 55.9914L316.619 58.6219H299.113L282.608 63.507L267.103 68.3922L247.097 63.507L231.592 58.6219L215.586 55.9914L204.083 70.2711H189.078L178.574 77.4109L155.567 83.0477L140.062 79.6656H127.058L118.555 85.6781L106.051 92.0664H88.5452L71.5397 98.4547H42.5303H19.5229L-4.98509 101.085L-8.7923 100.868C-30.9274 99.6022 -48.9343 118.454 -46.6564 140.508L-11.4872 481Z" fill="white" fill-opacity="0.9" shape-rendering="crispEdges"/>
</g>
<path d="M1450.5 578L-4 585.5L-11.3362 105.306C-11.5728 89.8198 7.31201 82.0859 18.0059 93.2895L29.0135 86.4925L56.0322 93.2895L85.5527 86.4925L122.078 77.1466L152.599 86.4925H215.643H263.676L331.223 79.6955L360.243 86.4925L385.261 77.1466L439.298 61.8534L494.336 68.2256L530.862 53.782H566.887H598.409L627.429 31.2669L652.946 39.7632L675.462 27.8684L715.49 31.2669L760.021 13L823.744 27.0267C826.286 27.5862 828.88 27.8684 831.483 27.8684H861.591L895.115 39.7632L906.623 45.7105H939.145L952.154 53.782H976.671L993.183 60.1542L1015.7 53.782L1033.71 69.5L1065.23 73.3234L1097.76 69.5L1113.27 81.3947H1134.78L1149.29 101.361L1165.8 111.132L1211.83 81.3947L1246.86 93.7143L1279.88 105.609L1306.4 101.361L1350.93 120.902L1437.49 128.974C1445.61 134.275 1450.5 143.314 1450.5 153.008V578Z" fill="#F2BB16"/>
<defs>
<filter id="filter0_d_64_3" x="-50.8512" y="0" width="1536.99" height="489" filterUnits="userSpaceOnUse" color-interpolation-filters="sRGB">
<feFlood flood-opacity="0" result="BackgroundImageFix"/>
<feColorMatrix in="SourceAlpha" type="matrix" values="0 0 0 0 0 0 0 0 0 0 0 0 0 0 0 0 0 0 127 0" result="hardAlpha"/>
<feOffset dy="4"/>
<feGaussianBlur stdDeviation="2"/>
<feComposite in2="hardAlpha" operator="out"/>
<feColorMatrix type="matrix" values="0 0 0 0 0 0 0 0 0 0 0 0 0 0 0 0 0 0 0.1 0"/>
<feBlend mode="normal" in2="BackgroundImageFix" result="effect1_dropShadow_64_3"/>
<feBlend mode="normal" in="SourceGraphic" in2="effect1_dropShadow_64_3" result="shape"/>
</filter>
</defs>
</svg>
