<svg width="656" height="154" viewBox="0 0 656 154" fill="none" xmlns="http://www.w3.org/2000/svg">
<path d="M112.949 81.452C161.349 50.5119 280.449 78.3267 333.949 96.1016C342.207 102.128 370.859 109.998 421.949 96.8237C425.506 95.9063 429.173 94.8869 432.949 93.7577C452.949 84.9911 480.337 36.3311 514.449 43.3861C528.049 46.1989 563.115 29.7131 575.449 25.2206L655.449 -9.15527e-05H-6.55127V90.8278L-5 86.4572C6 87.2386 31.5 90.2076 45.5 95.833C50.4813 97.8346 56.201 99.2526 61.871 100.24C78.244 98.0201 95.787 92.4227 112.949 81.452Z" fill="#F2BB16"/>
<path d="M45.5 95.833C31.5 90.2076 6 87.2386 -5 86.4572L-5.71497 91.2351C7.25775 97.4333 32.7085 104.194 61.871 100.24C56.201 99.2526 50.4813 97.8346 45.5 95.833Z" fill="#D97823"/>
<path fill-rule="evenodd" clip-rule="evenodd" d="M-6.55127 90.8278L-5 86.4572L-5.71497 91.2351C-5.99976 91.099 -6.27856 90.9632 -6.55127 90.8278ZM61.871 100.24C72.1367 102.028 82.2391 102.405 87.5 102.279C98.5 99.7396 135 96.8237 135 96.8237C143.869 91.7162 160.132 97.243 178.182 102.279C196.767 107.464 217.247 112.128 233.5 104.128C249.662 96.1726 258.806 96.5434 265.761 96.8256C269.565 96.9799 272.714 97.1076 276 95.833C290.316 90.2791 300.941 92.6566 310.894 94.8837C318.521 96.5903 325.753 98.2085 333.949 96.1016C280.449 78.3267 161.349 50.5119 112.949 81.452C95.787 92.4227 78.244 98.0201 61.871 100.24Z" fill="#D97823"/>
<path d="M135 96.8237C135 96.8237 98.5 99.7396 87.5 102.279C82.2391 102.405 72.1367 102.028 61.871 100.24C32.7085 104.194 7.25775 97.4333 -5.71497 91.2351L-15 153.283C-10.3821 153.901 -1.72723 147.416 8.06226 140.081C23.005 128.885 40.5914 115.708 50.5 122.788C66.9 134.508 116.333 111.278 135 96.8237Z" fill="#D97823"/>
<path d="M135 96.8237C116.333 111.278 66.9 134.508 50.5 122.788C40.5914 115.708 23.005 128.885 8.06226 140.081C24.5415 145.995 60.5 155.224 72.5 144.824C85.5 135.657 115.5 117.124 131.5 116.324C143.288 114.482 169.128 109.096 178.182 102.279C160.132 97.243 143.869 91.7162 135 96.8237Z" fill="#BF395D"/>
</svg>
