<svg width="281" height="139" viewBox="0 0 281 139" fill="none" xmlns="http://www.w3.org/2000/svg">
<path d="M0.837036 0.456055H7.44162V35.649C8.51093 32.7556 10.4923 30.0194 13.3857 27.4405C16.2792 24.8616 19.55 23.5721 23.1983 23.5721C35.9671 23.5721 42.3517 31.0573 42.3517 46.0277C42.3517 63.0108 34.1117 71.5025 17.6316 71.5025C12.7882 71.5025 7.19001 70.7162 0.837036 69.1436V0.456055ZM23.1039 24.3269C19.2041 24.3269 15.6816 26.0252 12.5366 29.4219C9.39154 32.7556 7.69323 35.7747 7.44162 38.4795V68.5775C11.2786 70.0244 14.6437 70.7477 17.5372 70.7477C29.6771 70.7477 35.7469 62.4762 35.7469 45.9332C35.7469 31.5289 31.5326 24.3269 23.1039 24.3269ZM56.2713 48.1034C56.2713 55.903 57.6237 61.6272 60.3284 65.2751C63.0959 68.9234 66.7129 70.7477 71.1787 70.7477C77.469 70.7477 83.0669 69.8042 87.9734 67.9172L88.2562 68.5775C83.2244 70.5275 77.5317 71.5025 71.1787 71.5025C64.8887 71.5025 59.7623 69.6155 55.7997 65.8415C51.8367 62.0673 49.8556 56.2492 49.8556 48.3866C49.8556 40.524 51.9312 34.4224 56.0826 30.0823C60.2339 25.7422 65.5178 23.5721 71.9335 23.5721C77.0916 23.5721 81.4316 25.1132 84.9542 28.1953C88.4764 31.2775 90.2377 35.8377 90.2377 41.8761C90.2377 42.1908 90.2377 42.5052 90.2377 42.8199H56.5545C56.3658 44.5181 56.2713 46.2794 56.2713 48.1034ZM83.8217 42.0651C83.759 36.0264 82.5953 31.5604 80.331 28.6671C78.0663 25.7736 75.1416 24.3269 71.5561 24.3269C67.9708 24.3269 64.763 25.8994 61.9325 29.0445C59.1647 32.1895 57.4035 36.5295 56.6487 42.0651H83.8217ZM150.976 34.7998C150.976 30.9628 150.473 28.2582 149.467 26.6857C148.46 25.1132 146.542 24.3269 143.711 24.3269C139.937 24.3269 136.572 25.8994 133.616 29.0445C130.722 32.1895 129.276 35.02 129.276 37.536V71.1251H122.671V34.7998C122.671 30.9628 122.168 28.2582 121.161 26.6857C120.155 25.1132 118.016 24.3269 114.745 24.3269C111.474 24.3269 108.361 25.8365 105.405 28.8558C102.511 31.8751 100.939 34.6741 100.687 37.2531V71.1251H94.0825V23.9495H100.687V34.6111C101.693 31.9063 103.549 29.3904 106.254 27.0631C108.959 24.7358 111.978 23.5721 115.311 23.5721C118.645 23.5721 121.287 23.8866 123.237 24.5156C125.25 25.0817 126.665 25.9938 127.483 27.2518C128.301 28.5098 128.804 29.6105 128.992 30.5541C129.181 31.4977 129.276 32.8186 129.276 34.5169C130.282 31.8121 132.106 29.3275 134.748 27.0631C137.39 24.7358 140.22 23.5721 143.24 23.5721C146.259 23.5721 148.681 23.8237 150.505 24.3269C152.328 24.8301 153.681 25.3962 154.562 26.0252C155.505 26.6542 156.197 27.5663 156.637 28.7614C157.14 29.9565 157.424 30.9316 157.487 31.6864C157.549 32.4412 157.581 33.5104 157.581 34.8943V64.4262C157.581 66.2501 157.927 67.6655 158.619 68.672C159.374 69.6155 160.128 70.1186 160.883 70.1816L161.921 70.3703H164.846V71.1251H159.09C156.512 71.1251 154.53 70.559 153.146 69.4268C151.825 68.2946 151.134 67.1624 151.071 66.0302L150.976 64.4262V34.7998Z" fill="black"/>
<path d="M168.651 89.0916C167.673 88.1132 167.183 86.89 167.183 85.4223C167.183 83.9546 167.673 82.7314 168.651 81.7529C169.63 80.6929 170.853 80.1628 172.32 80.1628C173.788 80.1628 175.011 80.6929 175.99 81.7529C177.05 82.7314 177.58 83.9546 177.58 85.4223C177.58 86.89 177.05 88.1132 175.99 89.0916C175.011 90.0702 173.788 90.5594 172.32 90.5594C170.853 90.5594 169.63 90.0702 168.651 89.0916Z" fill="#F9C62E"/>
<path d="M80.544 86.7673V86.2781H81.8282V80.1628H86.1089V86.2781H95.4652V86.7673H86.1089V109.027C86.1089 111.677 86.3943 113.593 86.965 114.775C87.5766 115.957 88.82 116.549 90.6953 116.549C92.6114 116.549 94.5479 116.161 96.5048 115.387L96.6883 115.876C94.6499 116.651 92.3057 117.038 89.6557 117.038C87.0466 117.038 85.0897 116.508 83.7851 115.448C82.4805 114.347 81.8282 112.186 81.8282 108.966V86.7673H80.544ZM103.581 101.933C103.581 106.988 104.457 110.698 106.21 113.063C108.004 115.428 110.348 116.61 113.243 116.61C117.32 116.61 120.948 115.998 124.128 114.775L124.311 115.203C121.05 116.467 117.361 117.099 113.243 117.099C109.166 117.099 105.843 115.876 103.275 113.43C100.707 110.984 99.4225 107.213 99.4225 102.117C99.4225 97.0206 100.768 93.066 103.459 90.253C106.149 87.44 109.574 86.0335 113.732 86.0335C117.075 86.0335 119.888 87.0323 122.171 89.03C124.454 91.0276 125.596 93.9833 125.596 97.8971C125.596 98.1009 125.596 98.3048 125.596 98.5086H103.764C103.642 99.6093 103.581 100.751 103.581 101.933ZM121.437 98.0194C121.397 94.1056 120.642 91.2111 119.175 89.3357C117.707 87.4604 115.811 86.5227 113.488 86.5227C111.164 86.5227 109.084 87.5419 107.25 89.5803C105.456 91.6188 104.315 94.4318 103.825 98.0194H121.437Z" fill="black"/>
<path fill-rule="evenodd" clip-rule="evenodd" d="M162.633 98.5571L162.158 99.0325C163.003 99.8248 163.425 100.987 163.425 102.519C163.425 104.05 163.108 105.371 162.475 106.48L150.194 131.358L138.072 98.5571H132.526L147.263 138.171H148.055L163.267 106.48C163.901 105.001 164.218 103.549 164.218 102.122C164.218 101.753 164.165 101.357 164.059 100.934C164.006 100.511 163.795 100.036 163.425 99.5079C163.108 98.9797 162.844 98.6628 162.633 98.5571ZM171.68 136.745C172.842 137.696 174.506 138.171 176.672 138.171H181.505V137.537H179.049L178.098 137.379C177.517 137.326 176.909 136.903 176.276 136.111C175.695 135.266 175.404 134.078 175.404 132.546V98.5571H169.858V132.546L169.938 133.893C169.99 134.843 170.571 135.794 171.68 136.745ZM206.097 99.5871C207.998 100.062 209.372 100.643 210.217 101.33L210.613 100.776C208.078 99.0853 204.539 98.2402 199.996 98.2402C197.303 98.2402 194.609 98.6892 191.915 99.5871C190.331 100.115 189.063 101.04 188.112 102.36C187.161 103.628 186.686 105.292 186.686 107.351C186.686 109.411 187.452 111.234 188.984 112.818C190.515 114.35 192.391 115.565 194.609 116.463C196.827 117.308 199.019 118.179 201.185 119.077C203.403 119.922 205.278 121.137 206.81 122.722C208.342 124.253 209.108 126.313 209.108 128.902C209.108 131.437 208.078 133.576 206.018 135.319C204.01 137.009 201.449 137.854 198.333 137.854C196.378 137.854 194.345 137.537 192.232 136.903C190.172 136.27 188.614 135.451 187.558 134.447L187.082 134.923C189.776 137.299 193.817 138.488 199.204 138.488C201.686 138.488 203.984 138.197 206.097 137.617C208.262 137.035 210.217 135.873 211.96 134.13C213.703 132.387 214.574 130.275 214.574 127.792C214.574 125.31 214.02 123.25 212.911 121.613C211.801 119.922 210.402 118.655 208.711 117.809C207.074 116.912 205.278 116.04 203.324 115.195C201.422 114.35 199.627 113.61 197.936 112.977C196.299 112.29 194.926 111.366 193.817 110.204C192.707 108.989 192.153 107.51 192.153 105.767C192.153 104.024 192.787 102.466 194.054 101.092C195.322 99.6664 197.382 98.9269 200.234 98.8741H201.898C202.848 98.8741 204.248 99.1118 206.097 99.5871ZM221.774 98.5571H220.11V99.191H221.774V127.951C221.774 132.123 222.619 134.923 224.309 136.349C225.999 137.722 228.535 138.409 231.915 138.409C235.348 138.409 238.386 137.907 241.027 136.903L240.789 136.27C238.254 137.273 235.744 137.775 233.262 137.775C230.832 137.775 229.221 137.009 228.429 135.477C227.69 133.946 227.32 131.463 227.32 128.03V99.191H239.442V98.5571H227.32V86.1516H221.774V98.5571ZM270.773 136.111C272.093 137.485 274.549 138.171 278.141 138.171H280.597V137.537H278.141L277.269 137.379C276.636 137.326 276.002 136.903 275.368 136.111C274.787 135.266 274.497 134.078 274.497 132.546V106.005C274.497 104.314 273.81 102.703 272.437 101.172C270.694 99.2174 267.102 98.2402 261.662 98.2402C256.802 98.2402 252.022 99.323 247.321 101.489L247.638 102.043C248.853 101.357 250.755 100.67 253.343 99.9832C255.983 99.2438 258.281 98.8741 260.236 98.8741C262.19 98.8741 263.774 99.1382 264.989 99.6664C266.204 100.142 267.049 100.723 267.524 101.409C268 102.096 268.37 102.809 268.634 103.549C268.951 104.235 269.056 104.816 268.951 105.292C268.845 105.714 268.845 105.952 268.951 106.005V119.156C267.789 119.051 266.494 118.998 265.068 118.998C263.642 118.998 262.084 119.077 260.394 119.236C253.58 119.658 249.17 120.82 247.163 122.722C246.159 123.672 245.552 124.544 245.341 125.336C245.129 126.128 245.024 126.868 245.024 127.554C245.024 128.188 245.076 128.822 245.182 129.456C246.08 135.477 249.857 138.488 256.512 138.488C262.216 138.488 266.362 136.138 268.951 131.437V133.1C268.951 133.946 269.558 134.949 270.773 136.111ZM265.306 135.002C263.088 136.903 260.579 137.854 257.779 137.854C253.554 137.854 251.203 135.055 250.728 129.456C250.675 128.928 250.649 128.452 250.649 128.03C250.649 125.706 251.257 123.884 252.471 122.563C253.686 121.243 256.301 120.345 260.315 119.869C261.741 119.711 263.167 119.632 264.593 119.632C266.072 119.632 267.524 119.685 268.951 119.79V129.377C268.792 131.172 267.577 133.048 265.306 135.002Z" fill="black"/>
<path fill-rule="evenodd" clip-rule="evenodd" d="M194.944 40.1291C192.177 42.7127 190.423 45.9695 189.454 49.5766C181.657 78.6123 218.058 93.298 247.013 85.2062C263.919 80.4816 245.089 70.0735 235.202 58.8925C222.328 44.3332 208.142 15.812 194.944 40.1291Z" fill="#F9C62E"/>
<path d="M253.819 96.7224C253.819 96.7224 260.104 95.9317 263.217 95.9317C266.619 95.9317 271.147 96.7224 271.147 96.7224C268.327 92.8193 240.45 55.2143 228.393 38.3946L210.399 13.6604C199.204 2.18887 176.672 5.65438 176.054 24.643C175.773 33.2934 170.206 39.9081 167.721 39.3898C167.721 39.3898 184.99 57.951 194.667 45.4338C204.345 32.9167 206.644 29.4605 213.722 41.2013L253.819 96.7224Z" fill="black"/>
<path d="M213.722 41.2013C212.624 36.6647 212.901 27.0266 217.244 23.0698L271.147 96.7224C271.147 96.7224 266.619 95.9317 263.217 95.9317C260.104 95.9317 253.819 96.7224 253.819 96.7224L213.722 41.2013Z" fill="#9A6E58"/>
</svg>
