<svg width="195" height="146" viewBox="0 0 195 146" fill="none" xmlns="http://www.w3.org/2000/svg">
<path d="M132.429 101.431C132.429 122.862 109.222 140.235 80.5944 140.235C51.9668 140.235 28.7596 122.862 28.7596 101.431C28.7596 85.3384 41.8445 72.1098 60.4838 66.5175C71.267 63.2823 80.3777 74.8046 90.0607 80.5477C105.016 89.4178 132.429 85.8454 132.429 101.431Z" fill="#F7CF95"/>
<path d="M175.303 77.9447C175.303 92.1781 157.732 114.928 133.929 114.928C110.126 114.928 83.7977 137.044 83.7977 122.811C83.7977 108.577 88.5996 81.2936 112.402 81.2936C136.205 81.2936 175.303 63.7113 175.303 77.9447Z" fill="#F6A532"/>
<path d="M42.7717 145.278L42.3891 91.2383L71.1162 90.6497L73.4709 114.461L70.8513 119.73L50.6304 120.937L48.9527 111.341L66.0242 112.283L65.7298 97.9198L52.3964 99.1854L52.161 145.425L42.7717 145.278ZM44.8615 120.378C45.0184 118.121 45.0086 116.581 44.832 115.756C44.6751 117.424 44.6849 118.965 44.8615 120.378ZM44.7437 114.903L44.8615 114.52C44.9988 109.654 45.0283 106.014 44.9498 103.6C44.7535 104.876 44.6456 107.044 44.626 110.105V112.813L44.7437 114.903ZM44.1256 108.722C44.1256 104.189 44.0962 100.422 44.0373 97.4194V92.6217H43.9196C43.7626 94.6036 43.6841 96.5168 43.6841 98.3613C43.6841 98.636 43.6841 99.0284 43.6841 99.5386C43.6841 100.912 43.7234 102.786 43.8019 105.16C43.9 107.535 44.0079 108.722 44.1256 108.722ZM81.3002 129.178L78.1213 144.572L71.8226 143.895L83.3311 92.1214L94.3981 92.0331L106.937 139.568L98.4305 142.6L95.3694 128.825L81.3002 129.178ZM95.2222 123.998L89.7182 99.4209L84.6262 124.145L95.2222 123.998ZM135.016 101.069L121.124 100.539L122.772 144.719L112.912 144.572L113.618 102.011L100.373 100.539V92.1214L135.105 91.827L135.016 101.069ZM117.562 135.035C117.798 133.878 117.817 131.68 117.621 128.442C117.366 130.463 117.346 132.661 117.562 135.035ZM115.679 119.583V123.409C115.698 127.824 115.845 130.944 116.12 132.769C116.218 129.296 116.169 124.067 115.973 117.081L115.826 116.522L115.679 119.583ZM114.707 126.176C114.707 129.571 114.737 132.386 114.796 134.623V138.244H114.913C115.07 136.752 115.149 135.31 115.149 133.917C115.149 133.721 115.149 133.436 115.149 133.063C115.149 132.004 115.1 130.591 115.002 128.825C114.923 127.059 114.825 126.176 114.707 126.176ZM146.201 98.8028L146.348 143.748L138.048 143.689L138.666 98.6556L146.201 98.8028ZM143.699 104.042C143.582 107.692 143.591 110.174 143.729 111.489C143.866 108.8 143.856 106.318 143.699 104.042ZM142.757 123.468C142.757 124.292 142.767 124.92 142.787 125.352C142.806 128.334 142.895 131.425 143.052 134.623H143.14L143.052 126.853C143.052 122.006 143.012 115.933 142.934 108.634C142.836 108.634 142.777 110.547 142.757 114.373C142.738 118.18 142.738 121.211 142.757 123.468ZM174.752 133.77C174.83 131.572 174.742 130.081 174.487 129.296C174.369 130.905 174.457 132.396 174.752 133.77ZM157.504 123.674L157.651 123.262C157.611 118.513 157.494 114.972 157.298 112.637C157.101 113.873 157.052 115.982 157.15 118.965L157.298 121.614L157.504 123.674ZM175.605 121.702C175.586 121.192 175.566 120.809 175.546 120.554C175.487 118.749 175.321 114.206 175.046 106.926L174.899 114.962L175.105 119.642C175.164 122.585 175.291 126.264 175.487 130.679C175.644 130.66 175.723 129.502 175.723 127.206C175.723 124.891 175.684 123.056 175.605 121.702ZM158.828 133.505L170.042 134.329L170.601 103.659L158.475 103.159L158.828 133.505ZM149.292 140.716L151.146 98.9205L176.459 98.8911L178.872 140.922L149.292 140.716ZM160.977 135.624L161.33 135.742C164.528 136.017 167.325 136.174 169.718 136.213C168.482 135.997 167.128 135.83 165.657 135.712L163.067 135.595L160.977 135.624Z" fill="#784212"/>
<path d="M95.4827 36.8026C98.3947 56.6047 105.238 57.9636 108.296 56.1679C110.771 54.8089 116.479 53.1102 119.507 57.1871C122.536 61.264 122.031 66.7484 121.4 68.981C120.187 71.2621 115.11 75.8243 104.51 75.8243C93.9102 75.8243 88.3481 61.9435 86.8921 55.003C85.436 43.9857 83.3976 19.0972 86.8921 7.6819C90.3866 -3.73341 104.17 0.887071 110.625 4.62423C111.79 5.49785 113.8 8.46816 112.518 13.3604C111.237 18.2527 106.646 17.6315 104.51 16.7093C100.288 15.1562 92.5706 17.0005 95.4827 36.8026Z" fill="#42632E"/>
<path d="M76.5765 75.2951C62.5112 71.8432 52.4329 56.4897 48.7904 47.572C43.8601 49.1049 30.1371 48.5946 26.2259 48.4124C25.5217 48.3796 24.803 48.281 24.2518 47.8414C21.461 45.6155 20.8764 38.5095 25.2486 36.9964C26.3134 36.6279 27.3566 37.393 28.165 38.178C32.0589 41.9592 43.1521 44.5898 48.7904 42.3899C48.5727 32.4831 56.4778 17.8948 61.9503 10.7991C62.6685 9.86782 63.5236 9.06014 64.4723 8.36517C70.2563 4.12803 80.0209 -1.90603 81.8425 1.41568C83.0877 3.68642 81.7496 8.41768 79.9572 12.7273C78.1615 17.0447 74.0236 19.6553 69.7958 21.6529C68.9366 22.0589 68.1624 22.4999 67.5733 22.965C65.5667 24.5491 65.4034 32.4767 65.6074 37.3069C65.6345 37.9489 66.3297 38.3279 66.8984 38.0288C72.8974 34.8726 75.4716 35.0858 76.0183 35.6325C76.3095 36.7488 76.8628 39.8841 76.7463 43.4951C76.6412 46.753 71.7082 48.3595 68.5346 48.892C68.0226 48.9779 67.6715 49.4697 67.7899 49.9752C68.3657 52.4327 69.4232 56.543 70.3398 58.7835C71.3881 61.3461 79.7745 60.4731 80.6776 61.5499C83.1005 64.4388 84.2995 67.0356 84.7667 69.2267C85.7083 73.6435 80.9624 76.3715 76.5765 75.2951Z" fill="#539442"/>
<path fill-rule="evenodd" clip-rule="evenodd" d="M178.611 1.62061C176.766 19.9181 165.856 58.1439 136.968 64.6669C128.364 65.8317 113.147 49.6989 117.457 20.1122C118.185 15.0647 122.408 6.07607 133.474 10.5024C144.54 14.9288 153.713 14.9676 156.916 14.4337C161.915 13.2203 173.253 8.95902 178.611 1.62061ZM142.064 27.8292C153.13 29.46 161.333 25.8879 164.05 23.8979C163.759 27.3924 159.508 35.9248 144.831 42.0984C130.154 48.272 128.038 38.1671 128.814 32.3429C128.62 30.1589 130.998 26.1985 142.064 27.8292Z" fill="#539442"/>
</svg>
