<svg width="278" height="141" viewBox="0 0 278 141" fill="none" xmlns="http://www.w3.org/2000/svg">
<path d="M254.266 74.2504C252.645 74.6029 251.305 75.0612 250.248 75.6252C249.635 77.2496 248.995 79.0473 248.329 81.0182C247.722 82.8132 247.093 84.7519 246.442 86.8343C250.327 87.3012 261.351 92.5134 275.259 109.443C275.206 108.819 275.153 108.191 275.098 107.561C275.028 106.741 274.957 105.931 274.886 105.128C274.604 101.927 274.323 98.8599 274.041 95.9285C273.688 92.2626 273.336 88.9844 272.983 86.094C272.701 83.1331 272.419 80.9477 272.137 79.5378C271.785 77.6343 270.516 76.1891 268.33 75.2022C266.145 74.1447 263.325 73.616 259.871 73.616C257.826 73.616 255.958 73.8275 254.266 74.2504Z" fill="#004A96"/>
<path d="M210.17 75.2022C208.266 76.2596 207.033 77.2466 206.469 78.1631L204.935 105.128L204.575 111.473C210.317 104.616 224.171 90.089 233.646 86.8343C232.941 84.6488 232.271 82.7102 231.636 81.0182C230.649 78.4098 229.098 76.5416 226.984 75.4137C224.869 74.2152 221.943 73.616 218.207 73.616C214.752 73.616 212.073 74.1447 210.17 75.2022Z" fill="#004A96"/>
<path d="M245.489 124.269C246.97 123.775 248.168 123.141 249.085 122.365C250.988 115.879 252.609 110.557 253.949 106.397C255.288 102.238 256.311 98.7836 257.016 96.0342H257.544C257.756 100.194 257.897 105.34 257.967 111.473C258.108 117.606 258.39 124.515 258.813 132.2C258.954 134.878 259.941 136.676 261.774 137.593C263.607 138.509 265.863 138.967 268.542 138.967C270.586 138.967 272.243 138.791 273.512 138.439C274.851 138.157 276.12 137.663 277.319 136.958C277.248 135.266 277.107 132.869 276.896 129.767C276.684 126.595 276.402 123.141 276.05 119.404C275.811 116.184 275.548 112.864 275.259 109.443C261.351 92.5134 250.327 87.3012 246.442 86.8343C246.164 87.7245 245.881 88.641 245.595 89.5837C243.903 95.0825 242.211 100.793 240.519 106.715H239.99C239.426 104.882 238.792 102.837 238.087 100.581C237.382 98.2549 236.642 95.9285 235.866 93.602C235.161 91.2756 234.421 89.0197 233.646 86.8343C224.171 90.089 210.317 104.616 204.575 111.473L203.402 132.094C203.402 134.702 204.248 136.5 205.94 137.487C207.702 138.474 210.135 138.967 213.237 138.967C214.717 138.967 216.197 138.826 217.678 138.544C219.158 138.333 220.357 138.051 221.273 137.698C221.485 133.68 221.626 130.014 221.696 126.701C221.837 123.387 221.908 120.109 221.908 116.866C221.978 113.623 222.049 110.31 222.119 106.926C222.26 103.472 222.436 99.6648 222.648 95.5055H223.177C223.882 98.3959 224.869 101.78 226.138 105.657C227.407 109.464 229.028 114.469 231.002 120.673C231.495 122.224 232.553 123.317 234.174 123.951C235.866 124.586 237.981 124.903 240.519 124.903C242.423 124.903 244.079 124.691 245.489 124.269Z" fill="#0094E0"/>
<path fill-rule="evenodd" clip-rule="evenodd" d="M159.151 137.698V117.395H164.755L173.638 131.671C174.272 132.728 174.942 133.715 175.647 134.632C176.352 135.548 177.128 136.324 177.974 136.958C178.819 137.593 179.806 138.086 180.934 138.439C182.062 138.791 183.402 138.967 184.953 138.967C187.279 138.967 189.359 138.333 191.192 137.064C193.095 135.725 194.399 133.821 195.104 131.354C193.694 128.886 191.756 126.137 189.288 123.105C186.821 120.074 184.318 116.831 181.78 113.377C184.882 111.685 187.561 109.288 189.817 106.186C182.777 92.6505 174.899 89.1961 171.84 89.1609C173.603 90.5003 174.484 92.5095 174.484 95.1884C174.484 97.8673 173.708 99.9118 172.157 101.322C170.607 102.661 168.492 103.331 165.813 103.331H159.045V98.87V87.4689C151.803 87.4689 143.831 102.227 140.751 109.606L140.751 123.105L140.751 129.873C140.751 131.706 140.962 133.187 141.385 134.315C141.808 135.443 142.407 136.324 143.183 136.958C144.029 137.593 145.051 138.016 146.25 138.227C147.519 138.509 148.964 138.65 150.585 138.65C152.207 138.65 153.828 138.544 155.45 138.333C157.141 138.121 158.375 137.91 159.151 137.698Z" fill="#0094E0"/>
<path d="M141.914 76.6828C141.138 77.4583 140.751 78.5862 140.751 80.0667L140.751 109.606C143.831 102.227 151.803 87.4689 159.045 87.4689C159.82 87.3279 160.525 87.2222 161.16 87.1517C161.794 87.0812 162.64 87.046 163.698 87.046C167.434 87.046 170.148 87.7509 171.84 89.1609C174.899 89.1961 182.777 92.6505 189.817 106.186C192.073 103.084 193.201 99.3478 193.201 94.9769C193.201 87.9977 190.734 82.4636 185.799 78.3748C180.864 74.2859 173.532 72.2415 163.803 72.2415C160.208 72.2415 156.824 72.4529 153.652 72.8759C150.479 73.2284 147.695 73.8277 145.298 74.6736C143.888 75.1671 142.76 75.8368 141.914 76.6828Z" fill="#004A96"/>
<path fill-rule="evenodd" clip-rule="evenodd" d="M129.624 113.184C123.106 96.7658 110.331 89.9014 101.722 87.7376C100.223 87.2057 98.5638 86.9398 96.7452 86.9398C90.9106 86.7413 76.1483 91.7123 63.7767 113.184C64.1978 115.78 64.8594 118.206 65.7615 120.461C67.4535 124.691 69.7799 128.251 72.7408 131.142C75.7017 134.032 79.2266 136.253 83.3155 137.804C87.4043 139.284 91.8457 140.025 96.6395 140.025C101.433 140.025 105.875 139.284 109.964 137.804C114.052 136.323 117.577 134.173 120.538 131.353C121.77 130.179 122.891 128.894 123.901 127.499C125.378 125.46 126.619 123.184 127.623 120.673C128.33 118.878 128.888 116.978 129.3 114.974C129.421 114.386 129.528 113.79 129.624 113.184ZM96.7452 86.9398C98.1269 87.0117 99.8232 87.2603 101.722 87.7376C103.885 88.5047 105.715 89.825 107.214 91.6984C109.823 94.8708 111.127 99.6294 111.127 105.974C111.101 106.368 111.095 106.783 111.11 107.212C111.096 107.48 111.085 107.759 111.079 108.047C110.822 113.432 109.534 117.535 107.214 120.356C104.606 123.528 101.081 125.114 96.6395 125.114C92.2687 125.114 88.779 123.528 86.1706 120.356C83.5622 117.183 82.258 112.389 82.258 105.974C82.258 101.993 82.7604 98.6492 83.7651 95.9439C84.3792 94.2903 85.1811 92.8751 86.1706 91.6984C88.8495 88.526 92.3744 86.9398 96.7452 86.9398Z" fill="#0094E0"/>
<path d="M65.7615 91.3811C64.0696 95.611 63.2236 100.475 63.2236 105.974C63.2236 108.508 63.408 110.912 63.7767 113.184C76.1483 91.7123 90.9106 86.7413 96.7452 86.9398C98.5638 86.9398 100.223 87.2057 101.722 87.7376C110.331 89.9014 123.106 96.7658 129.624 113.184C129.982 110.908 130.161 108.504 130.161 105.974C130.161 100.475 129.28 95.611 127.517 91.3811C125.826 87.1513 123.464 83.6264 120.432 80.8065C117.401 77.9161 113.841 75.7307 109.752 74.2502C105.734 72.7698 101.363 72.0295 96.6395 72.0295C91.9162 72.0295 87.5101 72.7698 83.4212 74.2502C79.4028 75.7307 75.878 77.9161 72.8466 80.8065C69.8857 83.6264 67.524 87.1513 65.7615 91.3811Z" fill="#004A96"/>
<path fill-rule="evenodd" clip-rule="evenodd" d="M10.7361 109.606V113.694V129.873C10.7361 131.706 10.9476 133.187 11.3706 134.315C11.7935 135.443 12.428 136.324 13.274 136.958C14.12 137.593 15.1422 138.016 16.3406 138.227C17.6096 138.509 19.0548 138.65 20.6763 138.65C22.2977 138.65 23.9191 138.544 25.5406 138.333C27.2325 138.121 28.4662 137.91 29.2417 137.698V115.386H47.7473C49.7213 115.386 51.2722 114.822 52.4002 113.694C53.5986 112.496 54.1979 110.557 54.1979 107.878C54.1979 106.468 53.9864 105.129 53.5634 103.86C53.2109 102.591 52.7527 101.568 52.1887 100.793H29.0302V88.8436C20.5705 91.7126 13.133 104.601 10.7361 109.606Z" fill="#0094E0"/>
<path d="M57.053 77.2115C56.7005 75.872 56.2776 74.8145 55.7841 74.0391H20.5705C17.5391 74.0391 15.1422 74.9203 13.3797 76.6827C11.6173 78.4452 10.7361 80.8421 10.7361 83.8735V109.606C13.133 104.601 20.5705 91.7126 29.0302 88.8436H51.237C53.2109 88.8436 54.7619 88.2796 55.8898 87.1516C57.0883 85.9532 57.6875 83.9792 57.6875 81.2298C57.6875 79.8199 57.476 78.4804 57.053 77.2115Z" fill="#004A96"/>
<path fill-rule="evenodd" clip-rule="evenodd" d="M197.619 41.6109C191.101 25.1923 178.326 18.3279 169.717 16.1642C168.218 15.6323 166.559 15.3663 164.74 15.3663C158.905 15.1678 144.143 20.1388 131.772 41.6109C132.193 44.2069 132.854 46.6326 133.756 48.8879C135.448 53.1178 137.775 56.6779 140.736 59.5683C143.697 62.4587 147.221 64.6794 151.31 66.2304C155.399 67.7108 159.841 68.451 164.634 68.451C169.428 68.451 173.87 67.7108 177.958 66.2304C182.047 64.7499 185.572 62.5997 188.533 59.7798C189.765 58.6056 190.886 57.3209 191.896 55.9256C193.373 53.8863 194.613 51.6109 195.618 49.0994C196.324 47.3041 196.883 45.4044 197.295 43.4002C197.415 42.8128 197.523 42.2163 197.619 41.6109ZM164.74 15.3663C166.122 15.4382 167.818 15.6868 169.717 16.1642C171.88 16.9313 173.71 18.2515 175.209 20.1249C177.817 23.2973 179.122 28.0559 179.122 34.4007C179.096 34.7945 179.09 35.2094 179.105 35.6381C179.091 35.9063 179.08 36.1852 179.074 36.4735C178.817 41.8584 177.528 45.9613 175.209 48.7822C172.601 51.9546 169.076 53.5408 164.634 53.5408C160.264 53.5408 156.774 51.9546 154.165 48.7822C151.557 45.6098 150.253 40.8159 150.253 34.4007C150.253 30.4191 150.755 27.0757 151.76 24.3704C152.374 22.7168 153.176 21.3016 154.165 20.1249C156.844 16.9525 160.369 15.3663 164.74 15.3663Z" fill="#0094E0"/>
<path d="M133.756 19.8077C132.064 24.0375 131.219 28.9018 131.219 34.4007C131.219 36.9347 131.403 39.3381 131.772 41.6109C144.143 20.1388 158.905 15.1678 164.74 15.3663C166.559 15.3663 168.218 15.6323 169.717 16.1642C178.326 18.3279 191.101 25.1923 197.619 41.6109C197.977 39.3344 198.156 36.931 198.156 34.4007C198.156 28.9018 197.275 24.0375 195.512 19.8077C193.82 15.5778 191.459 12.0529 188.427 9.23301C185.396 6.34261 181.836 4.15718 177.747 2.67673C173.729 1.19628 169.358 0.456055 164.634 0.456055C159.911 0.456055 155.505 1.19628 151.416 2.67673C147.398 4.15718 143.873 6.34261 140.841 9.23301C137.881 12.0529 135.519 15.5778 133.756 19.8077Z" fill="#004A96"/>
<path fill-rule="evenodd" clip-rule="evenodd" d="M60.064 60.7315C60.8395 59.6741 61.2272 58.0526 61.2272 55.8672V34.2949C61.2272 32.18 60.628 30.5585 59.4295 29.4306C58.3016 28.2321 56.6801 27.6329 54.5652 27.6329H36.694C34.8611 27.6329 33.3454 28.1969 32.1469 29.3248C31.019 30.4528 30.455 32.2857 30.455 34.8237C30.455 36.2336 30.6312 37.5731 30.9837 38.842C31.4067 40.111 31.8297 41.1332 32.2527 41.9087H43.5675V51.8488C42.9331 52.2013 42.0166 52.5186 40.8181 52.8005C39.6197 53.0825 38.245 53.2235 36.694 53.2235C34.2971 53.2235 32.0412 52.871 29.9263 52.1661C27.8113 51.3906 25.9431 50.2626 24.3217 48.7822C22.7002 47.2312 21.396 45.2925 20.4091 42.9661C19.4926 40.5692 19.0344 37.7493 19.0344 34.5064C19.0344 28.5141 20.7616 23.826 24.2159 20.4421C26.3996 18.3458 29.0433 16.8988 32.1469 16.1011C14.7199 15.4201 3.57457 30.9779 0.180279 38.842C0.538389 42.7071 1.43001 46.1967 2.85515 49.3109C4.75859 53.4703 7.33176 56.9599 10.5746 59.7798C13.888 62.5292 17.7654 64.6089 22.2068 66.0189C26.6481 67.3583 31.4067 68.028 36.4825 68.028C38.386 68.028 40.2894 67.9223 42.1928 67.7108C44.1668 67.4993 46.035 67.1821 47.7974 66.7591C49.5598 66.4066 51.1813 65.9836 52.6617 65.4901C54.1422 64.9261 55.3759 64.3622 56.3629 63.7982C58.0548 62.8112 59.2885 61.789 60.064 60.7315Z" fill="#0094E0"/>
<path d="M3.06665 19.7019C1.02222 24.0023 0 29.0428 0 34.8237C0 36.2054 0.060093 37.5449 0.180279 38.842C3.57457 30.9779 14.7199 15.4201 32.1469 16.1011C34.0531 15.6113 36.1328 15.3663 38.386 15.3663C41.6994 15.3663 44.6603 15.895 47.2687 16.9525C49.9476 17.9395 52.1683 18.9617 53.9307 20.0191C55.1292 19.2437 56.1866 18.1862 57.1031 16.8468C58.0196 15.5073 58.4778 13.9211 58.4778 12.0882C58.4778 8.63378 56.5039 5.84912 52.556 3.7342C48.6786 1.54877 43.3913 0.456055 36.694 0.456055C32.0412 0.456055 27.4941 1.16103 23.0527 2.57098C18.6819 3.98094 14.7693 6.13111 11.3149 9.02151C7.93098 11.8414 5.18158 15.4016 3.06665 19.7019Z" fill="#004A96"/>
<path d="M67.9954 44.8619C67.9954 32.6739 78.7016 23.2711 90.8262 24.512C99.073 25.3561 107.565 26.0767 112.523 26.0767C124.49 26.0767 129.285 21.8782 129.285 21.8782C129.285 34.0569 118.572 43.4429 106.458 42.1923C98.4304 41.3636 90.1995 40.6632 85.3115 40.6632C73.3439 40.6632 67.9954 44.8619 67.9954 44.8619Z" fill="#004A96"/>
<path d="M67.9957 23.4397C67.9957 11.2518 78.7019 1.84895 90.8265 3.08993C99.0734 3.93402 107.565 4.65455 112.523 4.65455C124.491 4.65455 129.286 0.456055 129.286 0.456055C129.286 12.6348 118.573 22.0208 106.458 20.7702C98.4307 19.9415 90.1999 19.2411 85.3119 19.2411C73.3443 19.2411 67.9957 23.4397 67.9957 23.4397Z" fill="#0094E0"/>
<path d="M67.9954 66.3252C67.9954 54.1418 78.6976 44.7425 90.8177 45.983C99.0615 46.8268 107.55 47.547 112.506 47.547C124.469 47.547 129.262 43.3501 129.262 43.3501C129.262 55.5243 118.554 64.9068 106.444 63.6567C98.4191 62.8283 90.1913 62.1281 85.3051 62.1281C73.3419 62.1281 67.9954 66.3252 67.9954 66.3252Z" fill="#123F6C"/>
</svg>
