<svg width="272" height="139" viewBox="0 0 272 139" fill="none" xmlns="http://www.w3.org/2000/svg">
<path d="M48.1412 0.456055C58.1371 16.8801 41.0565 36.5809 43.6811 38.2236C46.6879 38.963 50.049 34.3907 53.5484 36.5809C53.5484 26.9989 67.078 16.0065 48.1412 0.456055Z" fill="#ED334E"/>
<path d="M35.2759 25.4416C32.7658 26.1136 24.1102 25.3316 14.0198 37.2972C13.2857 38.1678 13.2256 39.48 14.0237 40.2924C18.3475 44.6935 17.121 31.4893 31.9932 34.5272C33.2249 30.5086 31.2474 32.4305 35.2759 25.4416Z" fill="#1C8B3C"/>
<path d="M46.6496 3.07691C46.9481 19.8535 32.0964 23.2877 34.1391 40.0643C37.6107 38.6896 39.5323 38.3309 42.6017 39.2525C37.349 37.629 53.3614 18.5006 46.6496 3.07691Z" fill="#FBB132"/>
<path d="M60.2759 25.9657C55.5438 33.8527 55.987 37.6642 58.4752 45.4325C66.9181 45.4325 76.8166 55.641 77.9812 48.3876C75.361 39.2537 61.3435 36.4589 60.2759 25.9657Z" fill="#0885C2"/>
<path d="M6.28133 67.2191C7.21651 66.8582 8.2226 67.5484 8.2226 68.5508C8.2226 69.3776 8.92281 70.0314 9.74766 69.9749L11.8807 69.8286C12.4413 69.7902 12.9839 69.6143 13.4605 69.3166L15.5859 67.9888C15.8834 67.8029 16.213 67.6744 16.5578 67.6098L16.9483 67.5366C18.4759 67.2503 19.8878 68.4222 19.8878 69.9763L21.8687 72.4513L30.2324 74.8232L31.6473 72.5029C31.8644 72.147 31.8961 71.7081 31.7324 71.3247L31.6863 71.2165C31.6001 71.0146 31.5858 70.7892 31.6459 70.5781C31.82 69.9662 31.3605 69.3576 30.7243 69.3576H28.9748C28.5146 69.3576 28.1415 68.9845 28.1415 68.5243C28.1415 66.4215 29.8461 64.7169 31.9489 64.7169H34.0196C34.4509 64.7169 34.8324 64.4368 34.9615 64.0253C35.2453 63.1212 36.5161 63.0973 36.8336 63.99L36.8487 64.0323C36.9119 64.2101 37.024 64.3664 37.1721 64.4832L37.9303 65.0816C38.6493 65.649 39.529 65.9752 40.4441 66.0139L51.2799 66.472C52.4365 66.5209 53.1871 67.7113 52.7326 68.776C52.6274 69.0225 52.5836 69.2909 52.605 69.5581L52.8521 72.6455C52.8736 72.9137 53.1863 73.0485 53.396 72.8801C53.5462 72.7594 53.7671 72.79 53.8789 72.9471L54.0591 73.2004C54.2214 73.4286 54.5152 73.5218 54.7794 73.4289L55.29 73.2495C55.781 73.077 56.3275 73.2026 56.6939 73.5723L56.8739 73.754C57.2811 74.165 57.865 74.3483 58.4341 74.244L62.5869 73.4826L62.1046 71.4811C61.924 70.7316 62.1194 69.9411 62.6283 69.362L63.0681 68.8616C63.2514 68.653 63.3331 68.374 63.2912 68.0995C63.2626 67.9114 63.1775 67.7364 63.0472 67.5977L61.4248 65.87C61.0783 65.501 61.0457 64.9368 61.3474 64.5303L61.7417 63.9992C62.0911 63.5285 61.7551 62.8606 61.1689 62.8606C60.9522 62.8606 60.7473 62.7621 60.6119 62.593L60.1666 62.0365C59.7488 61.5146 59.5915 60.8308 59.7391 60.1788L60.1099 58.5407C60.2093 58.1016 60.0201 57.6476 59.6383 57.4091C58.9985 57.0094 58.9701 56.0879 59.584 55.6496L60.2759 55.1556C60.4927 55.0008 60.6681 54.7952 60.7869 54.5568L63.6874 48.7323L61.5953 48.2422C60.4095 47.9644 59.1615 48.2227 58.1834 48.9483L57.2598 49.6335C57.1459 49.718 57.0079 49.7636 56.8662 49.7636C56.3215 49.7636 56.0108 49.1417 56.3378 48.7062L56.6877 48.2403C57.1179 47.6675 56.7849 46.8427 56.0776 46.729L54.8554 46.5327C54.2016 46.4277 53.6684 45.9523 53.4893 45.3147L53.464 45.2244C53.319 44.7082 53.4345 44.1538 53.7734 43.7384L53.8243 43.6762C54.2503 43.1541 54.0717 42.3707 53.4616 42.0848C53.1026 41.9166 52.8216 41.6174 52.6761 41.2486L52.2139 40.0767C51.7332 38.8578 50.0605 38.7261 49.3949 39.8547L48.7207 40.9979L45.3092 41.2041L43.4384 40.6885L40.8401 41.1233C40.6075 41.1622 40.4865 41.4226 40.6068 41.6255C40.7394 41.8492 40.5782 42.1323 40.3181 42.1323H38.44C38.3245 42.1323 38.2094 42.1465 38.0973 42.1747L35.7597 42.7624C34.5277 43.0721 33.2259 42.6687 32.385 41.7165L32.0595 41.348C31.4721 40.6828 31.2765 39.7585 31.544 38.9124L31.7921 38.1276C31.9162 37.7351 31.8174 37.3063 31.5342 37.0076L31.3682 36.8326C31.2089 36.6647 31.145 36.4277 31.1984 36.2025C31.276 35.8755 31.1051 35.5404 30.7949 35.4112L30.7013 35.3722C30.4746 35.2778 30.2172 35.292 30.0023 35.4108L26.6275 37.2759C26.244 37.4878 25.8387 37.6574 25.4186 37.7817L24.2882 38.1162C24.0725 38.1801 23.8444 38.1895 23.6242 38.1436L23.3346 38.0833C22.3617 37.8807 21.5718 38.8705 21.9851 39.7742L22.0592 39.9363C22.2113 40.2689 22.5435 40.4822 22.9093 40.4822H23.0599C23.2783 40.4822 23.4822 40.5913 23.6033 40.773C23.8011 41.0695 23.7246 41.4698 23.4315 41.6726L20.3679 43.7916C19.697 44.2556 18.9006 44.5042 18.0849 44.5042H16.0732C15.5266 44.5042 15.0426 44.151 14.876 43.6304L14.8611 43.5838C14.6587 42.9517 13.9842 42.6013 13.3507 42.7992C13.2341 42.8356 13.1127 42.8541 12.9906 42.8541H9.78023C9.46698 42.8541 9.21304 43.1081 9.21304 43.4213C9.21304 43.7346 9.46698 43.9885 9.78023 43.9885H10.3411C10.6905 43.9885 10.9738 44.2718 10.9738 44.6213C10.9738 44.9151 10.7715 45.1703 10.4854 45.2373L9.73532 45.4131C9.17151 45.5452 8.77284 46.048 8.77284 46.6271C8.77284 46.9211 8.87672 47.2056 9.06614 47.4305L9.46411 47.9028C10.0672 48.6188 10.2932 49.5792 10.0726 50.4889L9.45026 53.0549C9.03859 54.7523 7.66289 56.0462 5.94343 56.3531C4.79544 56.558 3.77554 57.2097 3.10735 58.1655L2.38093 59.2044C2.17193 59.5034 2.05984 59.8593 2.05984 60.2241V60.3206C2.05984 60.8742 1.76816 61.3928 1.29859 61.6862C0.943543 61.908 0.686783 62.265 0.593462 62.6731C0.478035 63.1779 0.618258 63.7072 0.968473 64.0886L3.61687 66.9728C4.13815 67.5405 4.95374 67.7314 5.67279 67.4539L6.28133 67.2191Z" fill="#1C8B3C"/>
<path d="M63.6874 48.7323L60.7869 54.5568C60.6681 54.7952 60.4927 55.0008 60.2759 55.1556L59.584 55.6496C58.9701 56.0879 58.9985 57.0094 59.6383 57.4091C60.0201 57.6476 60.2093 58.1016 60.1099 58.5407L59.7391 60.1788C59.5915 60.8308 59.7488 61.5146 60.1666 62.0365L60.6119 62.593C60.7473 62.7621 60.9522 62.8606 61.1689 62.8606C61.7551 62.8606 62.0911 63.5285 61.7417 63.9992L61.3474 64.5303C61.0457 64.9368 61.0783 65.501 61.4248 65.87L63.0472 67.5977C63.1775 67.7364 63.2626 67.9114 63.2912 68.0995C63.3331 68.374 63.2514 68.653 63.0681 68.8616L62.6283 69.362C62.1194 69.9411 61.924 70.7316 62.1046 71.4811L62.5869 73.4826V78.0201H62.7634C63.2986 78.0201 63.8263 77.8946 64.3041 77.6535L65.4475 77.0765C66.0428 76.7761 66.7622 76.8796 67.2487 77.3355L67.4055 77.4824C67.7561 77.811 68.2643 77.9089 68.7119 77.7341C69.0816 77.5898 69.4979 77.63 69.8331 77.8425L72.8012 79.7241C72.9607 79.8251 73.1336 79.9032 73.3149 79.9559L73.8993 80.1259C75.0044 80.4472 75.4212 81.7936 74.691 82.6831C74.29 83.1715 74.2133 83.8498 74.495 84.4155L74.6137 84.6538C74.7381 84.9037 74.9132 85.125 75.1277 85.3037L75.7928 85.8577L77.0034 84.8265L77.7737 81.2171L77.6637 75.5451L78.9843 73.2764L79.7546 74.4107L82.836 69.8732L84.2666 68.9451L86.2038 67.1946C86.9512 66.5192 87.4914 65.6454 87.7616 64.6749C87.9249 64.0885 87.9862 63.4784 87.943 62.8712L87.8128 61.041C87.7964 60.8108 87.7583 60.5828 87.6988 60.3598C87.348 59.045 86.2943 58.0349 84.9658 57.7401L84.0944 57.5467C83.3387 57.3789 82.6309 57.0419 82.0243 56.561L78.797 54.0019C77.7915 53.2046 76.505 52.8504 75.2331 53.0207C74.5154 53.1168 73.7852 53.0467 73.0988 52.8158L70.4349 51.9197C70.0582 51.793 69.6481 51.8085 69.2821 51.9634L67.9544 52.5253C67.3118 52.7972 66.6275 52.2376 66.7665 51.5539C66.8348 51.2178 66.6986 50.873 66.4191 50.6743L63.6874 48.7323Z" fill="#0885C2"/>
<path d="M62.5869 73.4826L58.4341 74.244C57.865 74.3483 57.2811 74.165 56.8739 73.754L56.6939 73.5723C56.3275 73.2026 55.781 73.077 55.29 73.2495L54.7794 73.4289C54.5152 73.5218 54.2214 73.4286 54.0591 73.2004L53.8789 72.9471C53.7671 72.79 53.5462 72.7594 53.396 72.8801C53.1863 73.0485 52.8736 72.9137 52.8521 72.6455L52.605 69.5581C52.5836 69.2909 52.6274 69.0225 52.7326 68.776C53.1871 67.7113 52.4365 66.5209 51.2799 66.472L40.4441 66.0139C39.529 65.9752 38.6493 65.649 37.9303 65.0816L37.1721 64.4832C37.024 64.3664 36.9119 64.2101 36.8487 64.0323L36.8336 63.99C36.5161 63.0973 35.2453 63.1212 34.9615 64.0253C34.8324 64.4368 34.4509 64.7169 34.0196 64.7169H31.9489C29.8461 64.7169 28.1415 66.4215 28.1415 68.5243C28.1415 68.9845 28.5146 69.3576 28.9748 69.3576H30.7243C31.3605 69.3576 31.82 69.9662 31.6459 70.5781C31.5858 70.7892 31.6001 71.0146 31.6863 71.2165L31.7324 71.3247C31.8961 71.7081 31.8644 72.147 31.6473 72.5029L30.2324 74.8232C30.8024 75.2906 31.1966 75.9377 31.3505 76.6586L31.4976 77.3477C31.5344 77.5205 31.553 77.6967 31.553 77.8734V78.3011C31.553 79.4559 32.5035 80.3921 33.6583 80.3921C34.7974 80.3921 35.7349 81.3155 35.7349 82.4546L37.4957 83.7952L36.5053 88.2296L37.0555 92.6641L39.5938 92.9855C40.5391 93.1052 41.3434 93.7319 41.6906 94.6192L42.0484 95.5337C42.223 95.9799 42.6531 96.2735 43.1323 96.2735C43.4013 96.2735 43.6621 96.3667 43.8702 96.5373L44.4288 96.9954C44.7935 96.9954 45.0891 96.6997 45.0891 96.3351V95.9777C45.0891 95.7051 45.1985 95.4439 45.3927 95.2526L47.07 93.6009L51.2599 89.475C51.473 89.2651 51.6476 89.0195 51.7757 88.7493L51.9137 88.4585C51.9851 88.3078 52.0222 88.1431 52.0222 87.9764C52.0222 87.6764 52.1419 87.3889 52.3548 87.1777L53.0218 86.516C53.5846 85.9575 54.3259 85.6146 55.116 85.5473L58.0811 85.2947C58.5048 85.2586 58.904 85.0808 59.2142 84.7901C59.6094 84.4197 59.827 83.8978 59.8118 83.3564L59.7464 81.029C59.7338 80.5796 59.989 80.1655 60.3961 79.9748L60.4386 79.9549C60.8094 79.7811 61.0462 79.4086 61.0462 78.9992C61.0462 78.3328 61.6561 77.8332 62.3094 77.9644L62.5869 78.0201V73.4826Z" fill="#FBB132"/>
<path d="M52.0222 87.9764C52.0222 88.1431 51.9851 88.3078 51.9137 88.4585L51.7757 88.7493C51.6476 89.0195 51.473 89.2651 51.2599 89.475L47.07 93.6009L51.33 94.2718C52.7081 94.4889 53.8602 95.4361 54.3395 96.7462C54.688 97.6985 55.3988 98.4743 56.317 98.9045L57.3046 99.3673L60.8261 97.2016L64.1276 95.7579L64.5678 94.9328L70.0703 95.3453L70.5105 94.3141L72.0076 93.7434C72.2402 93.6547 72.4113 93.453 72.4607 93.2089C72.6976 92.0387 73.2193 90.945 73.9798 90.0246L74.0607 89.9267C74.9773 88.8171 75.5677 87.4748 75.7662 86.0494L75.7928 85.8577L75.1277 85.3037C74.9132 85.125 74.7381 84.9037 74.6137 84.6538L74.495 84.4155C74.2133 83.8498 74.29 83.1715 74.691 82.6831C75.4212 81.7936 75.0044 80.4472 73.8993 80.1259L73.3149 79.9559C73.1336 79.9032 72.9607 79.8251 72.8012 79.7241L69.8331 77.8425C69.4979 77.63 69.0816 77.5898 68.7119 77.7341C68.2643 77.9089 67.7561 77.811 67.4055 77.4824L67.2487 77.3355C66.7622 76.8796 66.0428 76.7761 65.4475 77.0765L64.3041 77.6535C63.8263 77.8946 63.2986 78.0201 62.7634 78.0201H62.5869L62.3094 77.9644C61.6561 77.8332 61.0462 78.3328 61.0462 78.9992C61.0462 79.4086 60.8094 79.7811 60.4386 79.9549L60.3961 79.9748C59.989 80.1655 59.7338 80.5796 59.7464 81.029L59.8118 83.3564C59.827 83.8978 59.6094 84.4197 59.2142 84.7901C58.904 85.0808 58.5048 85.2586 58.0811 85.2947L55.116 85.5473C54.3259 85.6146 53.5846 85.9575 53.0218 86.516L52.3548 87.1777C52.1419 87.3889 52.0222 87.6764 52.0222 87.9764Z" fill="#FF8F3F"/>
<path d="M45.0891 96.3351C45.0891 96.6997 44.7935 96.9954 44.4288 96.9954L44.0984 99.3946C44.0404 99.8163 44.3681 100.192 44.7938 100.192C45.1005 100.192 45.3717 100.391 45.4635 100.684L45.7705 101.662C45.8294 101.85 45.8594 102.046 45.8594 102.242C45.8594 102.95 45.4742 103.601 44.8544 103.941L43.0416 104.937C42.7941 105.073 42.5701 105.248 42.3781 105.455L38.9826 109.114C38.7097 109.408 38.9183 109.886 39.3195 109.886C39.4213 109.886 39.5203 109.92 39.6008 109.982L42.0077 111.846L44.0987 113.083L45.7201 114.338C46.2655 114.76 46.4861 115.48 46.2709 116.135L46.2114 116.317C46.1969 116.361 46.1896 116.407 46.1896 116.453C46.1896 116.81 46.5947 117.016 46.8832 116.806L47.0727 116.668C47.1433 116.616 47.2007 116.549 47.2404 116.471L48.3906 114.217L49.6129 113.242C50.7674 112.32 51.7181 111.173 52.4641 109.898C53.0519 108.893 53.6267 107.976 53.783 107.927C53.9326 107.88 54.3954 107.588 54.8752 107.269C55.5229 106.839 55.9641 106.163 56.1265 105.403C56.178 105.161 56.2004 104.914 56.1931 104.668L56.1016 101.583C56.0966 101.413 56.1091 101.242 56.139 101.074C56.2514 100.442 56.6038 99.878 57.1225 99.4999L57.3046 99.3673L56.317 98.9045C55.3988 98.4743 54.688 97.6985 54.3395 96.7462C53.8602 95.4361 52.7081 94.4889 51.33 94.2718L47.07 93.6009L45.3927 95.2526C45.1985 95.4439 45.0891 95.7051 45.0891 95.9777V96.3351Z" fill="#ED334E"/>
<path d="M72.3802 93.4091L61.0065 94.4575C58.3051 97.8152 59.9322 102.822 57.2774 107.387C53.6503 113.625 50.0959 118.981 50.8933 119.618C50.4287 119.228 54.2179 116.338 59.5149 109.833C62.9866 105.57 66.2489 98.8563 72.3802 93.4091Z" fill="#FF8F3F"/>
<path d="M46.5707 106.895C45.2297 111.909 50.1619 112.844 52.5977 108.261C52.8591 107.769 53.1611 107.205 53.5152 106.548C54.1094 105.447 54.088 104.107 53.4476 103.032C52.0782 100.732 48.7763 100.752 47.7857 103.239C47.2833 104.499 46.8844 105.722 46.5707 106.895Z" fill="#ED334E"/>
<path d="M40.8354 94.6382C43.1097 89.9454 42.457 84.3068 38.6529 80.7397L36.1395 78.3829C31.9717 94.9068 34.2674 104.161 39.1571 120.666C37.0478 106.917 37.4489 101.626 40.8354 94.6382Z" fill="#FBB132"/>
<path d="M20.1732 70.3456C20.549 70.0481 28.4901 74.1128 30.5836 73.3353C29.2784 78.0528 29.1229 78.2082 29.1229 82.751L30.5836 91.6619L31.7033 100.17C31.7141 100.247 31.7241 100.323 31.7333 100.398C32.4791 107.038 30.4749 98.4761 32.4791 107.038C29.0294 92.3017 26.1397 87.6432 20.1732 70.3456Z" fill="#1C8B3C"/>
<path d="M77.3086 70.9177C77.8309 70.5279 81.3013 69.2708 82.9711 68.691C82.8216 86.0708 79.0828 90.2641 70.5156 103.368C67.9029 107.365 66.0407 110.183 58.3962 115.774C57.7257 116.217 57.312 116.469 57.0249 116.63L55.04 117.87C60.2607 111.755 62.871 110.532 65.1085 107.038C79.6635 84.3052 77.3086 83.974 77.3086 70.9177Z" fill="#0885C2"/>
<path d="M36.1667 118.176C36.1667 117.427 35.4261 116.822 34.5094 116.822C33.5927 116.822 32.852 117.427 32.852 118.176V125.874C32.852 126.474 33.1162 127.054 33.5927 127.511L38.0106 131.717H37.8241C37.1353 131.717 36.5811 132.17 36.5811 132.733C36.5811 133.296 37.1353 133.749 37.8241 133.749H57.7125C58.4013 133.749 58.9555 133.296 58.9555 132.733C58.9555 132.17 58.4013 131.717 57.7125 131.717H57.526L61.944 127.507C62.4204 127.05 62.6846 126.47 62.6846 125.869V118.176C62.6846 117.427 61.9439 116.822 61.0272 116.822C60.1105 116.822 59.3699 117.427 59.3699 118.176V122.949L55.7806 126.859C55.4854 127.181 54.9468 127.266 54.5272 127.063C54.0249 126.821 53.9006 126.271 54.2631 125.899L55.6926 124.439C56.2519 123.868 56.1535 123.03 55.4647 122.556C54.7758 122.082 53.7555 122.141 53.1599 122.691L50.7412 124.913C49.8918 125.696 49.4257 126.699 49.4257 127.744V131.717H46.1109V127.744C46.1109 126.703 45.6448 125.696 44.7954 124.917L42.3767 122.696C41.7811 122.145 40.7556 122.086 40.0719 122.56C39.3883 123.034 39.2847 123.868 39.844 124.443L41.2735 125.903C41.6361 126.276 41.5169 126.826 41.0094 127.067C40.5898 127.27 40.046 127.181 39.756 126.864L36.1667 122.949V118.176ZM39.4815 137.134V138.488H46.1109V137.134H49.4257V138.488H56.0551V137.134H57.7125C58.4013 137.134 58.9555 136.681 58.9555 136.118C58.9555 135.555 58.4013 135.103 57.7125 135.103H37.8241C37.1353 135.103 36.5811 135.555 36.5811 136.118C36.5811 136.681 37.1353 137.134 37.8241 137.134H39.4815Z" fill="#2B2B2B"/>
<mask id="path-2-outside-1_116_26351" maskUnits="userSpaceOnUse" x="110.783" y="85.0166" width="161" height="14" fill="black">
<rect fill="white" x="110.783" y="85.0166" width="161" height="14"/>
<path d="M111.783 86.318H112.472C114.115 86.318 115.396 86.6344 116.315 87.2673C117.233 87.8901 117.693 88.7289 117.693 89.7837C117.693 90.517 117.47 91.17 117.025 91.7426C116.579 92.3052 115.974 92.7422 115.208 93.0536C114.442 93.3549 113.586 93.5056 112.639 93.5056H112.472V97.6193H111.783V86.318ZM112.681 93.0686C113.948 93.0686 114.985 92.7874 115.793 92.2248C116.6 91.6522 117.004 90.8486 117.004 89.8139C117.004 88.8294 116.621 88.076 115.855 87.5536C115.103 87.0212 114.031 86.755 112.639 86.755H112.472V93.0686H112.681ZM120.084 86.318H125.701V86.755H120.773V92.9029H124.887V93.3399H120.773V97.1823H125.701V97.6193H120.084V86.318ZM127.895 86.318H128.584V97.1823H133.429V97.6193H127.895V86.318ZM141.958 97.9207C140.496 97.9207 139.139 97.6444 137.886 97.0919C136.633 96.5394 135.637 95.8061 134.899 94.8919C134.175 93.9677 133.813 92.9782 133.813 91.9234C133.813 90.8787 134.182 89.9043 134.92 89.0002C135.658 88.086 136.654 87.3627 137.907 86.8303C139.16 86.2878 140.517 86.0166 141.979 86.0166C143.455 86.0166 144.812 86.2828 146.051 86.8152C147.29 87.3477 148.272 88.0709 148.996 88.9851C149.733 89.8892 150.102 90.8686 150.102 91.9234C150.102 93.0084 149.733 94.0129 148.996 94.9371C148.272 95.8513 147.283 96.5796 146.03 97.1221C144.791 97.6545 143.434 97.9207 141.958 97.9207ZM141.958 97.4837C143.294 97.4837 144.533 97.2376 145.675 96.7453C146.817 96.2431 147.722 95.57 148.39 94.7262C149.072 93.8723 149.413 92.9481 149.413 91.9536C149.413 90.9691 149.079 90.055 148.411 89.2111C147.743 88.3673 146.838 87.6992 145.696 87.207C144.554 86.7047 143.315 86.4536 141.979 86.4536C140.628 86.4536 139.382 86.7047 138.241 87.207C137.099 87.6992 136.187 88.3673 135.505 89.2111C134.837 90.055 134.503 90.9691 134.503 91.9536C134.503 92.9481 134.837 93.8723 135.505 94.7262C136.187 95.57 137.099 96.2431 138.241 96.7453C139.382 97.2376 140.621 97.4837 141.958 97.4837ZM156.013 97.8303C154.272 97.8303 152.922 97.3129 151.961 96.2782V95.4645C152.337 96.0673 152.88 96.5394 153.59 96.881C154.314 97.2225 155.177 97.3933 156.18 97.3933C156.876 97.3933 157.516 97.2828 158.101 97.0618C158.7 96.8408 159.173 96.5294 159.521 96.1275C159.869 95.7257 160.043 95.2636 160.043 94.7412C160.043 94.2691 159.932 93.8622 159.709 93.5207C159.486 93.1791 159.117 92.8527 158.602 92.5412C158.087 92.2198 157.342 91.8431 156.368 91.4111L155.699 91.1097C155.087 90.8385 154.593 90.5974 154.217 90.3865C153.841 90.1755 153.514 89.9294 153.235 89.6481C152.873 89.2563 152.692 88.8043 152.692 88.2919C152.692 87.6088 152.999 87.0764 153.611 86.6947C154.224 86.3129 155.003 86.1221 155.95 86.1221C157.231 86.1221 158.247 86.4636 158.999 87.1467V87.9152C158.679 87.4933 158.24 87.1618 157.683 86.9207C157.126 86.6796 156.514 86.5591 155.846 86.5591C155.15 86.5591 154.565 86.7148 154.091 87.0262C153.618 87.3376 153.381 87.7545 153.381 88.2769C153.381 88.7892 153.597 89.2312 154.029 89.6029C154.474 89.9645 155.219 90.3613 156.263 90.7933C157.544 91.3358 158.539 91.828 159.25 92.27C159.751 92.6015 160.113 92.9682 160.335 93.37C160.572 93.7718 160.69 94.2189 160.69 94.7111C160.69 95.3339 160.489 95.8814 160.085 96.3536C159.681 96.8257 159.124 97.1924 158.414 97.4536C157.704 97.7047 156.904 97.8303 156.013 97.8303ZM167.805 86.318H168.473C169.573 86.318 170.381 86.5038 170.896 86.8755C171.411 87.2371 171.669 87.7746 171.669 88.4878C171.669 88.8997 171.501 89.2965 171.167 89.6782C170.833 90.0499 170.429 90.3011 169.956 90.4317C171.153 90.5723 172.079 90.9339 172.734 91.5166C173.388 92.0992 173.715 92.8627 173.715 93.807C173.715 94.5604 173.485 95.2285 173.026 95.8111C172.567 96.3837 171.933 96.8307 171.126 97.1522C170.332 97.4636 169.448 97.6193 168.473 97.6193H167.805V86.318ZM168.64 90.296C169.309 90.296 169.873 90.1202 170.332 89.7686C170.791 89.4171 171.021 88.9851 171.021 88.4728C171.021 87.9002 170.826 87.4682 170.436 87.1769C170.061 86.8855 169.462 86.7399 168.64 86.7399H168.473V90.296H168.64ZM168.64 97.1974C169.462 97.1974 170.207 97.0568 170.875 96.7755C171.543 96.4842 172.072 96.0823 172.462 95.57C172.852 95.0577 173.047 94.4801 173.047 93.8371C173.047 92.8024 172.664 92.0239 171.898 91.5015C171.146 90.9691 170.061 90.7029 168.64 90.7029H168.473V97.1974H168.64ZM176.228 86.318H177.126C178.754 86.318 180.007 86.6294 180.885 87.2522C181.776 87.875 182.221 88.7641 182.221 89.9193C182.221 90.5823 181.998 91.1901 181.553 91.7426C181.121 92.2951 180.53 92.7321 179.778 93.0536C179.026 93.365 178.198 93.5207 177.293 93.5207H177.146L182.534 97.6193H181.636L176.896 94.033V97.6193H176.228V86.318ZM177.272 93.0837C178.065 93.0837 178.789 92.9431 179.444 92.6618C180.098 92.3805 180.613 92.0038 180.989 91.5317C181.365 91.0495 181.553 90.5171 181.553 89.9344C181.553 88.9198 181.17 88.1362 180.404 87.5837C179.652 87.0312 178.573 86.755 177.167 86.755H176.896V93.0837H177.272ZM199.514 97.6193H198.783L195.818 93.3097H187.506L184.604 97.6193H183.873L191.683 86.0467L199.514 97.6193ZM195.567 92.8728L191.641 87.1317L187.799 92.8728H195.567ZM205.121 97.8303C203.381 97.8303 202.03 97.3129 201.07 96.2782V95.4645C201.446 96.0673 201.989 96.5394 202.699 96.881C203.423 97.2225 204.286 97.3933 205.288 97.3933C205.984 97.3933 206.625 97.2828 207.209 97.0618C207.808 96.8408 208.281 96.5294 208.629 96.1275C208.978 95.7257 209.152 95.2636 209.152 94.7412C209.152 94.2691 209.04 93.8622 208.817 93.5207C208.595 93.1791 208.226 92.8527 207.711 92.5412C207.195 92.2198 206.451 91.8431 205.476 91.4111L204.808 91.1097C204.195 90.8385 203.701 90.5974 203.325 90.3865C202.949 90.1755 202.622 89.9294 202.344 89.6481C201.982 89.2563 201.801 88.8043 201.801 88.2919C201.801 87.6088 202.107 87.0764 202.72 86.6947C203.332 86.3129 204.112 86.1221 205.058 86.1221C206.339 86.1221 207.356 86.4636 208.107 87.1467V87.9152C207.787 87.4933 207.349 87.1618 206.792 86.9207C206.235 86.6796 205.622 86.5591 204.954 86.5591C204.258 86.5591 203.673 86.7148 203.2 87.0262C202.726 87.3376 202.49 87.7545 202.49 88.2769C202.49 88.7892 202.706 89.2312 203.137 89.6029C203.583 89.9645 204.328 90.3613 205.372 90.7933C206.653 91.3358 207.648 91.828 208.358 92.27C208.859 92.6015 209.221 92.9682 209.444 93.37C209.681 93.7718 209.799 94.2189 209.799 94.7111C209.799 95.3339 209.597 95.8814 209.193 96.3536C208.79 96.8257 208.233 97.1924 207.523 97.4536C206.813 97.7047 206.012 97.8303 205.121 97.8303ZM212.429 86.318H213.118V97.6193H212.429V86.318ZM216.526 86.318H217.215V97.1823H222.06V97.6193H216.526V86.318ZM224.153 86.318H229.771V86.755H224.842V92.9029H228.956V93.3399H224.842V97.1823H229.771V97.6193H224.153V86.318ZM232.068 86.318H232.757V97.6193H232.068V86.318ZM236.165 86.318H237.063C238.692 86.318 239.945 86.6294 240.822 87.2522C241.713 87.875 242.159 88.7641 242.159 89.9193C242.159 90.5823 241.936 91.1901 241.49 91.7426C241.059 92.2951 240.467 92.7321 239.715 93.0536C238.963 93.365 238.135 93.5207 237.23 93.5207H237.084L242.472 97.6193H241.574L236.833 94.033V97.6193H236.165V86.318ZM237.209 93.0837C238.003 93.0837 238.727 92.9431 239.381 92.6618C240.035 92.3805 240.551 92.0038 240.926 91.5317C241.302 91.0495 241.49 90.5171 241.49 89.9344C241.49 88.9198 241.107 88.1362 240.342 87.5837C239.59 87.0312 238.511 86.755 237.105 86.755H236.833V93.0837H237.209ZM252.267 97.9207C250.806 97.9207 249.448 97.6444 248.195 97.0919C246.942 96.5394 245.947 95.8061 245.209 94.8919C244.485 93.9677 244.123 92.9782 244.123 91.9234C244.123 90.8787 244.492 89.9043 245.23 89.0002C245.968 88.086 246.963 87.3627 248.216 86.8303C249.469 86.2878 250.827 86.0166 252.288 86.0166C253.764 86.0166 255.121 86.2828 256.361 86.8152C257.6 87.3477 258.581 88.0709 259.305 88.9851C260.043 89.8892 260.412 90.8686 260.412 91.9234C260.412 93.0084 260.043 94.0129 259.305 94.9371C258.581 95.8513 257.593 96.5796 256.34 97.1221C255.101 97.6545 253.743 97.9207 252.267 97.9207ZM252.267 97.4837C253.604 97.4837 254.843 97.2376 255.985 96.7453C257.126 96.2431 258.031 95.57 258.699 94.7262C259.382 93.8723 259.723 92.9481 259.723 91.9536C259.723 90.9691 259.389 90.055 258.72 89.2111C258.052 88.3673 257.147 87.6992 256.006 87.207C254.864 86.7047 253.625 86.4536 252.288 86.4536C250.938 86.4536 249.692 86.7047 248.55 87.207C247.409 87.6992 246.497 88.3673 245.815 89.2111C245.146 90.055 244.812 90.9691 244.812 91.9536C244.812 92.9481 245.146 93.8723 245.815 94.7262C246.497 95.57 247.409 96.2431 248.55 96.7453C249.692 97.2376 250.931 97.4837 252.267 97.4837ZM266.322 97.8303C264.582 97.8303 263.232 97.3129 262.271 96.2782V95.4645C262.647 96.0673 263.19 96.5394 263.9 96.881C264.624 97.2225 265.487 97.3933 266.489 97.3933C267.185 97.3933 267.826 97.2828 268.411 97.0618C269.009 96.8408 269.483 96.5294 269.831 96.1275C270.179 95.7257 270.353 95.2636 270.353 94.7412C270.353 94.2691 270.241 93.8622 270.019 93.5207C269.796 93.1791 269.427 92.8527 268.912 92.5412C268.397 92.2198 267.652 91.8431 266.677 91.4111L266.009 91.1097C265.396 90.8385 264.902 90.5974 264.526 90.3865C264.15 90.1755 263.823 89.9294 263.545 89.6481C263.183 89.2563 263.002 88.8043 263.002 88.2919C263.002 87.6088 263.308 87.0764 263.921 86.6947C264.533 86.3129 265.313 86.1221 266.26 86.1221C267.54 86.1221 268.557 86.4636 269.309 87.1467V87.9152C268.988 87.4933 268.55 87.1618 267.993 86.9207C267.436 86.6796 266.824 86.5591 266.155 86.5591C265.459 86.5591 264.874 86.7148 264.401 87.0262C263.928 87.3376 263.691 87.7545 263.691 88.2769C263.691 88.7892 263.907 89.2312 264.338 89.6029C264.784 89.9645 265.529 90.3613 266.573 90.7933C267.854 91.3358 268.849 91.828 269.559 92.27C270.06 92.6015 270.422 92.9682 270.645 93.37C270.882 93.7718 271 94.2189 271 94.7111C271 95.3339 270.798 95.8814 270.395 96.3536C269.991 96.8257 269.434 97.1924 268.724 97.4536C268.014 97.7047 267.213 97.8303 266.322 97.8303Z"/>
</mask>
<path d="M111.783 86.318H112.472C114.115 86.318 115.396 86.6344 116.315 87.2673C117.233 87.8901 117.693 88.7289 117.693 89.7837C117.693 90.517 117.47 91.17 117.025 91.7426C116.579 92.3052 115.974 92.7422 115.208 93.0536C114.442 93.3549 113.586 93.5056 112.639 93.5056H112.472V97.6193H111.783V86.318ZM112.681 93.0686C113.948 93.0686 114.985 92.7874 115.793 92.2248C116.6 91.6522 117.004 90.8486 117.004 89.8139C117.004 88.8294 116.621 88.076 115.855 87.5536C115.103 87.0212 114.031 86.755 112.639 86.755H112.472V93.0686H112.681ZM120.084 86.318H125.701V86.755H120.773V92.9029H124.887V93.3399H120.773V97.1823H125.701V97.6193H120.084V86.318ZM127.895 86.318H128.584V97.1823H133.429V97.6193H127.895V86.318ZM141.958 97.9207C140.496 97.9207 139.139 97.6444 137.886 97.0919C136.633 96.5394 135.637 95.8061 134.899 94.8919C134.175 93.9677 133.813 92.9782 133.813 91.9234C133.813 90.8787 134.182 89.9043 134.92 89.0002C135.658 88.086 136.654 87.3627 137.907 86.8303C139.16 86.2878 140.517 86.0166 141.979 86.0166C143.455 86.0166 144.812 86.2828 146.051 86.8152C147.29 87.3477 148.272 88.0709 148.996 88.9851C149.733 89.8892 150.102 90.8686 150.102 91.9234C150.102 93.0084 149.733 94.0129 148.996 94.9371C148.272 95.8513 147.283 96.5796 146.03 97.1221C144.791 97.6545 143.434 97.9207 141.958 97.9207ZM141.958 97.4837C143.294 97.4837 144.533 97.2376 145.675 96.7453C146.817 96.2431 147.722 95.57 148.39 94.7262C149.072 93.8723 149.413 92.9481 149.413 91.9536C149.413 90.9691 149.079 90.055 148.411 89.2111C147.743 88.3673 146.838 87.6992 145.696 87.207C144.554 86.7047 143.315 86.4536 141.979 86.4536C140.628 86.4536 139.382 86.7047 138.241 87.207C137.099 87.6992 136.187 88.3673 135.505 89.2111C134.837 90.055 134.503 90.9691 134.503 91.9536C134.503 92.9481 134.837 93.8723 135.505 94.7262C136.187 95.57 137.099 96.2431 138.241 96.7453C139.382 97.2376 140.621 97.4837 141.958 97.4837ZM156.013 97.8303C154.272 97.8303 152.922 97.3129 151.961 96.2782V95.4645C152.337 96.0673 152.88 96.5394 153.59 96.881C154.314 97.2225 155.177 97.3933 156.18 97.3933C156.876 97.3933 157.516 97.2828 158.101 97.0618C158.7 96.8408 159.173 96.5294 159.521 96.1275C159.869 95.7257 160.043 95.2636 160.043 94.7412C160.043 94.2691 159.932 93.8622 159.709 93.5207C159.486 93.1791 159.117 92.8527 158.602 92.5412C158.087 92.2198 157.342 91.8431 156.368 91.4111L155.699 91.1097C155.087 90.8385 154.593 90.5974 154.217 90.3865C153.841 90.1755 153.514 89.9294 153.235 89.6481C152.873 89.2563 152.692 88.8043 152.692 88.2919C152.692 87.6088 152.999 87.0764 153.611 86.6947C154.224 86.3129 155.003 86.1221 155.95 86.1221C157.231 86.1221 158.247 86.4636 158.999 87.1467V87.9152C158.679 87.4933 158.24 87.1618 157.683 86.9207C157.126 86.6796 156.514 86.5591 155.846 86.5591C155.15 86.5591 154.565 86.7148 154.091 87.0262C153.618 87.3376 153.381 87.7545 153.381 88.2769C153.381 88.7892 153.597 89.2312 154.029 89.6029C154.474 89.9645 155.219 90.3613 156.263 90.7933C157.544 91.3358 158.539 91.828 159.25 92.27C159.751 92.6015 160.113 92.9682 160.335 93.37C160.572 93.7718 160.69 94.2189 160.69 94.7111C160.69 95.3339 160.489 95.8814 160.085 96.3536C159.681 96.8257 159.124 97.1924 158.414 97.4536C157.704 97.7047 156.904 97.8303 156.013 97.8303ZM167.805 86.318H168.473C169.573 86.318 170.381 86.5038 170.896 86.8755C171.411 87.2371 171.669 87.7746 171.669 88.4878C171.669 88.8997 171.501 89.2965 171.167 89.6782C170.833 90.0499 170.429 90.3011 169.956 90.4317C171.153 90.5723 172.079 90.9339 172.734 91.5166C173.388 92.0992 173.715 92.8627 173.715 93.807C173.715 94.5604 173.485 95.2285 173.026 95.8111C172.567 96.3837 171.933 96.8307 171.126 97.1522C170.332 97.4636 169.448 97.6193 168.473 97.6193H167.805V86.318ZM168.64 90.296C169.309 90.296 169.873 90.1202 170.332 89.7686C170.791 89.4171 171.021 88.9851 171.021 88.4728C171.021 87.9002 170.826 87.4682 170.436 87.1769C170.061 86.8855 169.462 86.7399 168.64 86.7399H168.473V90.296H168.64ZM168.64 97.1974C169.462 97.1974 170.207 97.0568 170.875 96.7755C171.543 96.4842 172.072 96.0823 172.462 95.57C172.852 95.0577 173.047 94.4801 173.047 93.8371C173.047 92.8024 172.664 92.0239 171.898 91.5015C171.146 90.9691 170.061 90.7029 168.64 90.7029H168.473V97.1974H168.64ZM176.228 86.318H177.126C178.754 86.318 180.007 86.6294 180.885 87.2522C181.776 87.875 182.221 88.7641 182.221 89.9193C182.221 90.5823 181.998 91.1901 181.553 91.7426C181.121 92.2951 180.53 92.7321 179.778 93.0536C179.026 93.365 178.198 93.5207 177.293 93.5207H177.146L182.534 97.6193H181.636L176.896 94.033V97.6193H176.228V86.318ZM177.272 93.0837C178.065 93.0837 178.789 92.9431 179.444 92.6618C180.098 92.3805 180.613 92.0038 180.989 91.5317C181.365 91.0495 181.553 90.5171 181.553 89.9344C181.553 88.9198 181.17 88.1362 180.404 87.5837C179.652 87.0312 178.573 86.755 177.167 86.755H176.896V93.0837H177.272ZM199.514 97.6193H198.783L195.818 93.3097H187.506L184.604 97.6193H183.873L191.683 86.0467L199.514 97.6193ZM195.567 92.8728L191.641 87.1317L187.799 92.8728H195.567ZM205.121 97.8303C203.381 97.8303 202.03 97.3129 201.07 96.2782V95.4645C201.446 96.0673 201.989 96.5394 202.699 96.881C203.423 97.2225 204.286 97.3933 205.288 97.3933C205.984 97.3933 206.625 97.2828 207.209 97.0618C207.808 96.8408 208.281 96.5294 208.629 96.1275C208.978 95.7257 209.152 95.2636 209.152 94.7412C209.152 94.2691 209.04 93.8622 208.817 93.5207C208.595 93.1791 208.226 92.8527 207.711 92.5412C207.195 92.2198 206.451 91.8431 205.476 91.4111L204.808 91.1097C204.195 90.8385 203.701 90.5974 203.325 90.3865C202.949 90.1755 202.622 89.9294 202.344 89.6481C201.982 89.2563 201.801 88.8043 201.801 88.2919C201.801 87.6088 202.107 87.0764 202.72 86.6947C203.332 86.3129 204.112 86.1221 205.058 86.1221C206.339 86.1221 207.356 86.4636 208.107 87.1467V87.9152C207.787 87.4933 207.349 87.1618 206.792 86.9207C206.235 86.6796 205.622 86.5591 204.954 86.5591C204.258 86.5591 203.673 86.7148 203.2 87.0262C202.726 87.3376 202.49 87.7545 202.49 88.2769C202.49 88.7892 202.706 89.2312 203.137 89.6029C203.583 89.9645 204.328 90.3613 205.372 90.7933C206.653 91.3358 207.648 91.828 208.358 92.27C208.859 92.6015 209.221 92.9682 209.444 93.37C209.681 93.7718 209.799 94.2189 209.799 94.7111C209.799 95.3339 209.597 95.8814 209.193 96.3536C208.79 96.8257 208.233 97.1924 207.523 97.4536C206.813 97.7047 206.012 97.8303 205.121 97.8303ZM212.429 86.318H213.118V97.6193H212.429V86.318ZM216.526 86.318H217.215V97.1823H222.06V97.6193H216.526V86.318ZM224.153 86.318H229.771V86.755H224.842V92.9029H228.956V93.3399H224.842V97.1823H229.771V97.6193H224.153V86.318ZM232.068 86.318H232.757V97.6193H232.068V86.318ZM236.165 86.318H237.063C238.692 86.318 239.945 86.6294 240.822 87.2522C241.713 87.875 242.159 88.7641 242.159 89.9193C242.159 90.5823 241.936 91.1901 241.49 91.7426C241.059 92.2951 240.467 92.7321 239.715 93.0536C238.963 93.365 238.135 93.5207 237.23 93.5207H237.084L242.472 97.6193H241.574L236.833 94.033V97.6193H236.165V86.318ZM237.209 93.0837C238.003 93.0837 238.727 92.9431 239.381 92.6618C240.035 92.3805 240.551 92.0038 240.926 91.5317C241.302 91.0495 241.49 90.5171 241.49 89.9344C241.49 88.9198 241.107 88.1362 240.342 87.5837C239.59 87.0312 238.511 86.755 237.105 86.755H236.833V93.0837H237.209ZM252.267 97.9207C250.806 97.9207 249.448 97.6444 248.195 97.0919C246.942 96.5394 245.947 95.8061 245.209 94.8919C244.485 93.9677 244.123 92.9782 244.123 91.9234C244.123 90.8787 244.492 89.9043 245.23 89.0002C245.968 88.086 246.963 87.3627 248.216 86.8303C249.469 86.2878 250.827 86.0166 252.288 86.0166C253.764 86.0166 255.121 86.2828 256.361 86.8152C257.6 87.3477 258.581 88.0709 259.305 88.9851C260.043 89.8892 260.412 90.8686 260.412 91.9234C260.412 93.0084 260.043 94.0129 259.305 94.9371C258.581 95.8513 257.593 96.5796 256.34 97.1221C255.101 97.6545 253.743 97.9207 252.267 97.9207ZM252.267 97.4837C253.604 97.4837 254.843 97.2376 255.985 96.7453C257.126 96.2431 258.031 95.57 258.699 94.7262C259.382 93.8723 259.723 92.9481 259.723 91.9536C259.723 90.9691 259.389 90.055 258.72 89.2111C258.052 88.3673 257.147 87.6992 256.006 87.207C254.864 86.7047 253.625 86.4536 252.288 86.4536C250.938 86.4536 249.692 86.7047 248.55 87.207C247.409 87.6992 246.497 88.3673 245.815 89.2111C245.146 90.055 244.812 90.9691 244.812 91.9536C244.812 92.9481 245.146 93.8723 245.815 94.7262C246.497 95.57 247.409 96.2431 248.55 96.7453C249.692 97.2376 250.931 97.4837 252.267 97.4837ZM266.322 97.8303C264.582 97.8303 263.232 97.3129 262.271 96.2782V95.4645C262.647 96.0673 263.19 96.5394 263.9 96.881C264.624 97.2225 265.487 97.3933 266.489 97.3933C267.185 97.3933 267.826 97.2828 268.411 97.0618C269.009 96.8408 269.483 96.5294 269.831 96.1275C270.179 95.7257 270.353 95.2636 270.353 94.7412C270.353 94.2691 270.241 93.8622 270.019 93.5207C269.796 93.1791 269.427 92.8527 268.912 92.5412C268.397 92.2198 267.652 91.8431 266.677 91.4111L266.009 91.1097C265.396 90.8385 264.902 90.5974 264.526 90.3865C264.15 90.1755 263.823 89.9294 263.545 89.6481C263.183 89.2563 263.002 88.8043 263.002 88.2919C263.002 87.6088 263.308 87.0764 263.921 86.6947C264.533 86.3129 265.313 86.1221 266.26 86.1221C267.54 86.1221 268.557 86.4636 269.309 87.1467V87.9152C268.988 87.4933 268.55 87.1618 267.993 86.9207C267.436 86.6796 266.824 86.5591 266.155 86.5591C265.459 86.5591 264.874 86.7148 264.401 87.0262C263.928 87.3376 263.691 87.7545 263.691 88.2769C263.691 88.7892 263.907 89.2312 264.338 89.6029C264.784 89.9645 265.529 90.3613 266.573 90.7933C267.854 91.3358 268.849 91.828 269.559 92.27C270.06 92.6015 270.422 92.9682 270.645 93.37C270.882 93.7718 271 94.2189 271 94.7111C271 95.3339 270.798 95.8814 270.395 96.3536C269.991 96.8257 269.434 97.1924 268.724 97.4536C268.014 97.7047 267.213 97.8303 266.322 97.8303Z" fill="#3D3D3D"/>
<path d="M111.783 86.318H112.472C114.115 86.318 115.396 86.6344 116.315 87.2673C117.233 87.8901 117.693 88.7289 117.693 89.7837C117.693 90.517 117.47 91.17 117.025 91.7426C116.579 92.3052 115.974 92.7422 115.208 93.0536C114.442 93.3549 113.586 93.5056 112.639 93.5056H112.472V97.6193H111.783V86.318ZM112.681 93.0686C113.948 93.0686 114.985 92.7874 115.793 92.2248C116.6 91.6522 117.004 90.8486 117.004 89.8139C117.004 88.8294 116.621 88.076 115.855 87.5536C115.103 87.0212 114.031 86.755 112.639 86.755H112.472V93.0686H112.681ZM120.084 86.318H125.701V86.755H120.773V92.9029H124.887V93.3399H120.773V97.1823H125.701V97.6193H120.084V86.318ZM127.895 86.318H128.584V97.1823H133.429V97.6193H127.895V86.318ZM141.958 97.9207C140.496 97.9207 139.139 97.6444 137.886 97.0919C136.633 96.5394 135.637 95.8061 134.899 94.8919C134.175 93.9677 133.813 92.9782 133.813 91.9234C133.813 90.8787 134.182 89.9043 134.92 89.0002C135.658 88.086 136.654 87.3627 137.907 86.8303C139.16 86.2878 140.517 86.0166 141.979 86.0166C143.455 86.0166 144.812 86.2828 146.051 86.8152C147.29 87.3477 148.272 88.0709 148.996 88.9851C149.733 89.8892 150.102 90.8686 150.102 91.9234C150.102 93.0084 149.733 94.0129 148.996 94.9371C148.272 95.8513 147.283 96.5796 146.03 97.1221C144.791 97.6545 143.434 97.9207 141.958 97.9207ZM141.958 97.4837C143.294 97.4837 144.533 97.2376 145.675 96.7453C146.817 96.2431 147.722 95.57 148.39 94.7262C149.072 93.8723 149.413 92.9481 149.413 91.9536C149.413 90.9691 149.079 90.055 148.411 89.2111C147.743 88.3673 146.838 87.6992 145.696 87.207C144.554 86.7047 143.315 86.4536 141.979 86.4536C140.628 86.4536 139.382 86.7047 138.241 87.207C137.099 87.6992 136.187 88.3673 135.505 89.2111C134.837 90.055 134.503 90.9691 134.503 91.9536C134.503 92.9481 134.837 93.8723 135.505 94.7262C136.187 95.57 137.099 96.2431 138.241 96.7453C139.382 97.2376 140.621 97.4837 141.958 97.4837ZM156.013 97.8303C154.272 97.8303 152.922 97.3129 151.961 96.2782V95.4645C152.337 96.0673 152.88 96.5394 153.59 96.881C154.314 97.2225 155.177 97.3933 156.18 97.3933C156.876 97.3933 157.516 97.2828 158.101 97.0618C158.7 96.8408 159.173 96.5294 159.521 96.1275C159.869 95.7257 160.043 95.2636 160.043 94.7412C160.043 94.2691 159.932 93.8622 159.709 93.5207C159.486 93.1791 159.117 92.8527 158.602 92.5412C158.087 92.2198 157.342 91.8431 156.368 91.4111L155.699 91.1097C155.087 90.8385 154.593 90.5974 154.217 90.3865C153.841 90.1755 153.514 89.9294 153.235 89.6481C152.873 89.2563 152.692 88.8043 152.692 88.2919C152.692 87.6088 152.999 87.0764 153.611 86.6947C154.224 86.3129 155.003 86.1221 155.95 86.1221C157.231 86.1221 158.247 86.4636 158.999 87.1467V87.9152C158.679 87.4933 158.24 87.1618 157.683 86.9207C157.126 86.6796 156.514 86.5591 155.846 86.5591C155.15 86.5591 154.565 86.7148 154.091 87.0262C153.618 87.3376 153.381 87.7545 153.381 88.2769C153.381 88.7892 153.597 89.2312 154.029 89.6029C154.474 89.9645 155.219 90.3613 156.263 90.7933C157.544 91.3358 158.539 91.828 159.25 92.27C159.751 92.6015 160.113 92.9682 160.335 93.37C160.572 93.7718 160.69 94.2189 160.69 94.7111C160.69 95.3339 160.489 95.8814 160.085 96.3536C159.681 96.8257 159.124 97.1924 158.414 97.4536C157.704 97.7047 156.904 97.8303 156.013 97.8303ZM167.805 86.318H168.473C169.573 86.318 170.381 86.5038 170.896 86.8755C171.411 87.2371 171.669 87.7746 171.669 88.4878C171.669 88.8997 171.501 89.2965 171.167 89.6782C170.833 90.0499 170.429 90.3011 169.956 90.4317C171.153 90.5723 172.079 90.9339 172.734 91.5166C173.388 92.0992 173.715 92.8627 173.715 93.807C173.715 94.5604 173.485 95.2285 173.026 95.8111C172.567 96.3837 171.933 96.8307 171.126 97.1522C170.332 97.4636 169.448 97.6193 168.473 97.6193H167.805V86.318ZM168.64 90.296C169.309 90.296 169.873 90.1202 170.332 89.7686C170.791 89.4171 171.021 88.9851 171.021 88.4728C171.021 87.9002 170.826 87.4682 170.436 87.1769C170.061 86.8855 169.462 86.7399 168.64 86.7399H168.473V90.296H168.64ZM168.64 97.1974C169.462 97.1974 170.207 97.0568 170.875 96.7755C171.543 96.4842 172.072 96.0823 172.462 95.57C172.852 95.0577 173.047 94.4801 173.047 93.8371C173.047 92.8024 172.664 92.0239 171.898 91.5015C171.146 90.9691 170.061 90.7029 168.64 90.7029H168.473V97.1974H168.64ZM176.228 86.318H177.126C178.754 86.318 180.007 86.6294 180.885 87.2522C181.776 87.875 182.221 88.7641 182.221 89.9193C182.221 90.5823 181.998 91.1901 181.553 91.7426C181.121 92.2951 180.53 92.7321 179.778 93.0536C179.026 93.365 178.198 93.5207 177.293 93.5207H177.146L182.534 97.6193H181.636L176.896 94.033V97.6193H176.228V86.318ZM177.272 93.0837C178.065 93.0837 178.789 92.9431 179.444 92.6618C180.098 92.3805 180.613 92.0038 180.989 91.5317C181.365 91.0495 181.553 90.5171 181.553 89.9344C181.553 88.9198 181.17 88.1362 180.404 87.5837C179.652 87.0312 178.573 86.755 177.167 86.755H176.896V93.0837H177.272ZM199.514 97.6193H198.783L195.818 93.3097H187.506L184.604 97.6193H183.873L191.683 86.0467L199.514 97.6193ZM195.567 92.8728L191.641 87.1317L187.799 92.8728H195.567ZM205.121 97.8303C203.381 97.8303 202.03 97.3129 201.07 96.2782V95.4645C201.446 96.0673 201.989 96.5394 202.699 96.881C203.423 97.2225 204.286 97.3933 205.288 97.3933C205.984 97.3933 206.625 97.2828 207.209 97.0618C207.808 96.8408 208.281 96.5294 208.629 96.1275C208.978 95.7257 209.152 95.2636 209.152 94.7412C209.152 94.2691 209.04 93.8622 208.817 93.5207C208.595 93.1791 208.226 92.8527 207.711 92.5412C207.195 92.2198 206.451 91.8431 205.476 91.4111L204.808 91.1097C204.195 90.8385 203.701 90.5974 203.325 90.3865C202.949 90.1755 202.622 89.9294 202.344 89.6481C201.982 89.2563 201.801 88.8043 201.801 88.2919C201.801 87.6088 202.107 87.0764 202.72 86.6947C203.332 86.3129 204.112 86.1221 205.058 86.1221C206.339 86.1221 207.356 86.4636 208.107 87.1467V87.9152C207.787 87.4933 207.349 87.1618 206.792 86.9207C206.235 86.6796 205.622 86.5591 204.954 86.5591C204.258 86.5591 203.673 86.7148 203.2 87.0262C202.726 87.3376 202.49 87.7545 202.49 88.2769C202.49 88.7892 202.706 89.2312 203.137 89.6029C203.583 89.9645 204.328 90.3613 205.372 90.7933C206.653 91.3358 207.648 91.828 208.358 92.27C208.859 92.6015 209.221 92.9682 209.444 93.37C209.681 93.7718 209.799 94.2189 209.799 94.7111C209.799 95.3339 209.597 95.8814 209.193 96.3536C208.79 96.8257 208.233 97.1924 207.523 97.4536C206.813 97.7047 206.012 97.8303 205.121 97.8303ZM212.429 86.318H213.118V97.6193H212.429V86.318ZM216.526 86.318H217.215V97.1823H222.06V97.6193H216.526V86.318ZM224.153 86.318H229.771V86.755H224.842V92.9029H228.956V93.3399H224.842V97.1823H229.771V97.6193H224.153V86.318ZM232.068 86.318H232.757V97.6193H232.068V86.318ZM236.165 86.318H237.063C238.692 86.318 239.945 86.6294 240.822 87.2522C241.713 87.875 242.159 88.7641 242.159 89.9193C242.159 90.5823 241.936 91.1901 241.49 91.7426C241.059 92.2951 240.467 92.7321 239.715 93.0536C238.963 93.365 238.135 93.5207 237.23 93.5207H237.084L242.472 97.6193H241.574L236.833 94.033V97.6193H236.165V86.318ZM237.209 93.0837C238.003 93.0837 238.727 92.9431 239.381 92.6618C240.035 92.3805 240.551 92.0038 240.926 91.5317C241.302 91.0495 241.49 90.5171 241.49 89.9344C241.49 88.9198 241.107 88.1362 240.342 87.5837C239.59 87.0312 238.511 86.755 237.105 86.755H236.833V93.0837H237.209ZM252.267 97.9207C250.806 97.9207 249.448 97.6444 248.195 97.0919C246.942 96.5394 245.947 95.8061 245.209 94.8919C244.485 93.9677 244.123 92.9782 244.123 91.9234C244.123 90.8787 244.492 89.9043 245.23 89.0002C245.968 88.086 246.963 87.3627 248.216 86.8303C249.469 86.2878 250.827 86.0166 252.288 86.0166C253.764 86.0166 255.121 86.2828 256.361 86.8152C257.6 87.3477 258.581 88.0709 259.305 88.9851C260.043 89.8892 260.412 90.8686 260.412 91.9234C260.412 93.0084 260.043 94.0129 259.305 94.9371C258.581 95.8513 257.593 96.5796 256.34 97.1221C255.101 97.6545 253.743 97.9207 252.267 97.9207ZM252.267 97.4837C253.604 97.4837 254.843 97.2376 255.985 96.7453C257.126 96.2431 258.031 95.57 258.699 94.7262C259.382 93.8723 259.723 92.9481 259.723 91.9536C259.723 90.9691 259.389 90.055 258.72 89.2111C258.052 88.3673 257.147 87.6992 256.006 87.207C254.864 86.7047 253.625 86.4536 252.288 86.4536C250.938 86.4536 249.692 86.7047 248.55 87.207C247.409 87.6992 246.497 88.3673 245.815 89.2111C245.146 90.055 244.812 90.9691 244.812 91.9536C244.812 92.9481 245.146 93.8723 245.815 94.7262C246.497 95.57 247.409 96.2431 248.55 96.7453C249.692 97.2376 250.931 97.4837 252.267 97.4837ZM266.322 97.8303C264.582 97.8303 263.232 97.3129 262.271 96.2782V95.4645C262.647 96.0673 263.19 96.5394 263.9 96.881C264.624 97.2225 265.487 97.3933 266.489 97.3933C267.185 97.3933 267.826 97.2828 268.411 97.0618C269.009 96.8408 269.483 96.5294 269.831 96.1275C270.179 95.7257 270.353 95.2636 270.353 94.7412C270.353 94.2691 270.241 93.8622 270.019 93.5207C269.796 93.1791 269.427 92.8527 268.912 92.5412C268.397 92.2198 267.652 91.8431 266.677 91.4111L266.009 91.1097C265.396 90.8385 264.902 90.5974 264.526 90.3865C264.15 90.1755 263.823 89.9294 263.545 89.6481C263.183 89.2563 263.002 88.8043 263.002 88.2919C263.002 87.6088 263.308 87.0764 263.921 86.6947C264.533 86.3129 265.313 86.1221 266.26 86.1221C267.54 86.1221 268.557 86.4636 269.309 87.1467V87.9152C268.988 87.4933 268.55 87.1618 267.993 86.9207C267.436 86.6796 266.824 86.5591 266.155 86.5591C265.459 86.5591 264.874 86.7148 264.401 87.0262C263.928 87.3376 263.691 87.7545 263.691 88.2769C263.691 88.7892 263.907 89.2312 264.338 89.6029C264.784 89.9645 265.529 90.3613 266.573 90.7933C267.854 91.3358 268.849 91.828 269.559 92.27C270.06 92.6015 270.422 92.9682 270.645 93.37C270.882 93.7718 271 94.2189 271 94.7111C271 95.3339 270.798 95.8814 270.395 96.3536C269.991 96.8257 269.434 97.1924 268.724 97.4536C268.014 97.7047 267.213 97.8303 266.322 97.8303Z" stroke="#3D3D3D" stroke-width="0.744006" mask="url(#path-2-outside-1_116_26351)"/>
<g clip-path="url(#clip0_116_26351)">
<path d="M111.619 63.3245V49.4487L121.542 49.4098C122.849 49.4098 123.816 49.7342 124.442 50.3829C125.08 51.0186 125.398 51.9787 125.398 53.2631C125.398 54.5476 125.036 55.4882 124.311 56.085C124.794 56.3963 125.151 56.8115 125.382 57.3305C125.613 57.8365 125.728 58.4917 125.728 59.2961C125.728 60.6064 125.409 61.6055 124.772 62.2931C124.146 62.9677 123.179 63.3051 121.871 63.3051L111.619 63.3245ZM121.228 51.9008H114.257V55.0146H121.228C122.228 55.0146 122.728 54.4827 122.728 53.4188C122.728 52.4068 122.228 51.9008 121.228 51.9008ZM121.558 57.5057H114.257V60.814H121.558C122.558 60.814 123.058 60.2561 123.058 59.1404C123.058 58.0506 122.558 57.5057 121.558 57.5057ZM127.538 63.3245V49.4098H137.411C138.63 49.4098 139.575 49.7731 140.246 50.4996C140.927 51.2262 141.268 52.329 141.268 53.808C141.268 55.0665 141.02 56.0525 140.526 56.7661C140.031 57.4797 139.328 57.9273 138.416 58.1089L141.136 63.3245H138.136L135.614 58.2062H130.175V63.3245H127.538ZM137.098 51.9398H130.175V55.6568L137.098 55.6763C137.581 55.6763 137.949 55.5336 138.202 55.2482C138.466 54.9627 138.597 54.4827 138.597 53.808C138.597 53.1204 138.466 52.6404 138.202 52.3679C137.949 52.0825 137.581 51.9398 137.098 51.9398ZM142.259 63.3245L147.566 49.4098H151.637L156.944 63.3245H154.076L152.955 60.3859H146.247L145.127 63.3245H142.259ZM147.203 57.8559H151.999L149.708 51.8424H149.494L147.203 57.8559ZM157.886 63.4218V60.8919L167.363 60.9113C167.846 60.9113 168.214 60.7816 168.467 60.5221C168.731 60.2497 168.863 59.815 168.863 59.2182C168.863 58.6214 168.731 58.1933 168.467 57.9338C168.214 57.6613 167.846 57.5251 167.363 57.5251H161.462C160.243 57.5251 159.292 57.1813 158.611 56.4937C157.94 55.7931 157.606 54.7681 157.606 53.4188C157.606 52.0695 157.94 51.051 158.611 50.3634C159.292 49.6628 160.243 49.3125 161.462 49.3125H170.725V51.8424L161.742 51.823C161.27 51.823 160.902 51.9527 160.638 52.2122C160.374 52.4587 160.243 52.8609 160.243 53.4188C160.243 53.9767 160.374 54.3854 160.638 54.6448C160.902 54.8914 161.27 55.0146 161.742 55.0146H167.643C168.863 55.0146 169.808 55.3714 170.478 56.085C171.159 56.7856 171.5 57.83 171.5 59.2182C171.5 60.5935 171.159 61.6379 170.478 62.3515C169.808 63.065 168.863 63.4218 167.643 63.4218H157.886ZM173.153 63.3245V49.4098H175.79V63.3245H173.153ZM178.095 63.3245V49.4098H180.732V60.7946H189.352V63.3245H178.095ZM191.003 63.3245V49.4098H193.64V63.3245H191.003ZM195.945 63.3245V49.4098H197.89L203.164 49.3903C205.296 49.3903 206.949 49.9807 208.125 51.1613C209.301 52.342 209.888 54.074 209.888 56.3574C209.888 58.6409 209.301 60.3729 208.125 61.5536C206.949 62.7342 205.296 63.3245 203.164 63.3245H195.945ZM202.982 51.9203H198.582V60.7946H202.982C204.367 60.7946 205.416 60.4378 206.131 59.7242C206.845 59.0106 207.202 57.8884 207.202 56.3574C207.202 54.8135 206.845 53.6912 206.131 52.9907C205.416 52.2771 204.367 51.9203 202.982 51.9203ZM210.231 63.3245L215.538 49.4098H219.609L224.916 63.3245H222.048L220.927 60.3859H214.219L213.099 63.3245H210.231ZM215.175 57.8559H219.972L217.68 51.8424H217.466L215.175 57.8559ZM226.237 63.3245V49.4098H228.182L233.456 49.3903C235.588 49.3903 237.241 49.9807 238.417 51.1613C239.593 52.342 240.18 54.074 240.18 56.3574C240.18 58.6409 239.593 60.3729 238.417 61.5536C237.241 62.7342 235.588 63.3245 233.456 63.3245H226.237ZM233.275 51.9203H228.874V60.7946H233.275C234.659 60.7946 235.709 60.4378 236.423 59.7242C237.137 59.0106 237.494 57.8884 237.494 56.3574C237.494 54.8135 237.137 53.6912 236.423 52.9907C235.709 52.2771 234.659 51.9203 233.275 51.9203ZM241.834 63.3245V49.4098H254.756V51.9398H244.471V55.0146H253.799V57.5446H244.471V60.7946H254.756V63.3245H241.834ZM256.182 63.4218V60.8919L265.659 60.9113C266.143 60.9113 266.511 60.7816 266.763 60.5221C267.027 60.2497 267.159 59.815 267.159 59.2182C267.159 58.6214 267.027 58.1933 266.763 57.9338C266.511 57.6613 266.143 57.5251 265.659 57.5251H259.759C258.539 57.5251 257.589 57.1813 256.907 56.4937C256.237 55.7931 255.902 54.7681 255.902 53.4188C255.902 52.0695 256.237 51.051 256.907 50.3634C257.589 49.6628 258.539 49.3125 259.759 49.3125H269.022V51.8424L260.039 51.823C259.567 51.823 259.198 51.9527 258.935 52.2122C258.671 52.4587 258.539 52.8609 258.539 53.4188C258.539 53.9767 258.671 54.3854 258.935 54.6448C259.198 54.8914 259.567 55.0146 260.039 55.0146H265.939C267.159 55.0146 268.104 55.3714 268.774 56.085C269.456 56.7856 269.796 57.83 269.796 59.2182C269.796 60.5935 269.456 61.6379 268.774 62.3515C268.104 63.065 267.159 63.4218 265.939 63.4218H256.182Z" fill="#1C8B3C"/>
</g>
<path d="M178.371 69.6484H179.251V80.377H185.439V80.8085H178.371V69.6484Z" fill="#ED334E"/>
<path d="M178.371 69.4624H178.185V69.6484V80.8085V80.9945H178.371H185.439H185.625V80.8085V80.377V80.191H185.439H179.437V69.6484V69.4624H179.251H178.371Z" stroke="#ED334E" stroke-width="0.372003"/>
<path fill-rule="evenodd" clip-rule="evenodd" d="M174.279 69.6484H173.535V75.2285V80.8085H174.279V69.6484Z" fill="#3D3D3D"/>
<path d="M174.465 69.6484V69.4624H174.279H173.535H173.349V69.6484V75.2285V80.8085V80.9945H173.535H174.279H174.465V80.8085V69.6484Z" stroke="#3D3D3D" stroke-width="0.372003"/>
<path d="M162.189 79.6022V79.6733L162.237 79.7262C163.221 80.8258 164.599 81.3662 166.346 81.3662C167.238 81.3662 168.044 81.2359 168.764 80.9718L168.764 80.9718L168.766 80.971C169.487 80.6962 170.061 80.3065 170.481 79.7971C170.905 79.2831 171.117 78.6844 171.117 78.0089C171.117 77.4792 170.994 76.9934 170.746 76.5555C170.51 76.1151 170.132 75.7222 169.624 75.3735L169.624 75.3735L169.62 75.3707C168.912 74.9136 167.926 74.4085 166.667 73.8552L166.665 73.8546C165.647 73.4179 164.939 73.0237 164.524 72.6747C164.137 72.3289 163.953 71.929 163.953 71.467C163.953 71.0014 164.151 70.6333 164.568 70.349C164.995 70.0576 165.529 69.9064 166.182 69.9064C166.814 69.9064 167.388 70.0244 167.908 70.2578C168.428 70.4914 168.831 70.8093 169.123 71.2091L169.459 71.6685V71.0993V70.3179V70.2376L169.401 70.1826C168.622 69.4481 167.576 69.0901 166.285 69.0901C165.332 69.0901 164.53 69.2895 163.891 69.7021C163.24 70.1233 162.906 70.7224 162.906 71.4823C162.906 72.05 163.101 72.5534 163.485 72.9849L163.485 72.9849L163.489 72.9896C163.775 73.2891 164.11 73.55 164.492 73.7726C164.868 73.9912 165.358 74.239 165.961 74.516C165.961 74.5161 165.961 74.5162 165.962 74.5163L166.615 74.8221L166.615 74.8221L166.616 74.8226C167.569 75.2604 168.289 75.6391 168.783 75.9588L168.783 75.9588L168.786 75.9603C169.277 76.2683 169.613 76.5822 169.812 76.8975C170.008 77.2104 170.111 77.5884 170.111 78.0395C170.111 78.5269 169.955 78.9546 169.642 79.3298C169.325 79.7099 168.889 80.0098 168.327 80.2252L168.325 80.2257C167.776 80.441 167.172 80.5499 166.51 80.5499C165.549 80.5499 164.733 80.3802 164.054 80.0483C163.387 79.7154 162.883 79.2587 162.535 78.679L162.189 78.1045V78.7749V79.6022Z" fill="#FF8F3F" stroke="#FF8F3F" stroke-width="0.372003"/>
<path fill-rule="evenodd" clip-rule="evenodd" d="M161.631 80.8082H160.988L158.379 76.5137H151.065L148.51 80.8082H147.867L154.74 69.2761L161.631 80.8082ZM154.703 70.3573L158.158 76.0783H151.322L154.703 70.3573Z" fill="#0885C2"/>
<path d="M161.631 80.9942H161.959L161.791 80.7128L154.9 69.1807L154.74 68.9132L154.58 69.1809L147.707 80.713L147.54 80.9942H147.867H148.51H148.616L148.67 80.9033L151.171 76.6997H158.274L160.829 80.9048L160.883 80.9942H160.988H161.631ZM151.648 75.8923L154.705 70.7199L157.829 75.8923H151.648Z" stroke="#0885C2" stroke-width="0.372003"/>
<path d="M138.939 69.4624H138.753V69.6484V80.8085V80.9945H138.939H139.767H139.953V80.8085V77.5964L145.542 80.9678L145.587 80.9945H145.639H146.751H147.416L146.847 80.6495L140.727 76.9381C141.685 76.9007 142.575 76.7473 143.395 76.4765L143.395 76.4765L143.396 76.4759C144.347 76.1519 145.107 75.7075 145.667 75.1365C146.246 74.5632 146.549 73.9179 146.549 73.2048C146.549 71.9883 145.953 71.0524 144.798 70.4088C143.672 69.7713 142.083 69.4624 140.051 69.4624H138.939ZM140.232 76.1436H139.953V70.266H140.103C141.83 70.266 143.128 70.5372 144.018 71.0589L144.018 71.0589L144.02 71.0596C144.917 71.5757 145.349 72.2914 145.349 73.2197C145.349 73.7385 145.141 74.2191 144.704 74.6662C144.264 75.1069 143.653 75.4659 142.862 75.737C142.074 76.0072 141.198 76.1436 140.232 76.1436Z" fill="#FBB132" stroke="#FBB132" stroke-width="0.372003"/>
<path fill-rule="evenodd" clip-rule="evenodd" d="M129.267 69.6484H130.024C131.27 69.6484 132.185 69.832 132.769 70.199C133.352 70.5561 133.644 71.0868 133.644 71.7912C133.644 72.1979 133.455 72.5897 133.076 72.9667C132.698 73.3337 132.24 73.5817 131.704 73.7107C133.06 73.8496 134.109 74.2067 134.851 74.7821C135.592 75.3574 135.963 76.1114 135.963 77.0439C135.963 77.7879 135.703 78.4475 135.182 79.0229C134.662 79.5884 133.944 80.0298 133.029 80.3472C132.13 80.6548 131.128 80.8085 130.024 80.8085H129.267V69.6484ZM132.13 73.056C131.609 73.4032 130.97 73.5768 130.213 73.5768H130.024V70.0651H130.213C131.144 70.0651 131.822 70.2089 132.248 70.4966C132.69 70.7843 132.911 71.2108 132.911 71.7763C132.911 72.2822 132.65 72.7088 132.13 73.056ZM132.745 79.9752C131.988 80.253 131.144 80.3919 130.213 80.3919H130.024V73.9786H130.213C131.822 73.9786 133.053 74.2414 133.904 74.7672C134.772 75.283 135.206 76.0518 135.206 77.0736C135.206 77.7085 134.985 78.2789 134.543 78.7848C134.102 79.2907 133.502 79.6876 132.745 79.9752Z" fill="#1C8B3C"/>
<path d="M129.267 69.4624H129.081V69.6484V80.8085V80.9945H129.267H130.024C131.145 80.9945 132.168 80.8384 133.089 80.5232L133.09 80.523C134.026 80.198 134.773 79.742 135.319 79.1489L135.32 79.1477C135.87 78.5397 136.149 77.8361 136.149 77.0439C136.149 76.0535 135.751 75.2455 134.965 74.6351C134.332 74.1442 133.496 73.8118 132.467 73.6287C132.738 73.4909 132.984 73.3147 133.206 73.1002L133.206 73.1003L133.207 73.0985C133.61 72.698 133.83 72.2614 133.83 71.7912C133.83 71.0248 133.507 70.4331 132.867 70.0409C132.238 69.6459 131.28 69.4624 130.024 69.4624H129.267ZM130.213 80.2059H130.21V74.1646H130.213C131.807 74.1646 132.997 74.4257 133.807 74.9255L133.807 74.9255L133.809 74.9271C134.62 75.4089 135.02 76.1164 135.02 77.0736C135.02 77.6608 134.817 78.1883 134.403 78.6625C133.985 79.1409 133.414 79.522 132.68 79.801C131.946 80.0699 131.125 80.2059 130.213 80.2059ZM130.213 73.3908H130.21V70.2511H130.213C131.133 70.2511 131.765 70.3948 132.144 70.6507L132.144 70.6508L132.147 70.6525C132.531 70.9029 132.725 71.2683 132.725 71.7763C132.725 72.205 132.509 72.5793 132.027 72.9012C131.543 73.2241 130.942 73.3908 130.213 73.3908Z" stroke="#1C8B3C" stroke-width="0.372003"/>
<path d="M112.095 78.2484L112.095 78.2484L112.096 78.2505C112.686 79.1917 113.482 79.9463 114.481 80.5134C115.482 81.0821 116.568 81.3665 117.735 81.3665C118.911 81.3665 119.996 81.0929 120.987 80.5446L120.987 80.5443C121.987 79.987 122.778 79.237 123.358 78.2949C123.949 77.3413 124.245 76.3028 124.245 75.1832C124.245 74.093 123.948 73.0795 123.357 72.1463C122.778 71.2047 121.992 70.4596 121.003 69.9123C120.012 69.3639 118.927 69.0904 117.751 69.0904C116.585 69.0904 115.5 69.3693 114.499 69.9273C113.499 70.4744 112.703 71.2193 112.113 72.1608C111.522 73.0938 111.225 74.1025 111.225 75.1832C111.225 76.273 111.516 77.2958 112.095 78.2484ZM114.939 70.6294L114.939 70.6294L114.94 70.6286C115.798 70.1426 116.734 69.8994 117.751 69.8994C118.757 69.8994 119.688 70.1425 120.546 70.6286L120.547 70.6294C121.406 71.1065 122.085 71.7524 122.587 72.5683C123.088 73.383 123.338 74.2635 123.338 75.2133C123.338 76.1728 123.083 77.0631 122.571 77.8879L122.571 77.8885C122.069 78.7046 121.39 79.3556 120.53 79.8429C119.672 80.3191 118.742 80.5575 117.735 80.5575C116.728 80.5575 115.797 80.3191 114.939 79.8429C114.08 79.3557 113.395 78.7045 112.882 77.8882C112.382 77.0636 112.132 76.1732 112.132 75.2133C112.132 74.2638 112.382 73.3836 112.882 72.569C113.395 71.7526 114.079 71.1065 114.939 70.6294Z" fill="#3D3D3D" stroke="#3D3D3D" stroke-width="0.372003"/>
<mask id="path-15-outside-2_116_26351" maskUnits="userSpaceOnUse" x="190.019" y="68.2764" width="81" height="14" fill="black">
<rect fill="white" x="190.019" y="68.2764" width="81" height="14"/>
<path d="M194.191 80.412C195.165 80.9243 196.233 81.1805 197.395 81.1805C198.059 81.1805 198.668 81.1101 199.222 80.9695C199.786 80.8389 200.334 80.6279 200.865 80.3366V79.7791C200.323 80.1106 199.781 80.3567 199.238 80.5174C198.696 80.6681 198.059 80.7435 197.329 80.7435C196.31 80.7435 195.358 80.4974 194.473 80.0051C193.598 79.5028 192.896 78.8298 192.364 77.9859C191.833 77.1421 191.567 76.228 191.567 75.2435C191.567 74.2691 191.827 73.3599 192.348 72.5161C192.879 71.6622 193.593 70.9841 194.49 70.4818C195.397 69.9695 196.399 69.7134 197.495 69.7134C198.214 69.7134 198.812 69.7887 199.288 69.9394C199.775 70.08 200.301 70.3261 200.865 70.6777V70.1202C200.268 69.8088 199.742 69.5928 199.288 69.4723C198.834 69.3417 198.22 69.2764 197.445 69.2764C196.327 69.2764 195.27 69.5376 194.274 70.0599C193.289 70.5823 192.497 71.2955 191.899 72.1996C191.313 73.1038 191.019 74.1033 191.019 75.1983C191.019 76.3334 191.302 77.3581 191.866 78.2722C192.442 79.1763 193.217 79.8896 194.191 80.412Z"/>
<path d="M218.381 80.8791V70.7079L227.546 81.0448V69.5777H227.064V79.7339L217.899 69.412V80.8791H218.381Z"/>
<path d="M229.211 70.0147H232.083V80.8791H232.631V70.0147H235.47V69.5777H229.211V70.0147Z"/>
<path fill-rule="evenodd" clip-rule="evenodd" d="M209.169 81.1805C208.007 81.1805 206.928 80.9042 205.932 80.3517C204.935 79.7992 204.144 79.0658 203.557 78.1517C202.982 77.2275 202.694 76.238 202.694 75.1832C202.694 74.1385 202.987 73.164 203.574 72.2599C204.161 71.3458 204.952 70.6225 205.948 70.0901C206.944 69.5476 208.024 69.2764 209.186 69.2764C210.359 69.2764 211.439 69.5426 212.424 70.075C213.409 70.6074 214.189 71.3307 214.765 72.2449C215.351 73.149 215.645 74.1284 215.645 75.1832C215.645 76.2681 215.351 77.2727 214.765 78.1969C214.189 79.1111 213.403 79.8394 212.407 80.3818C211.422 80.9142 210.343 81.1805 209.169 81.1805ZM212.125 80.0051C211.217 80.4974 210.232 80.7435 209.169 80.7435C208.107 80.7435 207.122 80.4974 206.214 80.0051C205.306 79.5028 204.581 78.8298 204.039 77.9859C203.508 77.1321 203.242 76.2079 203.242 75.2133C203.242 74.2289 203.508 73.3147 204.039 72.4709C204.581 71.627 205.306 70.959 206.214 70.4668C207.122 69.9645 208.112 69.7134 209.186 69.7134C210.249 69.7134 211.234 69.9645 212.141 70.4668C213.049 70.959 213.769 71.627 214.3 72.4709C214.831 73.3147 215.097 74.2289 215.097 75.2133C215.097 76.2079 214.826 77.1321 214.283 77.9859C213.752 78.8298 213.032 79.5028 212.125 80.0051Z"/>
<path fill-rule="evenodd" clip-rule="evenodd" d="M247.521 80.8791H246.94L244.582 76.5695H237.974L235.666 80.8791H235.085L241.294 69.3065L247.521 80.8791ZM241.261 70.3914L244.383 76.1325H238.206L241.261 70.3914Z"/>
<path fill-rule="evenodd" clip-rule="evenodd" d="M249.372 69.5777H249.903C251.884 69.5777 253.412 70.07 254.486 71.0544C255.57 72.0289 256.113 73.4202 256.113 75.2284C256.113 76.2631 255.836 77.2124 255.282 78.0764C254.729 78.9403 253.976 79.6234 253.024 80.1257C252.084 80.6279 251.043 80.8791 249.903 80.8791H249.372V69.5777ZM252.825 79.7339C251.984 80.1859 251.054 80.412 250.036 80.412H249.903V70.0298H250.036C251.807 70.0298 253.168 70.4818 254.12 71.386C255.083 72.28 255.565 73.5608 255.565 75.2284C255.565 76.1827 255.316 77.0567 254.818 77.8503C254.331 78.6439 253.666 79.2718 252.825 79.7339Z"/>
<path fill-rule="evenodd" clip-rule="evenodd" d="M264.153 81.1805C262.99 81.1805 261.911 80.9042 260.915 80.3517C259.919 79.7992 259.127 79.0658 258.54 78.1517C257.965 77.2275 257.677 76.238 257.677 75.1832C257.677 74.1385 257.97 73.164 258.557 72.2599C259.144 71.3458 259.935 70.6225 260.931 70.0901C261.928 69.5476 263.007 69.2764 264.169 69.2764C265.342 69.2764 266.422 69.5426 267.407 70.075C268.392 70.6074 269.172 71.3307 269.748 72.2449C270.335 73.149 270.628 74.1284 270.628 75.1832C270.628 76.2681 270.335 77.2727 269.748 78.1969C269.172 79.1111 268.386 79.8394 267.39 80.3818C266.405 80.9142 265.326 81.1805 264.153 81.1805ZM267.108 80.0051C266.2 80.4974 265.215 80.7435 264.153 80.7435C263.09 80.7435 262.105 80.4974 261.197 80.0051C260.289 79.5028 259.564 78.8298 259.022 77.9859C258.491 77.1321 258.225 76.2079 258.225 75.2133C258.225 74.2289 258.491 73.3147 259.022 72.4709C259.564 71.627 260.289 70.959 261.197 70.4668C262.105 69.9645 263.095 69.7134 264.169 69.7134C265.232 69.7134 266.217 69.9645 267.125 70.4668C268.032 70.959 268.752 71.627 269.283 72.4709C269.814 73.3147 270.08 74.2289 270.08 75.2133C270.08 76.2079 269.809 77.1321 269.266 77.9859C268.735 78.8298 268.016 79.5028 267.108 80.0051Z"/>
</mask>
<path d="M194.191 80.412C195.165 80.9243 196.233 81.1805 197.395 81.1805C198.059 81.1805 198.668 81.1101 199.222 80.9695C199.786 80.8389 200.334 80.6279 200.865 80.3366V79.7791C200.323 80.1106 199.781 80.3567 199.238 80.5174C198.696 80.6681 198.059 80.7435 197.329 80.7435C196.31 80.7435 195.358 80.4974 194.473 80.0051C193.598 79.5028 192.896 78.8298 192.364 77.9859C191.833 77.1421 191.567 76.228 191.567 75.2435C191.567 74.2691 191.827 73.3599 192.348 72.5161C192.879 71.6622 193.593 70.9841 194.49 70.4818C195.397 69.9695 196.399 69.7134 197.495 69.7134C198.214 69.7134 198.812 69.7887 199.288 69.9394C199.775 70.08 200.301 70.3261 200.865 70.6777V70.1202C200.268 69.8088 199.742 69.5928 199.288 69.4723C198.834 69.3417 198.22 69.2764 197.445 69.2764C196.327 69.2764 195.27 69.5376 194.274 70.0599C193.289 70.5823 192.497 71.2955 191.899 72.1996C191.313 73.1038 191.019 74.1033 191.019 75.1983C191.019 76.3334 191.302 77.3581 191.866 78.2722C192.442 79.1763 193.217 79.8896 194.191 80.412Z" fill="#3D3D3D"/>
<path d="M218.381 80.8791V70.7079L227.546 81.0448V69.5777H227.064V79.7339L217.899 69.412V80.8791H218.381Z" fill="#3D3D3D"/>
<path d="M229.211 70.0147H232.083V80.8791H232.631V70.0147H235.47V69.5777H229.211V70.0147Z" fill="#3D3D3D"/>
<path fill-rule="evenodd" clip-rule="evenodd" d="M209.169 81.1805C208.007 81.1805 206.928 80.9042 205.932 80.3517C204.935 79.7992 204.144 79.0658 203.557 78.1517C202.982 77.2275 202.694 76.238 202.694 75.1832C202.694 74.1385 202.987 73.164 203.574 72.2599C204.161 71.3458 204.952 70.6225 205.948 70.0901C206.944 69.5476 208.024 69.2764 209.186 69.2764C210.359 69.2764 211.439 69.5426 212.424 70.075C213.409 70.6074 214.189 71.3307 214.765 72.2449C215.351 73.149 215.645 74.1284 215.645 75.1832C215.645 76.2681 215.351 77.2727 214.765 78.1969C214.189 79.1111 213.403 79.8394 212.407 80.3818C211.422 80.9142 210.343 81.1805 209.169 81.1805ZM212.125 80.0051C211.217 80.4974 210.232 80.7435 209.169 80.7435C208.107 80.7435 207.122 80.4974 206.214 80.0051C205.306 79.5028 204.581 78.8298 204.039 77.9859C203.508 77.1321 203.242 76.2079 203.242 75.2133C203.242 74.2289 203.508 73.3147 204.039 72.4709C204.581 71.627 205.306 70.959 206.214 70.4668C207.122 69.9645 208.112 69.7134 209.186 69.7134C210.249 69.7134 211.234 69.9645 212.141 70.4668C213.049 70.959 213.769 71.627 214.3 72.4709C214.831 73.3147 215.097 74.2289 215.097 75.2133C215.097 76.2079 214.826 77.1321 214.283 77.9859C213.752 78.8298 213.032 79.5028 212.125 80.0051Z" fill="#3D3D3D"/>
<path fill-rule="evenodd" clip-rule="evenodd" d="M247.521 80.8791H246.94L244.582 76.5695H237.974L235.666 80.8791H235.085L241.294 69.3065L247.521 80.8791ZM241.261 70.3914L244.383 76.1325H238.206L241.261 70.3914Z" fill="#3D3D3D"/>
<path fill-rule="evenodd" clip-rule="evenodd" d="M249.372 69.5777H249.903C251.884 69.5777 253.412 70.07 254.486 71.0544C255.57 72.0289 256.113 73.4202 256.113 75.2284C256.113 76.2631 255.836 77.2124 255.282 78.0764C254.729 78.9403 253.976 79.6234 253.024 80.1257C252.084 80.6279 251.043 80.8791 249.903 80.8791H249.372V69.5777ZM252.825 79.7339C251.984 80.1859 251.054 80.412 250.036 80.412H249.903V70.0298H250.036C251.807 70.0298 253.168 70.4818 254.12 71.386C255.083 72.28 255.565 73.5608 255.565 75.2284C255.565 76.1827 255.316 77.0567 254.818 77.8503C254.331 78.6439 253.666 79.2718 252.825 79.7339Z" fill="#3D3D3D"/>
<path fill-rule="evenodd" clip-rule="evenodd" d="M264.153 81.1805C262.99 81.1805 261.911 80.9042 260.915 80.3517C259.919 79.7992 259.127 79.0658 258.54 78.1517C257.965 77.2275 257.677 76.238 257.677 75.1832C257.677 74.1385 257.97 73.164 258.557 72.2599C259.144 71.3458 259.935 70.6225 260.931 70.0901C261.928 69.5476 263.007 69.2764 264.169 69.2764C265.342 69.2764 266.422 69.5426 267.407 70.075C268.392 70.6074 269.172 71.3307 269.748 72.2449C270.335 73.149 270.628 74.1284 270.628 75.1832C270.628 76.2681 270.335 77.2727 269.748 78.1969C269.172 79.1111 268.386 79.8394 267.39 80.3818C266.405 80.9142 265.326 81.1805 264.153 81.1805ZM267.108 80.0051C266.2 80.4974 265.215 80.7435 264.153 80.7435C263.09 80.7435 262.105 80.4974 261.197 80.0051C260.289 79.5028 259.564 78.8298 259.022 77.9859C258.491 77.1321 258.225 76.2079 258.225 75.2133C258.225 74.2289 258.491 73.3147 259.022 72.4709C259.564 71.627 260.289 70.959 261.197 70.4668C262.105 69.9645 263.095 69.7134 264.169 69.7134C265.232 69.7134 266.217 69.9645 267.125 70.4668C268.032 70.959 268.752 71.627 269.283 72.4709C269.814 73.3147 270.08 74.2289 270.08 75.2133C270.08 76.2079 269.809 77.1321 269.266 77.9859C268.735 78.8298 268.016 79.5028 267.108 80.0051Z" fill="#3D3D3D"/>
<path d="M194.191 80.412C195.165 80.9243 196.233 81.1805 197.395 81.1805C198.059 81.1805 198.668 81.1101 199.222 80.9695C199.786 80.8389 200.334 80.6279 200.865 80.3366V79.7791C200.323 80.1106 199.781 80.3567 199.238 80.5174C198.696 80.6681 198.059 80.7435 197.329 80.7435C196.31 80.7435 195.358 80.4974 194.473 80.0051C193.598 79.5028 192.896 78.8298 192.364 77.9859C191.833 77.1421 191.567 76.228 191.567 75.2435C191.567 74.2691 191.827 73.3599 192.348 72.5161C192.879 71.6622 193.593 70.9841 194.49 70.4818C195.397 69.9695 196.399 69.7134 197.495 69.7134C198.214 69.7134 198.812 69.7887 199.288 69.9394C199.775 70.08 200.301 70.3261 200.865 70.6777V70.1202C200.268 69.8088 199.742 69.5928 199.288 69.4723C198.834 69.3417 198.22 69.2764 197.445 69.2764C196.327 69.2764 195.27 69.5376 194.274 70.0599C193.289 70.5823 192.497 71.2955 191.899 72.1996C191.313 73.1038 191.019 74.1033 191.019 75.1983C191.019 76.3334 191.302 77.3581 191.866 78.2722C192.442 79.1763 193.217 79.8896 194.191 80.412Z" stroke="#3D3D3D" stroke-width="0.744006" mask="url(#path-15-outside-2_116_26351)"/>
<path d="M218.381 80.8791V70.7079L227.546 81.0448V69.5777H227.064V79.7339L217.899 69.412V80.8791H218.381Z" stroke="#3D3D3D" stroke-width="0.744006" mask="url(#path-15-outside-2_116_26351)"/>
<path d="M229.211 70.0147H232.083V80.8791H232.631V70.0147H235.47V69.5777H229.211V70.0147Z" stroke="#3D3D3D" stroke-width="0.744006" mask="url(#path-15-outside-2_116_26351)"/>
<path fill-rule="evenodd" clip-rule="evenodd" d="M209.169 81.1805C208.007 81.1805 206.928 80.9042 205.932 80.3517C204.935 79.7992 204.144 79.0658 203.557 78.1517C202.982 77.2275 202.694 76.238 202.694 75.1832C202.694 74.1385 202.987 73.164 203.574 72.2599C204.161 71.3458 204.952 70.6225 205.948 70.0901C206.944 69.5476 208.024 69.2764 209.186 69.2764C210.359 69.2764 211.439 69.5426 212.424 70.075C213.409 70.6074 214.189 71.3307 214.765 72.2449C215.351 73.149 215.645 74.1284 215.645 75.1832C215.645 76.2681 215.351 77.2727 214.765 78.1969C214.189 79.1111 213.403 79.8394 212.407 80.3818C211.422 80.9142 210.343 81.1805 209.169 81.1805ZM212.125 80.0051C211.217 80.4974 210.232 80.7435 209.169 80.7435C208.107 80.7435 207.122 80.4974 206.214 80.0051C205.306 79.5028 204.581 78.8298 204.039 77.9859C203.508 77.1321 203.242 76.2079 203.242 75.2133C203.242 74.2289 203.508 73.3147 204.039 72.4709C204.581 71.627 205.306 70.959 206.214 70.4668C207.122 69.9645 208.112 69.7134 209.186 69.7134C210.249 69.7134 211.234 69.9645 212.141 70.4668C213.049 70.959 213.769 71.627 214.3 72.4709C214.831 73.3147 215.097 74.2289 215.097 75.2133C215.097 76.2079 214.826 77.1321 214.283 77.9859C213.752 78.8298 213.032 79.5028 212.125 80.0051Z" stroke="#3D3D3D" stroke-width="0.744006" mask="url(#path-15-outside-2_116_26351)"/>
<path fill-rule="evenodd" clip-rule="evenodd" d="M247.521 80.8791H246.94L244.582 76.5695H237.974L235.666 80.8791H235.085L241.294 69.3065L247.521 80.8791ZM241.261 70.3914L244.383 76.1325H238.206L241.261 70.3914Z" stroke="#3D3D3D" stroke-width="0.744006" mask="url(#path-15-outside-2_116_26351)"/>
<path fill-rule="evenodd" clip-rule="evenodd" d="M249.372 69.5777H249.903C251.884 69.5777 253.412 70.07 254.486 71.0544C255.57 72.0289 256.113 73.4202 256.113 75.2284C256.113 76.2631 255.836 77.2124 255.282 78.0764C254.729 78.9403 253.976 79.6234 253.024 80.1257C252.084 80.6279 251.043 80.8791 249.903 80.8791H249.372V69.5777ZM252.825 79.7339C251.984 80.1859 251.054 80.412 250.036 80.412H249.903V70.0298H250.036C251.807 70.0298 253.168 70.4818 254.12 71.386C255.083 72.28 255.565 73.5608 255.565 75.2284C255.565 76.1827 255.316 77.0567 254.818 77.8503C254.331 78.6439 253.666 79.2718 252.825 79.7339Z" stroke="#3D3D3D" stroke-width="0.744006" mask="url(#path-15-outside-2_116_26351)"/>
<path fill-rule="evenodd" clip-rule="evenodd" d="M264.153 81.1805C262.99 81.1805 261.911 80.9042 260.915 80.3517C259.919 79.7992 259.127 79.0658 258.54 78.1517C257.965 77.2275 257.677 76.238 257.677 75.1832C257.677 74.1385 257.97 73.164 258.557 72.2599C259.144 71.3458 259.935 70.6225 260.931 70.0901C261.928 69.5476 263.007 69.2764 264.169 69.2764C265.342 69.2764 266.422 69.5426 267.407 70.075C268.392 70.6074 269.172 71.3307 269.748 72.2449C270.335 73.149 270.628 74.1284 270.628 75.1832C270.628 76.2681 270.335 77.2727 269.748 78.1969C269.172 79.1111 268.386 79.8394 267.39 80.3818C266.405 80.9142 265.326 81.1805 264.153 81.1805ZM267.108 80.0051C266.2 80.4974 265.215 80.7435 264.153 80.7435C263.09 80.7435 262.105 80.4974 261.197 80.0051C260.289 79.5028 259.564 78.8298 259.022 77.9859C258.491 77.1321 258.225 76.2079 258.225 75.2133C258.225 74.2289 258.491 73.3147 259.022 72.4709C259.564 71.627 260.289 70.959 261.197 70.4668C262.105 69.9645 263.095 69.7134 264.169 69.7134C265.232 69.7134 266.217 69.9645 267.125 70.4668C268.032 70.959 268.752 71.627 269.283 72.4709C269.814 73.3147 270.08 74.2289 270.08 75.2133C270.08 76.2079 269.809 77.1321 269.266 77.9859C268.735 78.8298 268.016 79.5028 267.108 80.0051Z" stroke="#3D3D3D" stroke-width="0.744006" mask="url(#path-15-outside-2_116_26351)"/>
<defs>
<clipPath id="clip0_116_26351">
<rect width="158.473" height="14.5081" fill="white" transform="translate(111.411 49.1885)"/>
</clipPath>
</defs>
</svg>
