<svg width="299" height="165" viewBox="0 0 299 165" fill="none" xmlns="http://www.w3.org/2000/svg">
<path d="M127.112 25.4618L150.428 12.4555L161.403 50.6064L162.053 52.8651L168.335 74.6997L172.588 89.4816L147.829 103.142L137.879 65.834L137.294 63.6388L131.312 41.2098L127.112 25.4618Z" fill="url(#paint0_linear_413_66)"/>
<path d="M168.335 74.6997L172.588 89.4816C186.902 79.7141 213.978 57.1022 207.761 44.795C201.543 32.4877 174.265 43.5412 161.403 50.6064L162.053 52.8651C172.823 47.6932 195.038 39.0102 197.737 45.6534C200.435 52.2965 179.26 67.7856 168.335 74.6997Z" fill="url(#paint1_linear_413_66)"/>
<path d="M127.112 25.4618C112.323 35.7365 84.3786 59.3032 90.9134 71.3723C97.4482 83.4414 124.947 72.7089 137.879 65.834L137.294 63.6388C125.385 69.093 101.435 76.7948 100.673 69.7199C99.7885 61.5112 120.801 47.2861 131.312 41.2098L127.112 25.4618Z" fill="url(#paint2_linear_413_66)"/>
<path d="M0.0517802 151.744L7.11049 118.319H13.183L24.2901 140.585L29.0132 118.319H36.02L28.9613 151.744H22.8888L11.7817 129.478L7.05858 151.744H0.0517802ZM44.785 152.263C39.664 152.263 35.9789 150.862 33.7299 148.059C31.4808 145.222 30.9617 140.931 32.1728 135.187C33.4876 129.063 35.7194 124.634 38.8682 121.9C42.0515 119.167 46.4805 117.8 52.1552 117.8C57.4146 117.8 61.1342 119.167 63.3141 121.9C65.5286 124.634 65.9784 129.063 64.6636 135.187C63.4525 140.931 61.2553 145.222 58.072 148.059C54.8887 150.862 50.4597 152.263 44.785 152.263ZM46.0826 146.294C49.2313 146.294 51.7226 145.395 53.5565 143.595C55.3904 141.761 56.7225 138.959 57.553 135.187C58.1758 132.315 58.3834 130.049 58.1758 128.388C58.0028 126.727 57.3281 125.551 56.1516 124.859C54.9752 124.132 53.2105 123.769 50.8576 123.769C47.7089 123.769 45.2002 124.634 43.3318 126.364C41.4979 128.059 40.1484 131 39.2834 135.187C38.4876 139.097 38.5568 141.934 39.491 143.699C40.4598 145.429 42.657 146.294 46.0826 146.294ZM70.5367 151.744L64.8274 118.319H71.938L75.7788 143.907L90.4671 118.319H97.9929L78.2182 151.744H70.5367ZM82.5326 151.744L102.359 118.319H110.041L115.698 151.744H108.691L107.186 143.699H94.8853L90.1103 151.744H82.5326ZM97.1171 138.301H107.342L105.058 124.859L97.1171 138.301ZM121.647 151.744L128.706 118.319H135.712L129.796 146.346H146.249L145.107 151.744H121.647ZM143.827 151.744L150.886 118.319H157.893L150.834 151.744H143.827ZM167.495 152.263C162.166 152.263 158.291 150.792 155.868 147.851C153.481 144.91 152.841 140.827 153.948 135.602C155.124 130.066 157.512 125.724 161.111 122.575C164.744 119.391 169.467 117.8 175.28 117.8C177.287 117.8 179.069 117.921 180.626 118.163C182.217 118.371 183.688 118.717 185.037 119.201L183.74 125.222C182.39 124.703 180.937 124.34 179.38 124.132C177.823 123.89 176.197 123.769 174.501 123.769C170.73 123.769 167.754 124.755 165.574 126.727C163.394 128.665 161.889 131.623 161.059 135.602C160.54 137.99 160.419 139.979 160.695 141.571C160.972 143.163 161.751 144.356 163.031 145.152C164.346 145.948 166.301 146.346 168.896 146.346C170.072 146.346 171.231 146.26 172.373 146.087C173.515 145.879 174.571 145.619 175.539 145.308L177.2 137.523H169.415L170.349 133.059H184.051L180.574 149.408C179.294 150.135 177.564 150.792 175.384 151.381C173.204 151.969 170.574 152.263 167.495 152.263ZM178.683 151.744L198.51 118.319H206.192L211.849 151.744H204.842L203.337 143.699H191.036L186.261 151.744H178.683ZM193.268 138.301H203.493L201.209 124.859L193.268 138.301ZM221.15 164.2C220.562 164.2 219.87 164.149 219.074 164.045C218.278 163.976 217.69 163.889 217.309 163.785L218.088 160.256C219.022 160.533 220.043 160.671 221.15 160.671C222.673 160.671 223.762 160.55 224.42 160.308C225.112 160.1 225.527 159.581 225.666 158.751C225.839 157.851 225.596 157.297 224.939 157.09C224.282 156.917 223.347 156.83 222.136 156.83H219.853L222.188 152.107C219.316 151.761 216.929 150.879 215.026 149.46C213.157 148.007 211.877 146.087 211.185 143.699C210.493 141.312 210.476 138.526 211.133 135.343C212.309 129.807 214.593 125.499 217.984 122.419C221.375 119.34 226.098 117.8 232.153 117.8C234.16 117.8 235.925 117.956 237.447 118.267C239.004 118.544 240.44 118.942 241.755 119.461L240.458 125.585C237.759 124.374 234.731 123.769 231.375 123.769C227.569 123.769 224.628 124.72 222.551 126.623C220.51 128.526 219.074 131.433 218.244 135.343C217.448 139.011 217.638 141.761 218.814 143.595C219.991 145.429 222.621 146.346 226.704 146.346C228.33 146.346 229.956 146.208 231.582 145.931C233.243 145.619 234.87 145.17 236.461 144.581L235.164 150.758C233.883 151.138 232.551 151.467 231.167 151.744C229.783 151.986 228.295 152.142 226.704 152.211L225.666 154.079C227.499 154.079 228.78 154.495 229.506 155.325C230.233 156.19 230.458 157.349 230.181 158.803C229.835 160.498 228.918 161.813 227.43 162.747C225.942 163.716 223.849 164.2 221.15 164.2ZM260.665 115.983C259.662 115.983 258.71 115.81 257.811 115.464C256.911 115.118 256.046 114.772 255.215 114.426C254.42 114.08 253.589 113.907 252.724 113.907C250.821 113.907 249.126 114.547 247.638 115.828L248.728 110.845C249.316 110.361 250.042 109.98 250.908 109.703C251.773 109.392 252.655 109.236 253.555 109.236C254.627 109.236 255.579 109.409 256.409 109.755C257.24 110.101 258.053 110.447 258.849 110.793C259.644 111.139 260.527 111.312 261.496 111.312C263.433 111.312 265.008 110.655 266.219 109.34L265.129 114.322C264.714 114.772 264.108 115.17 263.312 115.516C262.516 115.828 261.634 115.983 260.665 115.983ZM232.015 151.744L251.842 118.319H259.523L265.181 151.744H258.174L256.669 143.699H244.368L239.593 151.744H232.015ZM246.6 138.301H256.824L254.541 124.859L246.6 138.301ZM277.129 152.263C272.008 152.263 268.323 150.862 266.074 148.059C263.824 145.222 263.305 140.931 264.516 135.187C265.831 129.063 268.063 124.634 271.212 121.9C274.395 119.167 278.824 117.8 284.499 117.8C289.758 117.8 293.478 119.167 295.658 121.9C297.872 124.634 298.322 129.063 297.007 135.187C295.796 140.931 293.599 145.222 290.416 148.059C287.232 150.862 282.803 152.263 277.129 152.263ZM278.426 146.294C281.575 146.294 284.066 145.395 285.9 143.595C287.734 141.761 289.066 138.959 289.897 135.187C290.519 132.315 290.727 130.049 290.519 128.388C290.346 126.727 289.672 125.551 288.495 124.859C287.319 124.132 285.554 123.769 283.201 123.769C280.053 123.769 277.544 124.634 275.675 126.364C273.842 128.059 272.492 131 271.627 135.187C270.831 139.097 270.9 141.934 271.835 143.699C272.804 145.429 275.001 146.294 278.426 146.294Z" fill="#04289C"/>
<defs>
<linearGradient id="paint0_linear_413_66" x1="137.696" y1="15.9683" x2="160.764" y2="99.5727" gradientUnits="userSpaceOnUse">
<stop stop-color="#00E6FF"/>
<stop offset="1" stop-color="#04289C"/>
</linearGradient>
<linearGradient id="paint1_linear_413_66" x1="137.696" y1="15.9683" x2="160.764" y2="99.5727" gradientUnits="userSpaceOnUse">
<stop stop-color="#00E6FF"/>
<stop offset="1" stop-color="#04289C"/>
</linearGradient>
<linearGradient id="paint2_linear_413_66" x1="137.696" y1="15.9683" x2="160.764" y2="99.5727" gradientUnits="userSpaceOnUse">
<stop stop-color="#00E6FF"/>
<stop offset="1" stop-color="#04289C"/>
</linearGradient>
</defs>
</svg>
