<svg width="551" height="347" viewBox="0 0 551 347" fill="none" xmlns="http://www.w3.org/2000/svg">
<rect x="288.916" y="229.328" width="242.078" height="88.9337" rx="44.4668" fill="#FFD18A"/>
<ellipse cx="514.688" cy="242.142" rx="36.3118" ry="35.8606" fill="#FFBD59"/>
<path fill-rule="evenodd" clip-rule="evenodd" d="M364.035 136.133L275.74 92.3755V107.776V123.518V134.812V149.87V165.271V178.96V194.018V209.418V223.792V238.508V251.513V261.095L376.013 255.644V220.37V198.371L364.035 196.756V187.173V136.133ZM294.22 164.244V140.972L332.892 148.844V168.008L294.22 164.244ZM289.771 215.236V194.018L356.848 202.231V220.37L289.771 215.236Z" fill="#D4D8D9"/>
<path fill-rule="evenodd" clip-rule="evenodd" d="M514.617 245.01V238.337V237.823V231.663V230.637V223.45V214.209V208.734L437.615 172.8V196.756V206.68L428.374 205.434V222.423V252.798L514.617 245.01ZM457.122 230.637V202.916L495.794 215V232L457.122 230.637Z" fill="#D4D8D9"/>
<path d="M396.609 156.991L387.649 173.231C392.409 168.751 396.609 169.871 396.609 169.871C396.609 169.871 400.809 169.311 406.41 178.272L404.33 172.822L402.825 168.878L398.289 156.991C397.617 155.871 396.889 156.524 396.609 156.991Z" fill="#FD4600"/>
<path d="M408.173 161.264C407.531 160.118 406.836 160.786 406.568 161.264L402.825 168.878L404.33 172.822C407.156 172.115 409.718 174.265 410.371 175.192C411.617 176.316 413.183 178.068 415.09 180.792L413.404 176.032L411.953 171.934L408.173 161.264Z" fill="#FF8601"/>
<path d="M417.133 164.624C416.491 163.478 415.796 164.146 415.529 164.624L411.953 171.934L413.404 176.032C418.103 174.688 421.899 180.512 423.21 183.592L417.133 164.624Z" fill="#FED700"/>
<path d="M399.129 176.872L401.369 172.103L402.769 173.512L399.129 176.872Z" fill="#FF8601"/>
<path fill-rule="evenodd" clip-rule="evenodd" d="M364.035 136.133V187.173H385.253L437.615 196.756V172.8L364.035 136.133ZM387.649 173.231L396.609 156.991C396.889 156.524 397.617 155.871 398.289 156.991L402.825 168.878L406.568 161.264C406.836 160.786 407.531 160.118 408.173 161.264L411.953 171.934L415.529 164.624C415.796 164.146 416.491 163.478 417.133 164.624L423.21 183.592C421.899 180.512 418.103 174.688 413.404 176.032L415.09 180.792C413.183 178.068 411.617 176.316 410.371 175.192C409.718 174.265 407.156 172.115 404.33 172.822L406.41 178.272C400.809 169.311 396.609 169.871 396.609 169.871C396.609 169.871 392.409 168.751 387.649 173.231ZM410.371 175.192L411.73 176.592L408.65 179.672L410.371 175.192ZM399.129 176.872L401.369 172.103L402.769 173.512L399.129 176.872Z" fill="#F3F3F3"/>
<path d="M410.371 175.192L408.65 179.672L411.73 176.592L410.371 175.192Z" fill="#FED700"/>
<path d="M528.99 204.627V191.28L243.228 1V42.7521L514.506 198.371L523.515 202.231L528.99 204.627Z" fill="#B9B9B9"/>
<path d="M243.228 1L110.785 179.644V203.258L124.132 187.516L243.228 42.7521V1Z" fill="#B9B9B9"/>
<path d="M243.228 88.9532L251.099 94.4289H257.259L263.762 88.9532L275.74 92.3755L364.035 136.133L437.615 172.8L514.617 208.734L514.587 205.996L514.506 198.371L243.228 42.7521L124.132 187.516V207.707L235.907 115.989L235.957 110.171L236.041 100.247L243.228 88.9532Z" fill="#E8E8E8"/>
<path d="M385.253 187.173H364.035V196.756H385.253V187.173Z" fill="#D4D8D9"/>
<path d="M437.615 196.756L385.253 187.173V196.756L437.615 206.68V196.756Z" fill="#D4D8D9"/>
<path d="M437.615 206.68L385.253 196.756H364.035L376.013 198.371L394.151 200.818L414.343 203.541L428.374 205.434L437.615 206.68Z" fill="#B9B9B9"/>
<path d="M428.374 252.798V222.423L414.343 221.873L403.734 221.457V254.137L428.374 252.798Z" fill="#FEDFB0"/>
<path d="M376.013 220.37V255.644L403.734 254.137V221.457L394.151 221.081L376.013 220.37Z" fill="#FEDFB0"/>
<path d="M376.013 198.371V220.37L394.151 221.081V200.818L376.013 198.371Z" fill="#FEDFB0"/>
<path d="M394.151 200.818V221.081L403.734 221.457L414.343 221.873V203.541L394.151 200.818Z" fill="#FEDFB0"/>
<path d="M428.374 222.423V205.434L414.343 203.541V221.873L428.374 222.423Z" fill="#FEDFB0"/>
<path d="M294.22 140.972V164.244L332.892 168.008V148.844L294.22 140.972Z" fill="#6EAFC5"/>
<path d="M289.771 194.018V215.236L356.848 220.37V202.231L289.771 194.018Z" fill="#4FA2BE"/>
<path d="M457.122 202.916V230.637L495.794 232V215L457.122 202.916Z" fill="#6EAFC5"/>
<path d="M116.26 214.894V250.828L234.672 261.095L234.754 251.513L234.864 238.508L234.99 223.792L235.112 209.418L235.243 194.018L235.371 178.96L235.496 164.244L235.627 148.844L235.747 134.812L235.843 123.518L235.907 115.989L124.132 207.707L116.26 214.894Z" fill="#D4D8D9"/>
<path d="M243.228 88.9532L236.041 100.247L235.957 110.171L243.201 102.3L243.228 88.9532Z" fill="#01FC9C"/>
<path d="M251.099 94.4289L243.228 88.9532L243.201 102.3L251.099 107.776V94.4289Z" fill="#01FC9C"/>
<path d="M263.762 88.9532L257.259 94.4289V107.776L263.762 105.38V88.9532Z" fill="#01FC9C"/>
<path d="M275.74 92.3755L263.762 88.9532V105.38L275.74 107.776V92.3755Z" fill="#01FC9C"/>
<path d="M243.201 102.3L235.957 110.171L235.907 115.989L235.843 123.518L243.173 116.761L243.201 102.3Z" fill="#01FFB6"/>
<path d="M251.099 107.776L243.201 102.3L243.173 116.761L251.099 123.518V107.776Z" fill="#01FFB6"/>
<path d="M263.762 105.38L257.259 107.776V123.518L263.762 121.465V105.38Z" fill="#01FFB6"/>
<path d="M275.74 107.776L263.762 105.38V121.465L275.74 123.518V107.776Z" fill="#01FFB6"/>
<path d="M243.173 116.761L235.843 123.518L235.747 134.812L243.147 129.679L243.173 116.761Z" fill="#00FFD6"/>
<path d="M251.099 123.518L243.173 116.761L243.147 129.679L251.099 134.812V123.518Z" fill="#00FFD6"/>
<path d="M263.762 121.465L257.259 123.518V134.812L263.762 133.443V121.465Z" fill="#00FFD6"/>
<path d="M275.74 123.518L263.762 121.465V133.443L275.74 134.812V123.518Z" fill="#00FFD6"/>
<path d="M243.147 129.679L235.747 134.812L235.627 148.844L243.118 144.395L243.147 129.679Z" fill="#04FEF4"/>
<path d="M251.099 134.812L243.147 129.679L243.118 144.395L251.099 149.87V134.812Z" fill="#04FEF4"/>
<path d="M263.762 133.443L257.259 134.812V149.87L263.762 148.844V133.443Z" fill="#04FEF4"/>
<path d="M275.74 134.812L263.762 133.443V148.844L275.74 149.87V134.812Z" fill="#04FEF4"/>
<path d="M243.118 144.395L235.627 148.844L235.496 164.244L243.087 159.795L243.118 144.395Z" fill="#02F3FE"/>
<path d="M251.099 149.87L243.118 144.395L243.087 159.795L251.099 165.271V149.87Z" fill="#02F3FE"/>
<path d="M275.74 149.87L263.762 148.844V164.244L275.74 165.271V149.87Z" fill="#02F3FE"/>
<path d="M263.762 148.844L257.259 149.87V165.271L263.762 164.244V148.844Z" fill="#02F3FE"/>
<path d="M243.087 159.795L235.496 164.244L235.371 178.96L243.058 174.169L243.087 159.795Z" fill="#54DAFF"/>
<path d="M251.099 165.271L243.087 159.795L243.058 174.169L251.099 178.96V165.271Z" fill="#54DAFF"/>
<path d="M263.762 164.244L257.259 165.271V178.96L263.762 177.591V164.244Z" fill="#54DAFF"/>
<path d="M275.74 165.271L263.762 164.244V177.591L275.74 178.96V165.271Z" fill="#54DAFF"/>
<path d="M243.058 174.169L235.371 178.96L235.243 194.018L243.026 190.596L243.058 174.169Z" fill="#87C4FD"/>
<path d="M251.099 178.96L243.058 174.169L243.026 190.596L251.099 194.018V178.96Z" fill="#87C4FD"/>
<path d="M263.762 177.591L257.259 178.96V194.018L263.762 192.307V177.591Z" fill="#87C4FD"/>
<path d="M275.74 178.96L263.762 177.591V192.307L275.74 194.018V178.96Z" fill="#87C4FD"/>
<path d="M243.026 190.596L235.243 194.018L235.112 209.418L242.994 206.338L243.026 190.596Z" fill="#7698F9"/>
<path d="M251.099 194.018L243.026 190.596L242.994 206.338L251.099 209.418V194.018Z" fill="#7698F9"/>
<path d="M263.762 192.307L257.259 194.018V209.418L263.762 207.707V192.307Z" fill="#7698F9"/>
<path d="M275.74 194.018L263.762 192.307V207.707L275.74 209.418V194.018Z" fill="#7698F9"/>
<path d="M242.994 206.338L235.112 209.418L234.99 223.792L242.965 221.396L242.994 206.338Z" fill="#9A9AFE"/>
<path d="M251.099 209.418L242.994 206.338L242.965 221.396L251.099 223.792V209.418Z" fill="#9A9AFE"/>
<path d="M263.762 207.707L257.259 209.418V223.792L263.762 222.423V207.707Z" fill="#9A9AFE"/>
<path d="M275.74 209.418L263.762 207.707V222.423L275.74 223.792V209.418Z" fill="#9A9AFE"/>
<path d="M242.965 221.396L234.99 223.792L234.864 238.508L242.934 236.797L242.965 221.396Z" fill="#B78FFF"/>
<path d="M251.099 223.792L242.965 221.396L242.934 236.797L251.099 238.508V223.792Z" fill="#B78FFF"/>
<path d="M263.762 222.423L257.259 223.792V238.508L263.762 236.797V222.423Z" fill="#B78FFF"/>
<path d="M275.74 223.792L263.762 222.423V236.797L275.74 238.508V223.792Z" fill="#B78FFF"/>
<path d="M242.934 236.797L234.864 238.508L234.754 251.513L242.91 248.946L242.934 236.797Z" fill="#DB8CFF"/>
<path d="M251.099 238.508L242.934 236.797L242.91 248.946L251.099 251.513V238.508Z" fill="#DB8CFF"/>
<path d="M263.762 236.797L257.259 238.508V251.513L263.762 250.144V236.797Z" fill="#DB8CFF"/>
<path d="M275.74 238.508L263.762 236.797V250.144L275.74 251.513V238.508Z" fill="#DB8CFF"/>
<path d="M234.672 261.095H242.886L242.91 248.946L234.754 251.513L234.672 261.095Z" fill="#CC71FD"/>
<path d="M242.886 261.095H251.099V251.513L242.91 248.946L242.886 261.095Z" fill="#CC71FD"/>
<path d="M257.259 261.095H263.762V250.144L257.259 251.513V261.095Z" fill="#CC71FD"/>
<path d="M263.762 261.095H275.74V251.513L263.762 250.144V261.095Z" fill="#CC71FD"/>
<path d="M523.515 202.231L514.506 198.371L514.587 205.996L514.617 208.734V214.209V223.45V230.637V231.663V237.823V238.337V245.01H523.515V240.561V239.192V234.059V232.69V225.503V217.632V208.734V202.231Z" fill="url(#paint0_linear_27_15559)"/>
<path d="M234.672 261.095L116.26 250.828V214.894L124.132 207.707M234.672 261.095H242.886M234.672 261.095L234.754 251.513M251.099 94.4289L243.228 88.9532M251.099 94.4289V107.776M251.099 94.4289H257.259M243.228 88.9532L236.041 100.247L235.957 110.171M243.228 88.9532L243.201 102.3M263.762 261.095H275.74M263.762 261.095V250.144M263.762 261.095H257.259M263.762 88.9532L275.74 92.3755M263.762 88.9532L257.259 94.4289M263.762 88.9532V105.38M275.74 92.3755L364.035 136.133M275.74 92.3755V107.776M275.74 261.095H257.259M275.74 261.095L376.013 255.644M275.74 261.095V251.513M514.617 245.01L428.374 252.798M514.617 245.01H523.515V240.561V239.192M514.617 245.01V238.337V237.823M514.617 208.734L437.615 172.8M514.617 208.734L514.587 205.996M514.617 208.734V214.209V223.45M235.907 115.989L124.132 207.707M235.907 115.989L235.957 110.171M235.907 115.989L235.843 123.518M243.228 42.7521V1M243.228 42.7521L514.506 198.371M243.228 42.7521L124.132 187.516M243.228 1L528.99 191.28V204.627L523.515 202.231M243.228 1L110.785 179.644V203.258L124.132 187.516M257.259 94.4289V107.776M257.259 261.095V251.513M242.886 261.095H251.099V251.513M242.886 261.095L242.91 248.946M364.035 136.133V187.173M364.035 136.133L437.615 172.8M364.035 187.173H385.253M364.035 187.173V196.756M437.615 196.756V172.8M437.615 196.756L385.253 187.173M437.615 196.756V206.68M385.253 187.173V196.756M437.615 206.68L385.253 196.756M437.615 206.68L428.374 205.434M385.253 196.756H364.035M364.035 196.756L376.013 198.371M376.013 198.371V220.37M376.013 198.371L394.151 200.818M376.013 255.644V220.37M376.013 255.644L403.734 254.137M428.374 252.798V222.423M428.374 252.798L403.734 254.137M428.374 205.434V222.423M428.374 205.434L414.343 203.541M376.013 220.37L394.151 221.081M428.374 222.423L414.343 221.873M394.151 221.081V200.818M394.151 221.081L403.734 221.457M394.151 200.818L414.343 203.541M414.343 221.873L403.734 221.457M414.343 221.873V203.541M403.734 221.457V254.137M514.506 198.371L523.515 202.231M514.506 198.371L514.587 205.996M523.515 202.231V208.734M402.825 168.878L398.289 156.991C397.617 155.871 396.889 156.524 396.609 156.991L387.649 173.231C392.409 168.751 396.609 169.871 396.609 169.871C396.609 169.871 400.809 169.311 406.41 178.272L404.33 172.822M402.825 168.878L406.568 161.264C406.836 160.786 407.531 160.118 408.173 161.264L411.953 171.934M402.825 168.878L404.33 172.822M410.371 175.192C411.617 176.316 413.183 178.068 415.09 180.792L413.404 176.032M410.371 175.192L408.65 179.672L411.73 176.592L410.371 175.192ZM410.371 175.192C409.718 174.265 407.156 172.115 404.33 172.822M411.953 171.934L415.529 164.624C415.796 164.146 416.491 163.478 417.133 164.624L423.21 183.592C421.899 180.512 418.103 174.688 413.404 176.032M411.953 171.934L413.404 176.032M235.957 110.171L243.201 102.3M235.957 110.171L235.843 123.518M243.201 102.3L251.099 107.776M243.201 102.3L243.173 116.761M251.099 107.776V123.518M235.843 123.518L243.173 116.761M235.843 123.518L235.747 134.812M243.173 116.761L251.099 123.518M243.173 116.761L243.147 129.679M251.099 123.518V134.812M235.747 134.812L243.147 129.679M235.747 134.812L235.627 148.844M243.147 129.679L251.099 134.812M243.147 129.679L243.118 144.395M251.099 134.812V149.87M235.627 148.844L243.118 144.395M235.627 148.844L235.496 164.244M243.118 144.395L251.099 149.87M243.118 144.395L243.087 159.795M251.099 149.87V165.271M235.496 164.244L243.087 159.795M235.496 164.244L235.371 178.96M243.087 159.795L251.099 165.271M243.087 159.795L243.058 174.169M251.099 165.271V178.96M235.371 178.96L243.058 174.169M235.371 178.96L235.243 194.018M243.058 174.169L251.099 178.96M243.058 174.169L243.026 190.596M251.099 178.96V194.018M235.243 194.018L243.026 190.596M235.243 194.018L235.112 209.418M243.026 190.596L251.099 194.018M243.026 190.596L242.994 206.338M251.099 194.018V209.418M235.112 209.418L242.994 206.338M235.112 209.418L234.99 223.792M242.994 206.338L251.099 209.418M242.994 206.338L242.965 221.396M251.099 209.418V223.792M234.99 223.792L242.965 221.396M234.99 223.792L234.864 238.508M242.965 221.396L251.099 223.792M242.965 221.396L242.934 236.797M251.099 223.792V238.508M234.864 238.508L242.934 236.797M234.864 238.508L234.754 251.513M242.934 236.797L251.099 238.508M242.934 236.797L242.91 248.946M251.099 238.508V251.513M234.754 251.513L242.91 248.946M242.91 248.946L251.099 251.513M257.259 107.776L263.762 105.38M257.259 107.776V123.518M263.762 105.38L275.74 107.776M263.762 105.38V121.465M275.74 107.776V123.518M257.259 123.518L263.762 121.465M257.259 123.518V134.812M263.762 121.465L275.74 123.518M263.762 121.465V133.443M275.74 123.518V134.812M257.259 134.812L263.762 133.443M257.259 134.812V149.87M263.762 133.443L275.74 134.812M263.762 133.443V148.844M275.74 134.812V149.87M257.259 149.87L263.762 148.844M257.259 149.87V165.271M263.762 148.844L275.74 149.87M263.762 148.844V164.244M275.74 149.87V165.271M257.259 165.271L263.762 164.244M257.259 165.271V178.96M263.762 164.244L275.74 165.271M263.762 164.244V177.591M275.74 165.271V178.96M257.259 178.96L263.762 177.591M257.259 178.96V194.018M263.762 177.591L275.74 178.96M263.762 177.591V192.307M275.74 178.96V194.018M257.259 194.018L263.762 192.307M257.259 194.018V209.418M263.762 192.307L275.74 194.018M263.762 192.307V207.707M275.74 194.018V209.418M257.259 209.418L263.762 207.707M257.259 209.418V223.792M263.762 207.707L275.74 209.418M263.762 207.707V222.423M275.74 209.418V223.792M257.259 223.792L263.762 222.423M257.259 223.792V238.508M263.762 222.423L275.74 223.792M263.762 222.423V236.797M275.74 223.792V238.508M257.259 238.508L263.762 236.797M257.259 238.508V251.513M263.762 236.797L275.74 238.508M263.762 236.797V250.144M275.74 238.508V251.513M257.259 251.513L263.762 250.144M263.762 250.144L275.74 251.513M124.132 187.516V207.707M514.587 205.996L523.515 208.734M523.515 208.734V217.632M523.515 217.632V225.503M523.515 217.632L514.617 215.578M514.617 223.45L523.515 225.503M514.617 223.45V230.637M523.515 225.503V232.69M514.617 230.637V231.663V237.823M514.617 230.637L523.515 232.69M523.515 232.69V234.059V239.192M514.617 237.823L523.515 239.192M294.22 140.972V164.244L332.892 168.008V148.844L294.22 140.972ZM289.771 194.018V215.236L356.848 220.37V202.231L289.771 194.018ZM457.122 202.916V230.637L495.794 232V215L457.122 202.916ZM399.129 176.872L401.369 172.103L402.769 173.512L399.129 176.872Z" stroke="black" stroke-width="0.5"/>
<ellipse cx="177.249" cy="262.235" rx="168.035" ry="84.5309" fill="#D9D9D9"/>
<path d="M306.804 240.947C306.804 265.346 264.921 263.323 207.547 267.913C149.56 267.913 151.894 259.307 123.781 236.357C102.552 210.539 68.1277 200.785 210.415 193.327C268.402 193.327 306.804 216.548 306.804 240.947Z" fill="#F0F0F0"/>
<path d="M136.038 245.923C154.857 264.283 182.875 268.104 194.35 267.339L204.313 267.725L241.692 264.611C241.692 264.611 214.714 244.129 197.428 231.006C170.444 232.964 128.329 236.02 128.329 236.02L132.46 241.987L136.038 245.923Z" fill="#CBD855"/>
<path d="M132.46 241.987L128.329 236.02L121.709 226.456C102.775 230.089 63.0583 243.858 55.7144 270.02C68.2082 275.184 98.9716 285.052 122.076 283.216C123.182 266.521 125.965 249.046 132.46 241.987Z" fill="#F1F7F5"/>
<path d="M120.61 224.882L120.605 224.876L113.662 214.941C88.609 217.619 36.5515 229.285 28.7487 254.529C33.9123 258.546 45.2724 267.037 49.4033 268.873C52.272 258.546 69.6619 234.98 120.61 224.882Z" fill="#F1F7F5"/>
<path d="M102.189 200.598C46.3311 204.984 22.9699 220.104 13.4896 233.875L24.694 250.513C35.8052 227.65 70.0323 216.666 111.369 211.499L107.715 207.16L102.189 200.598Z" fill="#F1F7F5"/>
<path d="M6.02845 214.138C6.2197 215.094 6.60219 218.728 6.60219 218.728C21.4735 196.054 68.8539 189.242 91.0768 188.63L85.1116 182.426C30.9504 186.557 9.77691 205.417 6.02845 214.138Z" fill="#F1F7F5"/>
<path d="M6.94655 219.531C6.94655 219.531 10.5802 226.416 12.1102 229.859C22.667 209.663 75.7771 200.594 100.83 198.49L98.3229 195.956L98.3104 195.958L92.7733 190.348C17.6132 197.233 10.9627 213.22 6.94655 219.531Z" fill="#F1F7F5"/>
<path d="M194.35 267.339C182.875 268.104 154.857 264.283 136.038 245.923C134.386 255.365 132.02 272.119 131.205 287.233L197.428 291.663C196.498 282.91 195.429 273.9 194.35 267.339Z" fill="#F1F7F5"/>
<path d="M204.313 267.725C205.279 274.135 206.543 283.51 207.362 291.823L257.145 286.659C256.704 279.611 255.402 271.503 252.508 263.709L241.692 264.611L204.313 267.725Z" fill="#F1F7F5"/>
<path d="M207.182 310.182C204.428 310.641 238.929 306.166 256.524 303.871C257.115 300.425 257.614 294.139 257.145 286.659L207.362 291.823C208.326 301.617 208.672 309.934 207.182 310.182Z" fill="#F3F3F3"/>
<path d="M266.851 301.576C279.856 299.281 312.75 289.528 312.75 289.528C313.044 286.302 313.786 280.679 312.605 274.037C295.046 285.511 274.7 285.703 266.721 284.364C267.846 290.423 268.194 296.588 266.851 301.576Z" fill="#F3F3F3"/>
<path d="M342.585 249.366C341.246 254.912 334.323 267.496 319.635 271.168L319.12 285.077C319.119 285.607 319.1 286.135 319.062 286.659C326.329 283.599 341.323 275.069 343.159 265.43C343.35 261.414 343.159 252.234 342.585 249.366Z" fill="#F3F3F3"/>
<path d="M132.022 311.33C152.677 312.286 194.674 313.625 197.428 311.33C198.888 310.113 198.478 301.536 197.428 291.663L131.205 287.233C130.7 296.609 130.792 305.355 132.022 311.33Z" fill="#F3F3F3"/>
<path d="M55.7144 270.02C53.802 275.375 50.895 288.495 54.567 298.134C65.468 302.15 94.1551 310.297 121.695 310.756C121.4 303.765 121.383 293.659 122.076 283.216C98.9716 285.052 68.2082 275.184 55.7144 270.02Z" fill="#F3F3F3"/>
<path d="M28.7487 254.529C25.8799 261.414 22.7818 272.315 26.4537 281.495C29.7049 284.555 38.617 291.708 48.2558 295.839C45.9609 281.495 47.6821 276.905 49.4033 268.873C45.2724 267.037 33.9123 258.546 28.7487 254.529Z" fill="#F3F3F3"/>
<path d="M8.09451 259.119C8.09451 259.119 16.8926 272.698 21.8651 277.479C19.8609 267.029 21 258.114 24.694 250.513L13.4896 233.875C4.37068 247.121 8.09451 259.119 8.09451 259.119Z" fill="#F3F3F3"/>
<path d="M1.00045 237.742C1.06233 244.947 4.21957 252.607 6.37274 256.251C5.4547 242.94 9.81521 233.11 12.1102 229.859C10.5802 226.416 6.94655 219.531 6.94655 219.531C6.94655 219.531 4.25427 226.198 2.33361 231.343C1.5652 233.402 0.981571 235.545 1.00045 237.742Z" fill="#F3F3F3"/>
<path d="M1.20908 232.727C1.78282 228.711 6.60219 218.728 6.60219 218.728C6.60219 218.728 6.2197 215.094 6.02845 214.138C4.49847 217.389 1.55338 226.645 1.20908 232.727Z" fill="#F3F3F3"/>
<path d="M301.849 253.382C301.849 253.382 290.948 262.562 259.966 263.135C262.081 267.699 265.154 275.929 266.721 284.364C274.7 285.703 295.046 285.511 312.605 274.037C311.474 267.682 308.582 260.395 301.849 253.382Z" fill="#F1F7F5"/>
<path d="M302.997 228.711C310.8 242.94 307.395 248.409 304.718 249.366C308.925 252.426 317.799 261.07 319.635 271.168C334.323 267.496 341.246 254.912 342.585 249.366C336.274 231.006 314.472 228.711 302.997 228.711Z" fill="#F1F7F5"/>
<path d="M319.12 285.077L319.635 271.168C317.799 261.07 308.925 252.426 304.718 249.366V252.234V254.529C309.663 259.841 319.134 273.081 319.12 285.077Z" fill="#F3F3F3"/>
<path d="M266.721 284.364C265.154 275.929 262.081 267.699 259.966 263.135C261.218 270.977 264.452 289.183 266.851 301.576C268.194 296.588 267.846 290.423 266.721 284.364Z" fill="#F3F3F3"/>
<path d="M304.718 249.366C307.395 248.409 310.8 242.94 302.997 228.711L302.28 231.58L301.849 233.301C303.714 235.269 306.15 238.605 307.044 241.907C307.801 244.702 307.453 247.472 304.718 249.366Z" fill="white"/>
<path d="M293.243 218.384V220.679L300.702 231.58L301.276 226.99L293.243 215.515V218.384Z" fill="white"/>
<path d="M290.374 211.499L279.473 201.745V205.761V206.335C282.342 208.63 288.539 213.794 290.374 216.089V211.499Z" fill="white"/>
<path d="M275.457 199.45C275.457 199.45 268.114 194.555 263.409 191.418C263.409 193.21 263.409 194.215 263.409 196.008C266.225 197.538 272.505 201.171 275.092 203.466L275.457 199.45Z" fill="white"/>
<path d="M259.392 189.697C256.141 187.784 248.95 183.959 246.196 183.959L246.496 188.158C246.434 188.135 246.557 188.18 246.496 188.158C250.759 189.718 259.298 192.93 260.099 194.287L259.392 189.697Z" fill="white"/>
<path d="M146.939 191.418C135.847 191.8 113.203 192.909 111.367 194.286C111.275 191.429 111.405 187.194 111.565 183.573L105.63 184.147V195.105L98.3229 195.956L100.83 198.49L102.189 200.598L107.715 207.16C126.101 204.337 170.473 198.956 200.871 200.024L201.445 191.991C208.434 190.964 216.068 191.278 223.037 192.163C231.629 193.253 239.21 195.209 243.328 196.581L235.295 205.188L238.164 206.335L249.065 196.582L252.872 193.651C250.421 192.833 248.147 192.267 246.77 191.992L246.496 188.158L242.467 190.844L232.427 190.27V189.123L228.984 190.013C228.984 190.013 204.887 189.123 202.018 190.013V182.238L196.855 182.426L196.281 191.418H153.25V182.426L146.939 183.385V191.418Z" fill="#DDE1E4"/>
<path d="M196.855 178.222L153.824 175.353L153.25 182.426V191.418H196.281L196.855 182.426V178.222Z" fill="white"/>
<path d="M260.54 197.155C260.368 196.035 260.099 194.287 260.099 194.287C259.298 192.93 250.759 189.718 246.496 188.158L246.77 191.992C248.147 192.267 250.421 192.833 252.872 193.651C255.528 194.539 258.391 195.723 260.54 197.155Z" fill="white"/>
<path d="M263.409 196.008C263.409 196.456 263.409 196.707 263.409 197.155C263.409 197.732 263.409 198.632 263.409 198.632L267.215 200.997L274.883 205.761L275.092 203.466C272.505 201.171 266.225 197.538 263.409 196.008Z" fill="white"/>
<path d="M279.473 206.335V208.056L281.195 209.687L290.374 218.383V216.089C288.539 213.794 282.342 208.63 279.473 206.335Z" fill="white"/>
<path d="M232.427 190.27L242.467 190.844V187.688C239.484 187 234.53 186.254 232.427 186.254V189.123V190.27Z" fill="white"/>
<path d="M202.018 190.013C204.887 189.123 228.984 190.013 228.984 190.013V185.107C226.179 184.189 210.008 183.003 202.018 182.238V190.013Z" fill="white"/>
<path d="M228.984 181.091L202.018 178.222V182.238C210.008 183.003 226.179 184.189 228.984 185.107V181.091Z" fill="white"/>
<path d="M242.18 183.385L231.853 181.664L232.427 186.254C234.53 186.254 239.484 187 242.467 187.688L242.18 183.385Z" fill="white"/>
<path d="M202.018 178.222L228.984 181.091C231.279 180.517 244.096 181.549 244.096 181.549C240.25 179.557 214.832 178.604 202.018 178.222Z" fill="#F1F7F5"/>
<path d="M231.853 181.664L242.18 183.385C246.551 181.199 255.017 182.732 257.847 183.183C258.286 183.253 258.589 183.297 258.721 183.297C255.967 181.461 239.694 181.282 231.853 181.664Z" fill="#F1F7F5"/>
<path d="M246.196 183.959C248.95 183.959 256.141 187.784 259.392 189.697C267.187 189.316 289.312 186.142 309.516 204.283C291.523 188.109 268.748 184.514 257.847 183.183C253.271 182.624 249.168 182.744 246.196 183.959Z" fill="#F1F7F5"/>
<path d="M263.409 191.418C268.114 194.555 275.457 199.45 275.457 199.45C282.365 199.312 294.86 199.68 302.997 201.621C305.812 202.292 308.105 203.146 309.464 204.241C302.619 198.24 284.536 187.822 263.409 191.418Z" fill="#F1F7F5"/>
<path d="M282.002 201.732L279.473 201.745L290.374 211.499C300.702 211.499 321.721 213.408 329.963 221.252C318.852 209.391 311.794 201.785 282.002 201.732Z" fill="#F1F7F5"/>
<path d="M293.243 215.515L301.276 226.99C314.663 225.842 341.208 229.17 342.585 249.366C342.768 237.277 333.462 216.415 298.086 215.515L293.243 215.515Z" fill="#F1F7F5"/>
<path d="M146.939 175.353C139.481 174.206 120.547 175.927 111.941 176.501C111.941 176.501 111.736 179.682 111.565 183.573C111.405 187.194 111.275 191.429 111.367 194.286C113.203 192.909 135.847 191.8 146.939 191.418V183.385V175.353Z" fill="white"/>
<path d="M85.1116 182.426L91.0768 188.63L92.7733 190.348L98.3229 195.956L105.63 195.105V184.147V177.648L87.844 179.943L83.8278 181.091L85.1116 182.426Z" fill="white"/>
<path d="M125.93 232.5L144.071 231.006L137.759 214.941L115 216.85L120.605 224.876L120.61 224.882L121.709 226.456L125.93 232.5Z" fill="#6EAFC5"/>
<path d="M139.481 214.941L145.792 230.432L168.741 228.711L164.151 212.073L139.481 214.941Z" fill="#6EAFC5"/>
<path d="M191.691 227.564L187.675 210.351L165.873 212.073L171.036 228.711L191.691 227.564Z" fill="#6EAFC5"/>
<path d="M193.986 227.563L189.396 210.351C198.576 209.586 220.263 209.663 233.574 216.089L210.051 229.285L204.887 228.711L212.346 218.384L207.756 217.236L200.297 227.563H193.986Z" fill="#6EAFC5"/>
<path d="M219.231 235.596L244.475 221.826L234.722 216.662L210.625 230.432L219.231 235.596Z" fill="#6EAFC5"/>
<path d="M219.804 236.17L227.837 241.333L254.803 228.137L245.623 222.4L219.804 236.17Z" fill="#6EAFC5"/>
<path d="M236.443 248.218L263.409 234.448L255.95 228.711L228.984 241.907L236.443 248.218Z" fill="#6EAFC5"/>
<path d="M237.59 248.792L264.556 235.022L272.015 240.186L243.901 254.529L237.59 248.792Z" fill="#6EAFC5"/>
<path d="M245.049 255.103L273.162 241.333L281.195 247.644L251.934 261.988L245.049 255.103Z" fill="#6EAFC5"/>
<path d="M300.702 231.58C297.489 236.02 293.103 239.388 291.312 240.518C294.944 243.517 298.205 246.332 300.954 248.792L307.044 241.907C306.15 238.605 303.714 235.269 301.849 233.301L302.28 231.58L300.702 231.58Z" fill="#6EAFC5"/>
<path d="M304.718 252.234V249.366C307.453 247.472 307.801 244.702 307.044 241.907L300.954 248.792C302.346 250.038 303.607 251.193 304.718 252.234Z" fill="#6EAFC5"/>
<path d="M300.702 231.58L293.243 220.679C288.821 226.955 282.592 230.561 280.03 231.58C284.045 234.627 287.847 237.656 291.312 240.518C293.103 239.388 297.489 236.02 300.702 231.58Z" fill="#6EAFC5"/>
<path d="M293.243 220.679V218.384L290.374 218.383L281.195 209.687C277.231 217.747 271.006 222.028 268.389 223.161C272.387 225.903 276.3 228.749 280.03 231.58C282.592 230.561 288.821 226.955 293.243 220.679Z" fill="#6EAFC5"/>
<path d="M279.473 205.761H274.883L267.215 200.997C266.594 202.889 258.72 210.824 254.86 214.555C259.383 217.185 263.938 220.108 268.389 223.161C271.006 222.028 277.231 217.747 281.195 209.687L279.473 208.056V206.335V205.761Z" fill="#6EAFC5"/>
<path d="M263.409 197.155C262.288 197.155 261.66 197.155 260.54 197.155C258.391 195.723 255.528 194.539 252.872 193.651L249.065 196.582L238.164 206.335C243.493 208.385 249.151 211.236 254.86 214.555C258.72 210.824 266.594 202.889 267.215 200.997L263.409 198.632C263.409 198.632 263.409 197.732 263.409 197.155Z" fill="#6EAFC5"/>
<path d="M235.295 205.188L243.328 196.581C239.21 195.209 231.629 193.253 223.037 192.163C221.89 194.039 219.595 198.607 219.595 201.87C226.07 202.734 232.182 203.853 235.295 205.188Z" fill="#6EAFC5"/>
<path d="M201.445 191.991L200.871 200.024C205.406 200.32 212.706 200.951 219.595 201.87C219.595 198.607 221.89 194.039 223.037 192.163C216.068 191.278 208.434 190.964 201.445 191.991Z" fill="#6EAFC5"/>
<path d="M274.883 205.761H279.473V201.745C280.334 201.735 281.177 201.73 282.002 201.732L302.997 201.621C294.86 199.68 282.365 199.312 275.457 199.45L275.092 203.466L274.883 205.761Z" fill="#F3F3F3"/>
<path d="M242.467 187.688V190.844L246.496 188.158L246.196 183.959C249.168 182.744 253.271 182.624 257.847 183.183C255.017 182.732 246.551 181.199 242.18 183.385L242.467 187.688Z" fill="#F3F3F3"/>
<path d="M228.984 181.091V185.107V190.013L232.427 189.123V186.254L231.853 181.664C235.035 181.509 239.605 181.446 244.096 181.549C244.096 181.549 231.279 180.517 228.984 181.091Z" fill="#F3F3F3"/>
<path d="M260.54 197.155H263.409V196.008V191.418C284.536 187.822 302.619 198.24 309.464 204.241C309.482 204.255 309.499 204.269 309.516 204.283C289.312 186.142 267.187 189.316 259.392 189.697L260.099 194.287L260.54 197.155Z" fill="#F3F3F3"/>
<path d="M329.963 221.252C318.852 212.26 297.502 211.499 290.374 211.499V216.089V218.383L293.243 218.384V215.515C294.909 215.474 296.523 215.475 298.086 215.515C298.086 215.515 312.04 215.515 329.963 221.252Z" fill="#F3F3F3"/>
<path d="M302.997 228.711C314.472 228.711 336.274 231.006 342.585 249.366C341.208 229.17 314.663 225.842 301.276 226.99L300.702 231.58L302.28 231.58L302.997 228.711Z" fill="#F3F3F3"/>
<path d="M194.35 267.339C182.875 268.104 154.857 264.283 136.038 245.923M194.35 267.339C195.429 273.9 196.498 282.91 197.428 291.663M194.35 267.339L204.313 267.725M136.038 245.923C134.386 255.365 132.02 272.119 131.205 287.233M136.038 245.923L132.46 241.987M131.205 287.233C130.7 296.609 130.792 305.355 132.022 311.33C152.677 312.286 194.675 313.625 197.428 311.33C198.888 310.113 198.478 301.536 197.428 291.663M131.205 287.233L197.428 291.663M125.93 232.5L144.071 231.006L137.759 214.941L115 216.85L120.605 224.876M125.93 232.5L120.605 224.876M125.93 232.5L121.709 226.456M128.329 236.02C155.314 234.062 170.444 232.964 197.428 231.006M128.329 236.02C128.329 236.02 170.444 232.964 197.428 231.006M128.329 236.02L132.46 241.987M128.329 236.02L121.709 226.456M197.428 231.006C214.714 244.129 224.406 251.487 241.692 264.611M197.428 231.006C214.714 244.129 241.692 264.611 241.692 264.611M252.508 263.709C255.402 271.503 256.704 279.611 257.145 286.659M252.508 263.709C252.508 263.709 245.916 264.259 241.692 264.611M252.508 263.709L241.692 264.611M204.313 267.725C205.279 274.135 206.543 283.51 207.362 291.823M204.313 267.725C204.313 267.725 227.095 265.827 241.692 264.611M204.313 267.725L241.692 264.611M207.362 291.823C208.326 301.617 208.672 309.934 207.182 310.182C204.428 310.641 238.929 306.166 256.524 303.871C257.115 300.425 257.614 294.139 257.145 286.659M207.362 291.823L257.145 286.659M266.851 301.576C279.856 299.281 312.75 289.528 312.75 289.528C313.044 286.302 313.786 280.679 312.605 274.037M266.851 301.576C268.194 296.588 267.846 290.423 266.721 284.364M266.851 301.576C264.452 289.183 261.218 270.977 259.966 263.135M259.966 263.135C290.948 262.562 301.849 253.382 301.849 253.382C308.582 260.395 311.474 267.682 312.605 274.037M259.966 263.135C262.081 267.699 265.154 275.929 266.721 284.364M266.721 284.364C274.7 285.703 295.046 285.511 312.605 274.037M304.718 249.366C307.395 248.409 310.8 242.94 302.997 228.711M304.718 249.366C308.925 252.426 317.799 261.07 319.635 271.168M304.718 249.366V254.529M304.718 249.366C307.453 247.472 307.801 244.702 307.044 241.907M304.718 249.366V252.234M302.997 228.711C314.472 228.711 336.274 231.006 342.585 249.366M302.997 228.711L302.28 231.58M342.585 249.366C341.246 254.912 334.323 267.496 319.635 271.168M342.585 249.366C343.159 252.234 343.35 261.414 343.159 265.43C341.323 275.069 326.329 283.599 319.062 286.659M342.585 249.366C341.208 229.17 314.663 225.842 301.276 226.99M342.585 249.366C342.768 237.277 333.462 216.415 298.086 215.515M319.635 271.168L319.12 285.077M319.12 285.077L319.062 286.659M319.12 285.077C319.134 273.081 309.663 259.841 304.718 254.529M319.12 285.077C319.119 285.607 319.1 286.135 319.062 286.659M304.718 254.529V252.234M132.46 241.987L121.709 226.456M132.46 241.987C125.965 249.046 123.182 266.521 122.076 283.216M121.709 226.456C102.775 230.089 63.0583 243.858 55.7144 270.02M121.709 226.456L120.61 224.882M55.7144 270.02C53.802 275.375 50.895 288.495 54.567 298.134C65.468 302.15 94.1551 310.297 121.695 310.756C121.4 303.765 121.383 293.659 122.076 283.216M55.7144 270.02C68.2082 275.184 98.9716 285.052 122.076 283.216M120.61 224.882C69.6619 234.98 52.272 258.546 49.4033 268.873M120.61 224.882L120.605 224.876M28.7487 254.529C36.5515 229.285 88.609 217.619 113.662 214.941L120.605 224.876M28.7487 254.529C25.8799 261.414 22.7818 272.315 26.4537 281.495C29.7049 284.555 38.617 291.708 48.2558 295.839C45.9609 281.495 47.6821 276.905 49.4033 268.873M28.7487 254.529C33.9123 258.546 45.2724 267.037 49.4033 268.873M102.189 200.598C46.3311 204.984 22.9699 220.104 13.4896 233.875M102.189 200.598L107.715 207.16M102.189 200.598L100.83 198.49M13.4896 233.875C4.37068 247.121 8.09451 259.119 8.09451 259.119C8.09451 259.119 16.8926 272.698 21.8651 277.479C19.8609 267.029 21 258.114 24.694 250.513M13.4896 233.875L24.694 250.513M24.694 250.513C35.8052 227.65 70.0323 216.666 111.369 211.499L107.715 207.16M6.94655 219.531C6.94655 219.531 4.25427 226.198 2.33361 231.343C1.5652 233.402 0.981571 235.545 1.00045 237.742C1.06233 244.947 4.21957 252.607 6.37274 256.251C5.4547 242.94 9.81521 233.11 12.1102 229.859M6.94655 219.531C6.94655 219.531 10.5802 226.416 12.1102 229.859M6.94655 219.531C10.9627 213.22 17.6132 197.233 92.7733 190.348M12.1102 229.859C22.6671 209.663 75.7771 200.594 100.83 198.49M92.7733 190.348L98.3104 195.958M92.7733 190.348L98.3229 195.956M92.7733 190.348L91.0768 188.63M100.83 198.49L98.3229 195.956M6.60219 218.728C6.60219 218.728 1.78282 228.711 1.20908 232.727C1.55338 226.645 4.49847 217.389 6.02845 214.138M6.60219 218.728C6.60219 218.728 6.2197 215.094 6.02845 214.138M6.60219 218.728C21.4735 196.054 68.8539 189.242 91.0768 188.63M6.02845 214.138C9.77691 205.417 30.9504 186.557 85.1116 182.426M85.1116 182.426L91.0768 188.63M85.1116 182.426L83.8278 181.091M91.0768 188.63L98.3104 195.958M91.0768 188.63L83.8278 181.091M83.8278 181.091C46.1904 184.303 20.1425 197.92 13.2576 204.04C29.3224 187.975 68.3368 178.796 87.844 179.943M83.8278 181.091L87.844 179.943M87.844 179.943L105.63 177.648V184.147M98.3104 195.958L98.3229 195.956M202.018 178.222L228.984 181.091M202.018 178.222V182.238M202.018 178.222C214.832 178.604 240.25 179.557 244.096 181.549M228.984 181.091V185.107M228.984 181.091C231.279 180.517 244.096 181.549 244.096 181.549M228.984 190.013C228.984 190.013 204.887 189.123 202.018 190.013V182.238M228.984 190.013V185.107M228.984 190.013L232.427 189.123M202.018 182.238C210.008 183.003 226.179 184.189 228.984 185.107M202.018 182.238L196.855 182.426M244.096 181.549C239.605 181.446 235.035 181.509 231.853 181.664M232.427 189.123V190.27M232.427 189.123V186.254M232.427 190.27L242.467 190.844M232.427 190.27V186.254M242.467 190.844V187.688M242.467 190.844L246.496 188.158M242.18 183.385L231.853 181.664M242.18 183.385L242.467 187.688M242.18 183.385C246.551 181.199 255.017 182.732 257.847 183.183M231.853 181.664L232.427 186.254M231.853 181.664C239.694 181.282 255.967 181.461 258.721 183.297C258.589 183.297 258.286 183.253 257.847 183.183M232.427 186.254C234.53 186.254 239.484 187 242.467 187.688M246.496 188.158L246.196 183.959M246.496 188.158C246.557 188.18 246.434 188.135 246.496 188.158ZM246.496 188.158C250.759 189.718 259.298 192.93 260.099 194.287M246.496 188.158L246.77 191.992C248.147 192.267 250.421 192.833 252.872 193.651M260.54 197.155C261.66 197.155 262.288 197.155 263.409 197.155M260.54 197.155C260.368 196.035 260.099 194.287 260.099 194.287M260.54 197.155C258.391 195.723 255.528 194.539 252.872 193.651M260.54 197.155H263.409M260.54 197.155L260.099 194.287M259.392 189.697C256.141 187.784 248.95 183.959 246.196 183.959M259.392 189.697L260.099 194.287M259.392 189.697C267.187 189.316 289.312 186.142 309.516 204.283M246.196 183.959C249.168 182.744 253.271 182.624 257.847 183.183M263.409 197.155C263.409 196.707 263.409 196.456 263.409 196.008M263.409 197.155C263.409 197.732 263.409 198.632 263.409 198.632M263.409 197.155V196.008M263.409 198.632C263.409 198.632 263.409 197.033 263.409 196.008M263.409 198.632L267.215 200.997M274.883 205.761H279.473M274.883 205.761L275.092 203.466M274.883 205.761L267.215 200.997M275.457 199.45C275.457 199.45 268.114 194.555 263.409 191.418M275.457 199.45C282.365 199.312 294.86 199.68 302.997 201.621M275.457 199.45L275.092 203.466M263.409 191.418C284.536 187.822 302.619 198.24 309.464 204.241M263.409 191.418C263.409 193.21 263.409 194.215 263.409 196.008M263.409 191.418V196.008M309.882 204.614C309.748 204.492 309.608 204.367 309.464 204.241M309.882 204.614C309.76 204.503 309.638 204.392 309.516 204.283M309.882 204.614C309.769 204.501 309.647 204.391 309.516 204.283M309.464 204.241C308.105 203.146 305.812 202.292 302.997 201.621M309.464 204.241C309.482 204.255 309.499 204.269 309.516 204.283M279.473 205.761V201.745M279.473 205.761V206.335M302.997 201.621L282.002 201.732M279.473 201.745L290.374 211.499M279.473 201.745V206.335M279.473 201.745L282.002 201.732M279.473 201.745C280.334 201.735 281.177 201.73 282.002 201.732M263.409 196.008C266.225 197.538 272.505 201.171 275.092 203.466M290.374 218.383V216.089M290.374 218.383L293.243 218.384M290.374 218.383L281.195 209.687M290.374 211.499C300.702 211.499 321.721 213.408 329.963 221.252M290.374 211.499V216.089M290.374 211.499C297.502 211.499 318.852 212.26 329.963 221.252M329.963 221.252C312.04 215.515 298.086 215.515 298.086 215.515M329.963 221.252C318.852 209.391 311.794 201.785 282.002 201.732M279.473 206.335V208.056L281.195 209.687M279.473 206.335C282.342 208.63 288.539 213.794 290.374 216.089M293.243 220.679V215.515M293.243 220.679L300.702 231.58M293.243 220.679C288.821 226.955 282.592 230.561 280.03 231.58M293.243 220.679V218.384M293.243 215.515L301.276 226.99M293.243 215.515L298.086 215.515M293.243 215.515C294.909 215.474 296.523 215.475 298.086 215.515M293.243 215.515V218.384M301.276 226.99L300.702 231.58M300.702 231.58C297.489 236.02 293.103 239.388 291.312 240.518M300.702 231.58L302.28 231.58M302.423 231.58L302.28 231.58M200.871 200.024L201.445 191.991C208.434 190.964 216.068 191.278 223.037 192.163M200.871 200.024C205.406 200.32 212.706 200.951 219.595 201.87M200.871 200.024C170.473 198.956 126.101 204.337 107.715 207.16M235.295 205.188L243.328 196.581C239.21 195.209 231.629 193.253 223.037 192.163M235.295 205.188C232.182 203.853 226.07 202.734 219.595 201.87M235.295 205.188L238.164 206.335M223.037 192.163C221.89 194.039 219.595 198.607 219.595 201.87M238.164 206.335L249.065 196.582L252.872 193.651M238.164 206.335C243.493 208.385 249.151 211.236 254.86 214.555M304.718 252.234C303.607 251.193 302.346 250.038 300.954 248.792M254.86 214.555C258.72 210.824 266.594 202.889 267.215 200.997M254.86 214.555C259.383 217.185 263.938 220.108 268.389 223.161M268.389 223.161C271.006 222.028 277.231 217.747 281.195 209.687M268.389 223.161C272.387 225.903 276.3 228.749 280.03 231.58M280.03 231.58C284.045 234.627 287.847 237.656 291.312 240.518M291.312 240.518C294.944 243.517 298.205 246.332 300.954 248.792M300.954 248.792L307.044 241.907M307.044 241.907C306.15 238.605 303.714 235.269 301.849 233.301L302.28 231.58M105.63 184.147V195.105L98.3229 195.956M105.63 184.147L111.565 183.573M111.565 183.573C111.405 187.194 111.275 191.429 111.367 194.286C113.203 192.909 135.847 191.8 146.939 191.418V183.385M111.565 183.573C111.736 179.682 111.941 176.501 111.941 176.501C120.547 175.927 139.481 174.206 146.939 175.353V183.385M146.939 183.385L153.25 182.426M153.25 182.426V191.418H196.281L196.855 182.426M153.25 182.426L153.824 175.353L196.855 178.222V182.426M257.847 183.183C268.748 184.514 291.523 188.109 309.516 204.283M139.481 214.941L145.792 230.432L168.741 228.711L164.151 212.073L139.481 214.941ZM191.691 227.564L187.675 210.351L165.873 212.073L171.036 228.711L191.691 227.564ZM193.986 227.563L189.396 210.351C198.576 209.586 220.263 209.663 233.574 216.089L210.051 229.285L204.887 228.711L212.346 218.384L207.756 217.236L200.297 227.563H193.986ZM219.231 235.596L244.475 221.826L234.722 216.662L210.625 230.432L219.231 235.596ZM219.804 236.17L227.837 241.333L254.803 228.137L245.623 222.4L219.804 236.17ZM236.443 248.218L263.409 234.448L255.95 228.711L228.984 241.907L236.443 248.218ZM237.59 248.792L264.556 235.022L272.015 240.186L243.901 254.529L237.59 248.792ZM245.049 255.103L273.162 241.333L281.195 247.644L251.934 261.988L245.049 255.103Z" stroke="black" stroke-width="0.5"/>
<defs>
<linearGradient id="paint0_linear_27_15559" x1="319.887" y1="1" x2="319.887" y2="261.095" gradientUnits="userSpaceOnUse">
<stop offset="0.765" stop-color="#01FC9C"/>
<stop offset="1" stop-color="#CC71FD"/>
</linearGradient>
</defs>
</svg>
