<svg width="556" height="312" viewBox="0 0 556 312" fill="none" xmlns="http://www.w3.org/2000/svg">
<path d="M481 305.181C522.421 305.181 556 276.297 556 240.665C556 205.034 522.421 176.149 481 176.149C439.579 176.149 406 205.034 406 240.665C406 276.297 439.579 305.181 481 305.181Z" fill="#FFD18A"/>
<path d="M494.465 268.56C518.19 268.56 537.422 252.03 537.422 231.64C537.422 211.25 518.19 194.721 494.465 194.721C470.741 194.721 451.509 211.25 451.509 231.64C451.509 252.03 470.741 268.56 494.465 268.56Z" fill="#FEDFB0"/>
<path d="M43 273.749C43 284.022 51.3275 292.35 61.5999 292.35H124.4C134.672 292.35 143 284.022 143 273.749C143 263.477 134.672 255.149 124.4 255.149H61.5999C51.3275 255.149 43 263.477 43 273.749Z" fill="#6EAFC5"/>
<path d="M64.8021 273.942C73.0864 273.942 79.8021 280.658 79.8021 288.943C79.8021 297.227 73.0864 303.943 64.8021 303.943C56.5178 303.943 49.8021 297.227 49.8021 288.943C49.8021 280.658 56.5178 273.942 64.8021 273.942Z" fill="#4FA2BE"/>
<path d="M181.163 155.997C181.163 136.301 165.196 120.334 145.5 120.334C125.804 120.334 109.837 136.301 109.837 155.997C109.837 175.693 125.804 191.66 145.5 191.66C165.196 191.66 181.163 175.693 181.163 155.997Z" fill="#6EAFC5"/>
<path d="M35.6629 191.475C15.9668 191.475 0 175.508 0 155.812C0 136.116 15.9668 120.149 35.6629 120.149H118.273C121.343 120.149 122.803 123.927 120.532 125.992C102.944 141.982 102.944 169.642 120.532 185.631C122.803 187.696 121.343 191.475 118.273 191.475H35.6629Z" fill="#4FA2BE"/>
<mask id="mask0_27_15278" style="mask-type:luminance" maskUnits="userSpaceOnUse" x="134" y="122" width="390" height="71">
<path d="M524 122.149H134V192.149H524V122.149Z" fill="white"/>
</mask>
<g mask="url(#mask0_27_15278)">
<path fill-rule="evenodd" clip-rule="evenodd" d="M169.2 133.538C162.277 126.615 145.962 117.485 136.083 136.344C129.348 149.815 155.729 178.441 168.077 191.351L199.647 155.123C201.412 153.098 202.941 150.782 203.215 148.11C204.481 135.726 193.542 118.509 176.032 128.487C175.096 129.02 174.141 129.631 173.168 130.325C171.876 131.247 170.553 132.314 169.2 133.538ZM168.56 172.828C161.255 166.262 143.325 146.563 147.309 139.712C150.271 134.85 154.808 134.966 159.096 136.721C163.269 138.429 167.205 141.689 169.225 143.425C177.783 133.956 184.108 132.76 187.722 135.137C192.381 138.2 192.534 147.197 187.161 152.06L173.588 167.215L168.56 172.828Z" fill="#F40016"/>
<path d="M173.168 130.325C169.8 127.706 158.7 122.898 151.067 125.143C158.209 124.897 165.24 129.578 169.2 133.538C170.553 132.313 171.876 131.246 173.168 130.325Z" fill="url(#paint0_linear_27_15278)"/>
<path d="M147.309 139.712C143.325 146.563 161.256 166.262 168.561 172.828L173.588 167.215C168.757 161.041 158.535 147.907 156.29 144.763C154.045 141.62 157.225 138.092 159.096 136.721C154.808 134.966 150.271 134.85 147.309 139.712Z" fill="#94130A"/>
<path d="M169.225 143.425H177.619L187.722 135.137C184.108 132.76 177.783 133.956 169.225 143.425Z" fill="#F40016"/>
<path d="M199.647 155.123L168.077 191.351H174.852L180.987 184.615L206.726 154.421C209.01 151.742 211.034 148.68 210.999 145.16C210.937 138.898 207.974 130.523 201.193 126.24C190.191 119.291 179.274 125.859 176.032 128.486C193.542 118.509 204.481 135.726 203.215 148.11C202.941 150.782 201.412 153.098 199.647 155.123Z" fill="url(#paint1_linear_27_15278)"/>
<path d="M173.168 130.325C169.8 127.706 158.7 122.898 151.067 125.143C158.209 124.897 165.24 129.578 169.2 133.538M173.168 130.325C174.141 129.631 175.096 129.02 176.032 128.486M173.168 130.325C171.876 131.246 170.553 132.313 169.2 133.538M169.2 133.538C162.277 126.615 145.962 117.485 136.083 136.344C129.348 149.815 155.729 178.441 168.077 191.351M169.2 133.538C171.572 131.391 173.853 129.728 176.032 128.486M176.032 128.486C193.542 118.509 204.481 135.726 203.215 148.11C202.941 150.782 201.412 153.098 199.647 155.123L168.077 191.351M176.032 128.486C179.274 125.859 190.191 119.291 201.193 126.24C207.974 130.523 210.937 138.898 210.999 145.16C211.034 148.68 209.01 151.742 206.726 154.421L180.987 184.615L174.852 191.351H168.077M176.032 128.486C176.013 128.502 175.993 128.518 175.974 128.534M169.225 143.425H177.619L187.722 135.137M169.225 143.425C177.783 133.956 184.108 132.76 187.722 135.137M169.225 143.425C167.205 141.688 163.269 138.429 159.096 136.721M187.722 135.137C192.381 138.2 192.534 147.197 187.161 152.06L173.588 167.215M159.096 136.721C154.808 134.966 150.271 134.85 147.309 139.712C143.325 146.563 161.255 166.262 168.56 172.828L173.588 167.215M159.096 136.721C157.225 138.092 154.045 141.62 156.29 144.763C158.535 147.907 168.757 161.041 173.588 167.215" stroke="black" stroke-width="0.7"/>
<path d="M257.5 131.649H272.5L277 130.149H263L257.5 131.649Z" fill="#005C5E"/>
<path d="M233.5 130.149L257.5 168.149V158.649L240 131.649L233.5 130.149Z" fill="#00B3C6"/>
<path d="M221 130.149L221.5 191.649H235V159.149L241.5 169.209L256 191.649H272.5V131.649H257.5V158.649V168.149L233.5 130.149H221Z" fill="#01B9BB"/>
<path d="M241.5 169.209L235 159.149V191.649H241.5V169.209Z" fill="#2A6B63"/>
<path d="M272.5 131.649V191.649L277 190.149V130.149L272.5 131.649Z" fill="#4FA2BE"/>
<path d="M233.5 130.149H221L221.5 191.649H235M233.5 130.149L257.5 168.149M233.5 130.149L240 131.649L257.5 158.649M235 191.649V159.149M235 191.649H241.5V169.209M257.5 168.149V131.649M257.5 168.149V158.649M257.5 158.649V131.649M235 159.149L256 191.649M235 159.149L241.5 169.209M241.5 169.209L256 191.649M257.5 131.649H272.5M257.5 131.649L263 130.149H277M272.5 131.649V191.649M272.5 131.649L277 130.149M277 130.149V190.149L272.5 191.649M272.5 191.649H256" stroke="black" stroke-width="0.5"/>
<path fill-rule="evenodd" clip-rule="evenodd" d="M281 191.649H297L303 174.649H306H325.5L333 191.649H348L323 130.149H305L281 191.649ZM320 160.149L314 147.149L308.5 160.149H320Z" fill="#FDCE67"/>
<path d="M303 174.649L297 191.649H300L306 174.649H303Z" fill="#9C7B3B"/>
<path d="M323 130.149L348 191.649L350.5 189.149L326 130.149H323Z" fill="#9C7B3B"/>
<path d="M297 191.649H281L305 130.149H323M297 191.649L303 174.649M297 191.649H300L306 174.649M323 130.149L348 191.649M323 130.149H326L350.5 189.149L348 191.649M303 174.649H325.5M303 174.649H306M306 174.649H325.5M348 191.649H333L325.5 174.649M314 147.149L320 160.149H308.5L314 147.149Z" stroke="black" stroke-width="0.5"/>
<path fill-rule="evenodd" clip-rule="evenodd" d="M399 191.649H415L418 183.149L421 174.649H423H441.5H443.5L451 191.649H466L441 130.149H423L399 191.649ZM438 160.149L432 147.149L426.5 160.149H438Z" fill="#FF7613"/>
<path d="M451 191.649L443.5 174.649H441.5L449.5 191.649H451Z" fill="#C45200"/>
<path d="M399 191.649L423 130.149H421L397 191.649H399Z" fill="#C45200"/>
<path d="M399 191.649H415L418 183.149L421 174.649M399 191.649L423 130.149M399 191.649H397L421 130.149H423M421 174.649H423H441.5M421 174.649H441.5M423 130.149H441L466 191.649H451M441.5 174.649H443.5L451 191.649M441.5 174.649L449.5 191.649H451M432 147.149L438 160.149H426.5L432 147.149Z" stroke="black" stroke-width="0.5"/>
<path fill-rule="evenodd" clip-rule="evenodd" d="M406 128.149H343V143.149H365.5H367V191.149H382V143.149H406.5L406 128.149Z" fill="#F73D99"/>
<path d="M367 191.149V143.149H365.5V191.149H367Z" fill="#C51D63"/>
<path d="M367 191.149H382V143.149H406.5L406 128.149H343V143.149H365.5M367 191.149V143.149H365.5M367 191.149H365.5V143.149" stroke="black" stroke-width="0.5"/>
<path d="M474.5 127.149L475 191.649H523.5V177.149H491V175.149V127.149H474.5Z" fill="#0162BB"/>
<path d="M475 191.649L474.5 127.149H470L470.5 158.399L471 189.649L475 191.649Z" fill="#00547F"/>
<path d="M491 177.149H523.5L518 175.149H491V177.149Z" fill="#00547F"/>
<path d="M474.5 127.149L475 191.649M474.5 127.149H491M474.5 127.149H470L470.5 158.399L471 189.649L475 191.649M475 191.649H523.5V177.149M491 127.149V177.149M491 127.149V175.149M523.5 177.149H491M523.5 177.149L518 175.149H491M491 177.149V175.149" stroke="black" stroke-width="0.5"/>
</g>
<path d="M177.216 67.5663L175.845 109.03L180.175 109.173L181.284 75.641C181.346 73.7824 181.818 71.8509 183.265 70.6827C184.514 69.6741 186.103 69.063 187.989 69.5484C188.895 69.7819 189.992 70.1535 191.055 70.9485C192.636 72.1305 193.036 74.2376 192.97 76.2108L191.867 109.56L194.898 109.66C194.898 109.66 195.576 68.407 196.01 66.6873L177.216 67.5663Z" fill="#DC955F"/>
<path d="M191.867 109.56L192.97 76.2107C193.036 74.2375 192.636 72.1304 191.055 70.9484C189.992 70.1534 188.895 69.7818 187.989 69.5483C189.703 70.1443 191.8 72.2755 191.743 74.0077L190.568 109.517L191.867 109.56Z" fill="#A17457"/>
<path d="M191.867 109.56L192.97 76.2108C193.036 74.2376 192.636 72.1305 191.055 70.9485C189.992 70.1535 188.895 69.7819 187.989 69.5484M191.867 109.56L194.898 109.66C194.898 109.66 195.576 68.407 196.01 66.6873L177.216 67.5663L175.845 109.03L180.175 109.173L181.284 75.641C181.346 73.7824 181.818 71.8509 183.265 70.6827C184.514 69.6741 186.103 69.063 187.989 69.5484M191.867 109.56L190.568 109.517M187.989 69.5484C189.703 70.1444 191.8 72.2756 191.743 74.0078M190.568 109.517C190.936 98.4023 191.685 75.7399 191.743 74.0078M190.568 109.517L191.743 74.0078" stroke="black" stroke-width="0.3"/>
<path fill-rule="evenodd" clip-rule="evenodd" d="M243.955 113.451L245.624 113.506L247.037 70.7962C247.096 69.0144 246.103 67.3236 244.44 66.6812C245.005 67.0647 245.25 68.4084 245.25 68.4084L243.955 113.451Z" fill="#A17457"/>
<path d="M230.196 64.8166L228.604 112.943L234.233 113.129L235.495 74.9968C235.641 70.581 239.379 65.2393 243.638 66.4162C243.904 66.4897 244.171 66.5774 244.44 66.6811C246.103 67.3235 247.096 69.0143 247.037 70.7961L245.624 113.506L248.956 113.616L250.582 64.4905L230.196 64.8166Z" fill="#DC955F"/>
<path d="M245.624 113.506L247.037 70.7961C247.096 69.0143 246.103 67.3235 244.44 66.6811M245.624 113.506L248.956 113.616L250.582 64.4905L230.196 64.8166L228.604 112.943L234.233 113.129L235.495 74.9968C235.641 70.581 239.379 65.2393 243.638 66.4162C243.904 66.4897 244.171 66.5774 244.44 66.6811M245.624 113.506L243.955 113.451L245.25 68.4083C245.25 68.4083 245.005 67.0646 244.44 66.6811" stroke="black" stroke-width="0.3"/>
<path d="M363.826 113.948L365.469 64.2893L386.688 64.9913L385.045 114.651L378.55 114.436L380.061 68.7606C380.077 68.2589 379.915 67.7558 379.532 67.4317C377.46 65.6798 374.062 65.6582 372.001 67.1883C371.605 67.4827 371.417 67.9668 371.4 68.4601L369.889 114.149L363.826 113.948Z" fill="#DC955F" stroke="black" stroke-width="0.3"/>
<path d="M447.494 75.2612L446.795 108.89L448.927 108.961C449.222 97.8438 449.675 72.5603 449.675 72.5603C449.675 72.5603 448.386 70.2401 443.674 70.3879C443.674 70.3879 444.551 70.4169 445.494 70.7551C447.214 71.3723 447.532 73.4343 447.494 75.2612Z" fill="#A17457"/>
<path d="M436.027 67.4456L434.669 108.489L437.268 108.575L438.354 75.7442C438.431 73.4172 439.174 70.8676 441.469 70.4744C442.651 70.2719 443.674 70.3879 443.674 70.3879C448.386 70.2401 449.675 72.5603 449.675 72.5603C449.675 72.5603 449.222 97.8438 448.927 108.961L451.558 109.048L452.893 68.6826L436.027 67.4456Z" fill="#DC955F"/>
<path d="M434.669 108.489L436.027 67.4456L432.996 67.3452L431.638 108.389L434.669 108.489Z" fill="#A17457"/>
<path d="M436.027 67.4456L434.669 108.489M436.027 67.4456L452.893 68.6826L451.558 109.048L448.927 108.961M436.027 67.4456L432.996 67.3452L431.638 108.389L434.669 108.489M434.669 108.489L437.268 108.575L438.354 75.7442C438.431 73.4172 439.174 70.8676 441.469 70.4744C442.651 70.2719 443.674 70.3879 443.674 70.3879M448.927 108.961L446.795 108.89L447.494 75.2612C447.532 73.4343 447.214 71.3723 445.494 70.7551C444.551 70.4169 443.674 70.3879 443.674 70.3879M448.927 108.961C449.222 97.8438 449.675 72.5603 449.675 72.5603C449.675 72.5603 448.386 70.2401 443.674 70.3879" stroke="black" stroke-width="0.3"/>
<path d="M170.2 71.0574L170.291 68.3274L156.146 69.074L156.095 70.5907L157.612 70.6409L156.378 107.951L160.169 108.076L161.404 70.7663L164.589 70.8717L163.354 108.182L167.146 108.307L168.38 70.9972L170.2 71.0574Z" fill="#DC955F" stroke="black" stroke-width="0.3"/>
<path d="M132.81 72.2496L132.855 70.8846L147.162 69.8396L147.112 71.3563L147.067 72.7213L145.55 72.6711L144.386 107.858L140.746 107.737L141.91 72.5507L138.422 72.4353L137.258 107.622L133.769 107.507L134.933 72.3198L132.81 72.2496Z" fill="#DC955F" stroke="black" stroke-width="0.3"/>
<path d="M109.814 74.3332L109.864 72.8357L124.782 71.6802L124.678 74.8249L123.145 74.7742L122.075 107.12L118.398 106.998L119.468 74.6526L115.79 74.5309L114.72 106.876L110.43 106.734L111.5 74.3889L109.814 74.3332Z" fill="#DC955F" stroke="black" stroke-width="0.3"/>
<path d="M88.4792 76.7046L88.5444 74.7329L103.316 73.3997L103.191 77.1914L101.219 77.1261L100.211 107.611L96.4189 107.486L97.4275 77.0007L94.0908 76.8903L93.0822 107.375L89.2906 107.25L90.2992 76.7648L88.4792 76.7046Z" fill="#DC955F" stroke="black" stroke-width="0.3"/>
<path d="M67.4587 78.7418L67.5239 76.7701L81.3858 75.4067L81.2604 79.1984L79.7437 79.1482L78.8305 106.752L75.0388 106.626L75.952 79.0228L72.6154 78.9124L71.7021 106.516L67.9104 106.39L68.8237 78.7869L67.4587 78.7418Z" fill="#DC955F" stroke="black" stroke-width="0.3"/>
<path d="M46.2968 80.471L46.3469 78.9543L60.3655 77.4443L60.2501 80.9327L59.0368 80.8925L58.2038 106.069L54.5638 105.949L55.3968 80.7721L51.7568 80.6517L50.9238 105.828L47.1321 105.703L47.9651 80.5262L46.2968 80.471Z" fill="#DC955F" stroke="black" stroke-width="0.3"/>
<path d="M24.8214 82.4937L24.8615 81.2803L40.2501 79.6638L40.1397 83.0005L38.4714 82.9453L37.6786 106.909L34.0386 106.788L34.8314 82.8248L31.3431 82.7094L30.5502 106.673L26.6069 106.542L27.3997 82.579L24.8214 82.4937Z" fill="#DC955F" stroke="black" stroke-width="0.3"/>
<path d="M468.199 72.5659L468.289 69.8359L484.184 71.2728L484.124 73.0928L482.304 73.0326L481.105 109.281L476.251 109.12L477.451 72.872L474.417 72.7717L473.218 109.02L469.123 108.885L470.322 72.6362L468.199 72.5659Z" fill="#DC955F" stroke="black" stroke-width="0.3"/>
<path d="M501.965 75.3532L502.046 72.9265L518.391 74.5301L518.346 75.8951L516.526 75.8349L515.407 109.657L510.857 109.506L511.976 75.6844L508.639 75.574L507.52 109.396L502.818 109.24L503.937 75.4184L501.965 75.3532Z" fill="#DC955F" stroke="black" stroke-width="0.3"/>
<path d="M23.3942 78.4095C164.054 59.2194 361.978 51.8956 521.744 71.0538" stroke="black" stroke-width="0.3"/>
<path d="M23.355 79.5926C164.014 60.4025 361.939 53.0787 521.704 72.2369" stroke="black" stroke-width="0.3"/>
<path d="M522.914 74.9932C352.279 56.7765 210.389 60.752 22.4279 81.4104" stroke="black" stroke-width="0.3"/>
<path d="M195.104 64.148L247.273 20.3552" stroke="#FFAF00" stroke-width="0.3"/>
<path d="M196.403 64.1909L247.23 21.6543" stroke="#FFAF00" stroke-width="0.3"/>
<path d="M198.149 63.8152L247.187 22.9534" stroke="#FFAF00" stroke-width="0.3"/>
<path d="M199.881 63.8723L247.13 24.6853" stroke="#FFAF00" stroke-width="0.3"/>
<path d="M202.046 63.944L247.058 26.8506" stroke="#FFAF00" stroke-width="0.3"/>
<path d="M204.659 63.5969L247.015 28.1497" stroke="#FFAF00" stroke-width="0.3"/>
<path d="M207.257 63.6832L246.958 29.8821" stroke="#FFAF00" stroke-width="0.3"/>
<path d="M209.437 63.3215L246.901 31.614" stroke="#FFAF00" stroke-width="0.3"/>
<path d="M211.169 63.379L246.844 33.3464" stroke="#FFAF00" stroke-width="0.3"/>
<path d="M213.334 63.4505L246.786 35.0784" stroke="#FFAF00" stroke-width="0.3"/>
<path d="M215.514 63.0892L246.743 36.3777" stroke="#FFAF00" stroke-width="0.3"/>
<path d="M217.246 63.1463L246.686 38.1096" stroke="#FFAF00" stroke-width="0.3"/>
<path d="M219.425 62.785L246.629 39.8418" stroke="#FFAF00" stroke-width="0.3"/>
<path d="M221.157 62.8422L246.586 41.1409" stroke="#FFAF00" stroke-width="0.3"/>
<path d="M222.89 62.8995L246.528 42.873" stroke="#FFAF00" stroke-width="0.3"/>
<path d="M225.502 62.5524L246.471 44.6052" stroke="#FFAF00" stroke-width="0.3"/>
<path d="M227.234 62.6098L246.414 46.3374" stroke="#FFAF00" stroke-width="0.3"/>
<path d="M228.966 62.6674L246.371 47.6367" stroke="#FFAF00" stroke-width="0.3"/>
<path d="M231.146 62.3056L246.328 48.9355" stroke="#FFAF00" stroke-width="0.3"/>
<path d="M232.878 62.3632L246.271 50.668" stroke="#FFAF00" stroke-width="0.3"/>
<path d="M234.61 62.4205L246.213 52.4001" stroke="#FFAF00" stroke-width="0.3"/>
<path d="M236.79 62.0589L246.156 54.1321" stroke="#FFAF00" stroke-width="0.3"/>
<path d="M238.522 62.1163L246.099 55.8643" stroke="#FFAF00" stroke-width="0.3"/>
<path d="M303.578 61.234L251.171 20.4839" stroke="#FFAF00" stroke-width="0.3"/>
<path d="M301.846 61.1768L251.128 21.7832" stroke="#FFAF00" stroke-width="0.3"/>
<path d="M299.681 61.1049L251.085 23.082" stroke="#FFAF00" stroke-width="0.3"/>
<path d="M297.516 61.0336L251.027 24.8145" stroke="#FFAF00" stroke-width="0.3"/>
<path d="M295.769 61.4091L250.97 26.5464" stroke="#FFAF00" stroke-width="0.3"/>
<path d="M294.47 61.3662L251.346 28.293" stroke="#FFAF00" stroke-width="0.3"/>
<path d="M292.738 61.3089L251.289 30.0251" stroke="#FFAF00" stroke-width="0.3"/>
<path d="M290.573 61.2373L251.231 31.7573" stroke="#FFAF00" stroke-width="0.3"/>
<path d="M286.242 61.0941L251.117 35.2217" stroke="#FFAF00" stroke-width="0.3"/>
<path d="M283.197 61.4267L251.031 37.8198" stroke="#FFAF00" stroke-width="0.3"/>
<path d="M280.598 61.3408L250.973 39.552" stroke="#FFAF00" stroke-width="0.3"/>
<path d="M278.014 60.8218L250.916 41.2842" stroke="#FFAF00" stroke-width="0.3"/>
<path d="M275.416 60.7359L250.859 43.0164" stroke="#FFAF00" stroke-width="0.3"/>
<path d="M273.67 61.1115L250.801 44.7485" stroke="#FFAF00" stroke-width="0.3"/>
<path d="M271.505 61.0399L250.758 46.0476" stroke="#FFAF00" stroke-width="0.3"/>
<path d="M268.906 60.954L250.701 47.7798" stroke="#FFAF00" stroke-width="0.3"/>
<path d="M265.889 60.4207L250.658 49.0789" stroke="#FFAF00" stroke-width="0.3"/>
<path d="M263.724 60.3489L250.615 50.3779" stroke="#FFAF00" stroke-width="0.3"/>
<path d="M261.992 60.2916L250.572 51.677" stroke="#FFAF00" stroke-width="0.3"/>
<path d="M260.246 60.6675L250.934 53.8567" stroke="#FFAF00" stroke-width="0.3"/>
<path d="M258.513 60.61L250.458 55.1414" stroke="#FFAF00" stroke-width="0.3"/>
<path d="M424.915 62.6477L372.275 15.8208" stroke="#FFAF00" stroke-width="0.3"/>
<path d="M422.75 62.5761L372.218 17.553" stroke="#FFAF00" stroke-width="0.3"/>
<path d="M420.151 62.4899L372.16 19.2849" stroke="#FFAF00" stroke-width="0.3"/>
<path d="M417.986 62.4184L372.074 21.8833" stroke="#FFAF00" stroke-width="0.3"/>
<path d="M416.254 62.3611L372.046 22.7493" stroke="#FFAF00" stroke-width="0.3"/>
<path d="M413.223 62.2607L371.989 24.4814" stroke="#FFAF00" stroke-width="0.3"/>
<path d="M411.491 62.2034L371.931 26.2136" stroke="#FFAF00" stroke-width="0.3"/>
<path d="M408.907 61.6844L371.874 27.9458" stroke="#FFAF00" stroke-width="0.3"/>
<path d="M407.593 62.0746L371.817 29.678" stroke="#FFAF00" stroke-width="0.3"/>
<path d="M405.428 62.0028L371.731 32.2761" stroke="#FFAF00" stroke-width="0.3"/>
<path d="M402.83 61.9169L371.673 34.0083" stroke="#FFAF00" stroke-width="0.3"/>
<path d="M401.112 61.4265L371.645 34.8743" stroke="#FFAF00" stroke-width="0.3"/>
<path d="M398.5 61.7737L371.559 37.4727" stroke="#FFAF00" stroke-width="0.3"/>
<path d="M396.767 61.7162L371.53 38.3386" stroke="#FFAF00" stroke-width="0.3"/>
<path d="M394.616 61.2117L371.444 40.937" stroke="#FFAF00" stroke-width="0.3"/>
<path d="M392.87 61.5874L371.415 41.803" stroke="#FFAF00" stroke-width="0.3"/>
<path d="M391.152 61.0969L371.329 44.4011" stroke="#FFAF00" stroke-width="0.3"/>
<path d="M389.839 61.487L371.272 46.1333" stroke="#FFAF00" stroke-width="0.3"/>
<path d="M387.674 61.4153L371.243 46.9993" stroke="#FFAF00" stroke-width="0.3"/>
<path d="M385.941 61.3582L371.186 48.7317" stroke="#FFAF00" stroke-width="0.3"/>
<path d="M383.776 61.2864L371.129 50.4636" stroke="#FFAF00" stroke-width="0.3"/>
<path d="M382.044 61.2292L371.043 53.062" stroke="#FFAF00" stroke-width="0.3"/>
<path d="M379.46 60.7102L370.986 54.7942" stroke="#FFAF00" stroke-width="0.3"/>
<path d="M314.894 59.8745L367.93 16.1104" stroke="#FFAF00" stroke-width="0.3"/>
<path d="M317.06 59.9461L367.873 17.8425" stroke="#FFAF00" stroke-width="0.3"/>
<path d="M320.105 59.6134L367.83 19.1416" stroke="#FFAF00" stroke-width="0.3"/>
<path d="M321.837 59.6707L367.801 20.0078" stroke="#FFAF00" stroke-width="0.3"/>
<path d="M324.003 59.7425L367.744 21.74" stroke="#FFAF00" stroke-width="0.3"/>
<path d="M325.735 59.7996L367.672 23.905" stroke="#FFAF00" stroke-width="0.3"/>
<path d="M327.9 59.8712L367.168 26.0559" stroke="#FFAF00" stroke-width="0.3"/>
<path d="M329.632 59.9287L367.544 27.8025" stroke="#FFAF00" stroke-width="0.3"/>
<path d="M331.364 59.9857L367.486 29.5344" stroke="#FFAF00" stroke-width="0.3"/>
<path d="M338.501 59.772L368.195 34.3267" stroke="#FFAF00" stroke-width="0.3"/>
<path d="M340.928 59.8522L366.781 37.748" stroke="#FFAF00" stroke-width="0.3"/>
<path d="M341.771 59.8967L367.185 38.6284" stroke="#FFAF00" stroke-width="0.3"/>
<path d="M345.023 59.9879L367.561 40.375" stroke="#FFAF00" stroke-width="0.3"/>
<path d="M346.968 60.0688L366.52 43.542" stroke="#FFAF00" stroke-width="0.3"/>
<path d="M349.275 59.9766L366.293 45.8118" stroke="#FFAF00" stroke-width="0.3"/>
<path d="M349.871 60.2998L366.047 46.8274" stroke="#FFAF00" stroke-width="0.3"/>
<path d="M352.597 60.2548L366.193 48.845" stroke="#FFAF00" stroke-width="0.3"/>
<path d="M353.825 60.1272L366.168 49.6035" stroke="#FFAF00" stroke-width="0.3"/>
<path d="M356.555 60.2175L366.082 52.1819" stroke="#FFAF00" stroke-width="0.3"/>
<path d="M358.66 60.4555L365.818 53.7561" stroke="#FFAF00" stroke-width="0.3"/>
<path d="M332.879 59.8901L383.045 17.8606" stroke="#FFAF00" stroke-width="0.3"/>
<path d="M334.244 59.9353L383.002 19.1597" stroke="#FFAF00" stroke-width="0.3"/>
<path d="M335.766 59.8335L382.959 20.4585" stroke="#FFAF00" stroke-width="0.3"/>
<path d="M337.131 59.8787L382.902 22.1907" stroke="#FFAF00" stroke-width="0.3"/>
<path d="M339.715 59.8125L382.83 24.356" stroke="#FFAF00" stroke-width="0.3"/>
<path d="M343.203 59.9277L382.788 25.655" stroke="#FFAF00" stroke-width="0.3"/>
<path d="M344.113 59.958L382.73 27.3872" stroke="#FFAF00" stroke-width="0.3"/>
<path d="M345.933 60.0182L382.673 29.1194" stroke="#FFAF00" stroke-width="0.3"/>
<path d="M348.208 60.0935L382.616 30.8516" stroke="#FFAF00" stroke-width="0.3"/>
<path d="M350.943 60.0321L382.558 32.5837" stroke="#FFAF00" stroke-width="0.3"/>
<path d="M351.853 60.0622L382.515 33.8828" stroke="#FFAF00" stroke-width="0.3"/>
<path d="M354.886 60.1625L383.095 35.636" stroke="#FFAF00" stroke-width="0.3"/>
<path d="M355.645 60.1877L382.401 37.3472" stroke="#FFAF00" stroke-width="0.3"/>
<path d="M357.616 60.2526L382.358 38.646" stroke="#FFAF00" stroke-width="0.3"/>
<path d="M359.891 60.3281L382.3 40.3784" stroke="#FFAF00" stroke-width="0.3"/>
<path d="M361.105 60.3683L382.243 42.1106" stroke="#FFAF00" stroke-width="0.3"/>
<path d="M362.166 60.4035L382.186 43.8428" stroke="#FFAF00" stroke-width="0.3"/>
<path d="M363.479 60.4144L380.883 45.3838" stroke="#FFAF00" stroke-width="0.3"/>
<path d="M366.469 60.2805L382.1 46.4409" stroke="#FFAF00" stroke-width="0.3"/>
<path d="M368.201 60.3379L382.042 48.1731" stroke="#FFAF00" stroke-width="0.3"/>
<path d="M370.366 60.4095L381.985 49.9053" stroke="#FFAF00" stroke-width="0.3"/>
<path d="M372.098 60.4668L381.928 51.6375" stroke="#FFAF00" stroke-width="0.3"/>
<path d="M373.831 60.5239L381.871 53.3694" stroke="#FFAF00" stroke-width="0.3"/>
<path d="M445.672 64.2015L386.943 17.9893" stroke="#FFAF00" stroke-width="0.3"/>
<path d="M442.222 63.6537L386.9 19.2883" stroke="#FFAF00" stroke-width="0.3"/>
<path d="M439.624 63.5677L386.857 20.5874" stroke="#FFAF00" stroke-width="0.3"/>
<path d="M437.459 63.4961L386.799 22.3196" stroke="#FFAF00" stroke-width="0.3"/>
<path d="M434.86 63.4102L386.742 24.0518" stroke="#FFAF00" stroke-width="0.3"/>
<path d="M432.695 63.3386L387.118 25.7983" stroke="#FFAF00" stroke-width="0.3"/>
<path d="M429.678 62.8053L387.061 27.5305" stroke="#FFAF00" stroke-width="0.3"/>
<path d="M427.08 62.7194L387.003 29.2627" stroke="#FFAF00" stroke-width="0.3"/>
<path d="M425.334 63.0952L386.946 30.9949" stroke="#FFAF00" stroke-width="0.3"/>
<path d="M422.735 63.0093L386.889 32.7271" stroke="#FFAF00" stroke-width="0.3"/>
<path d="M420.151 62.4901L386.846 34.0261" stroke="#FFAF00" stroke-width="0.3"/>
<path d="M417.986 62.4183L386.803 35.325" stroke="#FFAF00" stroke-width="0.3"/>
<path d="M415.821 62.3469L386.745 37.0574" stroke="#FFAF00" stroke-width="0.3"/>
<path d="M413.656 62.275L386.688 38.7893" stroke="#FFAF00" stroke-width="0.3"/>
<path d="M411.491 62.2034L386.631 40.5215" stroke="#FFAF00" stroke-width="0.3"/>
<path d="M409.325 62.1318L386.573 42.2537" stroke="#FFAF00" stroke-width="0.3"/>
<path d="M407.16 62.0603L386.53 43.553" stroke="#FFAF00" stroke-width="0.3"/>
<path d="M404.995 61.9888L386.473 45.2852" stroke="#FFAF00" stroke-width="0.3"/>
<path d="M402.83 61.9169L386.429 46.6348" stroke="#FFAF00" stroke-width="0.3"/>
<path d="M400.232 61.8309L386.804 48.3813" stroke="#FFAF00" stroke-width="0.3"/>
<path d="M398.066 61.7596L386.747 50.1138" stroke="#FFAF00" stroke-width="0.3"/>
<path d="M396.333 61.7528L386.69 51.8457" stroke="#FFAF00" stroke-width="0.3"/>
<path d="M393.75 61.1832L386.214 53.1306" stroke="#FFAF00" stroke-width="0.3"/>
<path d="M232.679 15.9709L231.178 61.347L236.214 61.1731L236.576 16.0999C235.56 15.3726 233.555 15.7109 232.679 15.9709Z" fill="#DC955F" stroke="black" stroke-width="0.3"/>
<path d="M247.347 18.1396L245.933 60.8756L250.704 60.7855L251.244 18.2686C250.228 17.5413 248.222 17.8796 247.347 18.1396Z" fill="#DC955F" stroke="black" stroke-width="0.3"/>
<path d="M382.74 13.9813L381.191 60.8073L386.303 60.9764L386.992 14.1219C385.883 13.3329 383.695 13.6994 382.74 13.9813Z" fill="#DC955F" stroke="black" stroke-width="0.3"/>
<path d="M372.405 11.9062L370.801 60.3862L365.604 60.2142L368.153 11.7655C369.312 11.05 371.47 11.5612 372.405 11.9062Z" fill="#DC955F" stroke="black" stroke-width="0.3"/>
<path d="M86.2818 64.4495L86.0669 70.9451M86.2818 64.4495L84.9827 64.4065M86.2818 64.4495L87.581 64.4925" stroke="black" stroke-width="0.3"/>
<path d="M117.142 62.0025L116.942 68.065M117.142 62.0025L115.843 61.9595M117.142 62.0025L118.441 62.0454" stroke="black" stroke-width="0.3"/>
<path d="M131.951 59.8914L131.722 66.82M131.951 59.8914L130.652 59.8484M131.951 59.8914L133.251 59.9344" stroke="black" stroke-width="0.3"/>
<path d="M148.464 58.7036L148.235 65.6322M148.464 58.7036L147.165 58.6606M148.464 58.7036L149.763 58.7466" stroke="black" stroke-width="0.3"/>
<path d="M165.006 56.6497L164.748 64.4444M165.006 56.6497L163.707 56.6067M165.006 56.6497L166.305 56.6927" stroke="black" stroke-width="0.3"/>
<path d="M180.652 55.4334L180.38 63.6611M180.652 55.4334L179.353 55.3904M180.652 55.4334L181.952 55.4763" stroke="black" stroke-width="0.3"/>
<path d="M101.524 62.3528L101.281 69.7145M101.524 62.3528L100.225 62.3098M101.524 62.3528L102.823 62.3958" stroke="black" stroke-width="0.3"/>
<path d="M465.041 55.3052L464.711 65.2651M465.041 55.3052L463.742 55.2622M465.041 55.3052L466.34 55.3482" stroke="black" stroke-width="0.3"/>
<path d="M442.552 53.6941L442.222 63.654M442.552 53.6941L441.252 53.6511M442.552 53.6941L443.851 53.7371" stroke="black" stroke-width="0.3"/>
<path d="M488.368 57.811L488.038 67.7709M488.368 57.811L487.069 57.7681M488.368 57.811L489.667 57.854" stroke="black" stroke-width="0.3"/>
<path d="M512.589 59.4793L512.245 69.8722M512.589 59.4793L511.29 59.4363M512.589 59.4793L513.888 59.5222" stroke="black" stroke-width="0.3"/>
<path d="M180.38 63.661L232.55 19.8682" stroke="#FFAF00" stroke-width="0.3"/>
<path d="M181.679 63.7039L232.507 21.1672" stroke="#FFAF00" stroke-width="0.3"/>
<path d="M183.426 63.3281L232.464 22.4663" stroke="#FFAF00" stroke-width="0.3"/>
<path d="M185.158 63.3854L232.407 24.1985" stroke="#FFAF00" stroke-width="0.3"/>
<path d="M187.323 63.4569L232.335 26.3635" stroke="#FFAF00" stroke-width="0.3"/>
<path d="M189.936 63.1098L232.292 27.6626" stroke="#FFAF00" stroke-width="0.3"/>
<path d="M192.534 63.196L232.235 29.395" stroke="#FFAF00" stroke-width="0.3"/>
<path d="M194.713 62.8346L232.178 31.1272" stroke="#FFAF00" stroke-width="0.3"/>
<path d="M196.446 62.892L232.12 32.8594" stroke="#FFAF00" stroke-width="0.3"/>
<path d="M198.611 62.9634L232.063 34.5913" stroke="#FFAF00" stroke-width="0.3"/>
<path d="M200.79 62.6022L232.02 35.8906" stroke="#FFAF00" stroke-width="0.3"/>
<path d="M202.522 62.6593L231.963 37.6226" stroke="#FFAF00" stroke-width="0.3"/>
<path d="M204.702 62.2978L231.905 39.3547" stroke="#FFAF00" stroke-width="0.3"/>
<path d="M206.434 62.3552L231.862 40.6538" stroke="#FFAF00" stroke-width="0.3"/>
<path d="M208.166 62.4126L231.805 42.386" stroke="#FFAF00" stroke-width="0.3"/>
<path d="M210.779 62.0655L231.748 44.1182" stroke="#FFAF00" stroke-width="0.3"/>
<path d="M212.511 62.1228L231.69 45.8503" stroke="#FFAF00" stroke-width="0.3"/>
<path d="M214.243 62.1803L231.647 47.1497" stroke="#FFAF00" stroke-width="0.3"/>
<path d="M216.423 61.8187L231.604 48.4485" stroke="#FFAF00" stroke-width="0.3"/>
<path d="M218.155 61.8762L231.547 50.1809" stroke="#FFAF00" stroke-width="0.3"/>
<path d="M219.887 61.9336L231.49 51.9131" stroke="#FFAF00" stroke-width="0.3"/>
<path d="M222.067 61.5719L231.433 53.645" stroke="#FFAF00" stroke-width="0.3"/>
<path d="M223.799 61.6292L231.375 55.3772" stroke="#FFAF00" stroke-width="0.3"/>
<path d="M289.707 61.2089L236.447 19.9971" stroke="#FFAF00" stroke-width="0.3"/>
<path d="M287.541 61.1368L236.404 21.2959" stroke="#FFAF00" stroke-width="0.3"/>
<path d="M285.376 61.0655L236.361 22.5952" stroke="#FFAF00" stroke-width="0.3"/>
<path d="M283.63 61.441L236.304 24.3271" stroke="#FFAF00" stroke-width="0.3"/>
<path d="M281.897 61.3839L236.247 26.0596" stroke="#FFAF00" stroke-width="0.3"/>
<path d="M280.165 61.3265L236.623 27.8059" stroke="#FFAF00" stroke-width="0.3"/>
<path d="M278.433 61.2691L236.565 29.5381" stroke="#FFAF00" stroke-width="0.3"/>
<path d="M277.12 61.6593L236.508 31.2703" stroke="#FFAF00" stroke-width="0.3"/>
<path d="M274.955 61.5876L236.451 33.0024" stroke="#FFAF00" stroke-width="0.3"/>
<path d="M272.789 61.516L236.393 34.7346" stroke="#FFAF00" stroke-width="0.3"/>
<path d="M270.624 61.4444L236.35 36.0337" stroke="#FFAF00" stroke-width="0.3"/>
<path d="M268.892 61.3871L236.307 37.3328" stroke="#FFAF00" stroke-width="0.3"/>
<path d="M266.727 61.3153L236.25 39.0649" stroke="#FFAF00" stroke-width="0.3"/>
<path d="M263.291 60.3347L236.193 40.7971" stroke="#FFAF00" stroke-width="0.3"/>
<path d="M260.693 60.2488L236.135 42.5293" stroke="#FFAF00" stroke-width="0.3"/>
<path d="M258.946 60.6245L236.078 44.2615" stroke="#FFAF00" stroke-width="0.3"/>
<path d="M256.781 60.5531L236.035 45.5608" stroke="#FFAF00" stroke-width="0.3"/>
<path d="M254.183 60.4667L235.978 47.2925" stroke="#FFAF00" stroke-width="0.3"/>
<path d="M252.437 60.8426L235.935 48.5918" stroke="#FFAF00" stroke-width="0.3"/>
<path d="M250.69 61.2183L235.892 49.8909" stroke="#FFAF00" stroke-width="0.3"/>
<path d="M248.106 60.6992L235.849 51.1899" stroke="#FFAF00" stroke-width="0.3"/>
<path d="M246.36 61.0749L236.21 53.3694" stroke="#FFAF00" stroke-width="0.3"/>
<path d="M244.628 61.0179L235.734 54.6545" stroke="#FFAF00" stroke-width="0.3"/>
<path d="M146.072 216.478C114.826 212.067 83.6259 253.103 72 273.636H345C334.321 273.636 304.896 227.181 265.588 221.829C226.28 216.478 234.895 234.189 206.739 229.003C181 224.261 183.5 221.761 146.072 216.478Z" fill="#036939"/>
<path d="M155.861 227.836C130.794 224.99 105.938 257.183 96.6433 273.636H314.896C306.359 273.636 282.835 236.412 251.409 232.124C219.984 227.836 227.25 237.872 204.362 237.872C182.483 237.872 186.747 231.953 159.796 228.323C158.553 228.156 157.243 227.993 155.861 227.836Z" fill="white" fill-opacity="0.2"/>
<path d="M130.482 273.636C150.385 268.104 159.137 244.786 159.796 228.323C159.949 224.504 159.667 221.054 158.987 218.28C163.074 218.848 170.124 220.408 203.635 228.314C187.492 240.349 192.941 266.48 209.561 273.636H130.482Z" fill="#EAE1B9"/>
<path d="M72 273.636L71.8695 273.562L71.7427 273.786H72V273.636ZM209.561 273.636V273.786L209.62 273.498L209.561 273.636ZM96.6433 273.636L96.5127 273.562L96.3863 273.786H96.6433V273.636ZM158.987 218.28L159.008 218.131L158.789 218.101L158.841 218.316L158.987 218.28ZM130.482 273.636L130.442 273.491L130.482 273.786V273.636ZM203.635 228.314L203.725 228.434L203.983 228.242L203.67 228.168L203.635 228.314ZM72 273.786H255.536V273.486H72V273.786ZM72 273.786H209.561V273.486H72V273.786ZM72 273.786H163.444V273.486H72V273.786ZM72.1305 273.71C77.938 263.453 88.6356 248.074 101.781 235.813C114.932 223.546 130.499 214.431 146.051 216.627L146.093 216.329C130.4 214.114 114.743 223.312 101.576 235.593C88.4032 247.88 77.6879 263.286 71.8695 273.562L72.1305 273.71ZM146.051 216.627C164.761 219.268 173.487 221.212 180.751 223.089C188.019 224.966 193.836 226.778 206.712 229.15L206.766 228.855C193.903 226.486 188.101 224.677 180.826 222.798C173.549 220.919 164.812 218.972 146.093 216.329L146.051 216.627ZM206.712 229.15C213.765 230.449 218.527 230.317 222.318 229.464C226.105 228.611 228.915 227.04 232.048 225.489C235.181 223.936 238.654 222.393 243.793 221.57C248.934 220.746 255.75 220.641 265.568 221.978L265.608 221.681C255.771 220.342 248.924 220.444 243.745 221.274C238.564 222.104 235.061 223.661 231.915 225.22C228.768 226.779 225.996 228.328 222.252 229.171C218.511 230.013 213.791 230.149 206.766 228.855L206.712 229.15ZM265.568 221.978C285.174 224.647 302.327 237.57 315.929 249.851C319.329 252.92 322.505 255.947 325.441 258.763C328.377 261.578 331.074 264.183 333.513 266.404C335.952 268.625 338.137 270.467 340.05 271.754C341.958 273.037 343.618 273.786 345 273.786V273.486C343.713 273.486 342.117 272.783 340.218 271.505C338.324 270.23 336.151 268.401 333.715 266.183C331.28 263.965 328.586 261.363 325.649 258.547C322.712 255.73 319.533 252.7 316.13 249.628C302.523 237.343 285.311 224.363 265.608 221.681L265.568 221.978ZM345 273.486H72V273.786H345V273.486ZM96.7739 273.709C101.415 265.493 109.944 253.345 120.439 243.609C130.94 233.867 143.378 226.57 155.844 227.985L155.878 227.687C143.277 226.256 130.753 233.632 120.235 243.389C109.712 253.151 101.166 265.325 96.5127 273.562L96.7739 273.709ZM204.362 238.022C210.096 238.022 213.947 237.393 216.991 236.515C220.029 235.639 222.267 234.51 224.739 233.53C229.681 231.569 235.693 230.131 251.389 232.273L251.43 231.976C235.7 229.829 229.632 231.265 224.629 233.251C222.128 234.243 219.928 235.355 216.908 236.227C213.895 237.096 210.072 237.722 204.362 237.722V238.022ZM251.389 232.273C267.053 234.41 280.761 244.76 291.635 254.599C294.352 257.058 296.891 259.484 299.239 261.74C301.586 263.996 303.742 266.083 305.693 267.863C307.643 269.643 309.391 271.12 310.922 272.152C312.448 273.181 313.781 273.786 314.896 273.786V273.486C313.877 273.486 312.608 272.927 311.09 271.903C309.578 270.884 307.842 269.419 305.895 267.642C303.948 265.865 301.795 263.781 299.447 261.524C297.099 259.267 294.557 256.839 291.836 254.377C280.958 244.533 267.191 234.126 251.43 231.976L251.389 232.273ZM314.896 273.486H96.6433V273.786H314.896V273.486ZM86.3446 273.786H276.702V273.486H86.3446V273.786ZM86.3446 273.786H225.94V273.486H86.3446V273.786ZM130.482 273.786H209.561V273.486H130.482V273.786ZM209.62 273.498C201.366 269.944 195.876 261.671 194.46 252.781C193.045 243.893 195.707 234.412 203.725 228.434L203.546 228.193C195.421 234.251 192.735 243.853 194.164 252.828C195.592 261.8 201.136 270.171 209.502 273.773L209.62 273.498ZM203.67 228.168C170.163 220.263 163.104 218.701 159.008 218.131L158.966 218.429C163.044 218.995 170.084 220.553 203.601 228.46L203.67 228.168ZM72 273.786L95.5143 273.785V273.485L72 273.486V273.786ZM95.5143 273.785H117.722V273.485H95.5143V273.785ZM158.841 218.316C159.517 221.072 159.799 224.508 159.646 228.317L159.946 228.329C160.1 224.5 159.817 221.035 159.133 218.244L158.841 218.316ZM159.646 228.317C159.317 236.528 156.97 246.449 152.224 255.006C147.479 263.561 140.343 270.739 130.442 273.491L130.522 273.78C140.524 271 147.715 263.753 152.487 255.151C157.257 246.55 159.616 236.581 159.946 228.329L159.646 228.317ZM155.844 227.985C157.225 228.142 158.534 228.305 159.776 228.472L159.816 228.175C158.572 228.007 157.261 227.844 155.878 227.687L155.844 227.985ZM159.776 228.472C173.235 230.285 178.895 232.667 183.927 234.599C188.98 236.538 193.402 238.022 204.362 238.022V237.722C193.443 237.722 189.058 236.246 184.035 234.319C178.992 232.383 173.308 229.992 159.816 228.175L159.776 228.472ZM155.844 227.985L159.778 228.472L159.815 228.174L155.88 227.687L155.844 227.985Z" fill="black"/>
<path d="M159.95 228.149H174L196.5 236.149L196 237.649L184.5 238.149L159.95 228.649V228.149Z" fill="#EAE1B9"/>
<path d="M52.6907 235.149C0.836025 247.149 -6.50865 193.504 52.6907 191.149H118.336" stroke="#042311" stroke-width="0.3"/>
<path d="M58.8361 241.149C48.0665 241.149 39.3361 232.418 39.3361 221.649C39.3361 210.879 48.0665 202.149 58.8361 202.149C69.6056 202.149 78.3361 210.879 78.3361 221.649C78.3361 232.418 69.6056 241.149 58.8361 241.149Z" fill="#FFBD59"/>
<path d="M352.122 239.629V273.502L435.222 277.438L436.534 248.572C409.042 245.118 355.027 241.219 352.122 239.629Z" fill="#E7DECF"/>
<path d="M514.824 265.629L517.01 291.871C517.01 291.871 538.004 279.333 547.626 275.689V261.255V254.257L514.824 265.629Z" fill="#F3E8D6"/>
<path fill-rule="evenodd" clip-rule="evenodd" d="M497.766 277.438L514.824 265.629L547.626 254.257L541.066 242.011L552 228.015L432.598 199.149C404.169 209.646 355.271 237.987 352.122 239.387V239.629C355.027 241.219 409.042 245.118 436.534 248.572L497.766 277.438ZM371.804 235.888L429.537 204.835C465.692 213.145 538.879 232.826 538.879 232.826C538.879 232.826 533.922 238.804 531.881 241.574L536.255 249.884C527.216 252.508 508.351 258.544 505.201 261.693L498.641 268.253L491.593 265.211L479.019 259.783L437.847 242.011L433.035 241.565L407.231 239.173L386.237 237.226L371.804 235.888Z" fill="#EFEDE1"/>
<path d="M436.534 248.572L435.222 277.438C453.446 289.393 492.518 310.678 499.953 311.116L497.766 277.438L436.534 248.572Z" fill="#C5B6A3"/>
<path d="M497.766 277.438L499.953 311.116L517.01 291.871L514.824 265.629L497.766 277.438Z" fill="#E7DECF"/>
<path d="M429.537 204.835L371.804 235.888L386.237 237.226L425.163 210.083C430.497 211.314 437.409 212.94 444.674 214.696L447.031 212.707L450.253 216.053C467.187 220.202 484.021 225.365 486.832 226.266C520.947 237.2 486.832 226.266 520.947 237.2L491.593 265.211L498.641 268.253L505.201 261.693C508.351 258.544 527.216 252.508 536.255 249.884L531.881 241.574C533.922 238.804 538.879 232.826 538.879 232.826C538.879 232.826 465.692 213.145 429.537 204.835Z" fill="#F2BB16"/>
<path d="M479.019 259.783L491.593 265.211L520.947 237.2C486.832 226.266 520.947 237.2 486.832 226.266C484.021 225.365 467.187 220.202 450.253 216.053L458.403 224.516V233.326L493.392 243.323L479.019 259.783Z" fill="#BF395D"/>
<path d="M425.163 210.083L386.237 237.226L407.231 239.173L429.099 224.954L433.035 226.078V224.516L444.674 214.696C437.409 212.94 430.497 211.314 425.163 210.083Z" fill="#BF395D"/>
<path d="M429.099 224.954L407.231 239.173L433.035 241.565V226.078L429.099 224.954Z" fill="#D97823"/>
<path fill-rule="evenodd" clip-rule="evenodd" d="M479.019 259.783L437.847 242.011L443.97 244.635L458.403 250.759V233.326L493.392 243.323L479.019 259.783Z" fill="#D97823"/>
<path fill-rule="evenodd" clip-rule="evenodd" d="M453.592 242.449L449.656 243.323V236.763C451.055 233.964 452.28 235.596 452.717 236.763L453.592 242.449Z" fill="#FEFFFF"/>
<path d="M449.656 243.323L453.592 242.449L452.717 236.763C452.28 235.596 451.055 233.964 449.656 236.763V243.323Z" fill="#94130A"/>
<path d="M447.031 212.707L444.674 214.696L433.035 224.516L443.97 230.64L447.031 212.707Z" fill="#E7DECF"/>
<path d="M450.253 216.053L447.031 212.707L443.97 230.64L445.994 229.781L458.403 224.516L450.253 216.053Z" fill="#E7DECF"/>
<path d="M552 259.069V228.015L541.066 242.011L547.626 254.257V261.255L552 259.069Z" fill="#E7DECF"/>
<path d="M443.97 244.635V230.64L433.035 224.516V226.078V241.565L437.847 242.011L443.97 244.635Z" fill="#E7DECF"/>
<path fill-rule="evenodd" clip-rule="evenodd" d="M443.97 230.64V244.635L458.403 250.759V233.326V224.516L445.994 229.781L443.97 230.64ZM453.592 242.449L449.656 243.323V236.763C451.055 233.964 452.28 235.596 452.717 236.763L453.592 242.449Z" fill="#E7DECF"/>
<path d="M552 228.015V259.069L547.626 261.255M552 228.015L541.066 242.011L547.626 254.257M552 228.015L432.598 199.149C404.169 209.646 355.271 237.987 352.122 239.387M547.626 261.255V275.689M547.626 261.255V254.257M547.626 254.257L514.824 265.629M547.626 254.257V275.689M352.122 239.387C351.957 239.46 351.961 239.541 352.122 239.629M352.122 239.387V239.629M547.626 275.689C538.004 279.333 517.01 291.871 517.01 291.871M352.122 239.629V273.502L435.222 277.438M352.122 239.629C355.027 241.219 409.042 245.118 436.534 248.572M435.222 277.438L436.534 248.572M435.222 277.438C453.446 289.393 492.518 310.678 499.953 311.116M436.534 248.572L497.766 277.438M499.953 311.116L497.766 277.438M499.953 311.116L517.01 291.871M497.766 277.438L514.824 265.629M517.01 291.871L514.824 265.629M371.804 235.888L429.537 204.835C465.692 213.145 538.879 232.826 538.879 232.826C538.879 232.826 533.922 238.804 531.881 241.574L536.255 249.884C527.216 252.508 508.351 258.544 505.201 261.693L498.641 268.253M371.804 235.888L386.237 237.226M371.804 235.888L433.035 241.565M498.641 268.253L437.847 242.011M498.641 268.253L491.593 265.211M386.237 237.226L425.163 210.083C430.497 211.314 437.409 212.94 444.674 214.696M386.237 237.226L407.231 239.173M433.035 241.565L437.847 242.011M433.035 241.565L407.231 239.173M433.035 241.565V241.574M433.035 241.565V226.078M437.847 242.011L479.019 259.783M437.847 242.011L443.97 244.635M491.593 265.211L520.947 237.2C486.832 226.266 520.947 237.2 486.832 226.266C484.021 225.365 467.187 220.202 450.253 216.053M491.593 265.211L479.019 259.783M479.019 259.783L493.392 243.323L458.403 233.326M443.97 244.635V230.64M443.97 244.635L458.403 250.759V233.326M444.674 214.696L433.035 224.516M444.674 214.696L447.031 212.707M407.231 239.173L429.099 224.954L433.035 226.078M450.253 216.053L458.403 224.516M450.253 216.053L447.031 212.707M458.403 233.326V224.516M433.035 226.078V224.516M433.035 224.516L443.97 230.64M443.97 230.64L445.994 229.781L458.403 224.516M443.97 230.64L447.031 212.707M449.656 243.323L453.592 242.449L452.717 236.763C452.28 235.596 451.055 233.964 449.656 236.763V243.323Z" stroke="black" stroke-width="0.3"/>
<defs>
<linearGradient id="paint0_linear_27_15278" x1="171.267" y1="129.963" x2="156.689" y2="124.464" gradientUnits="userSpaceOnUse">
<stop offset="1" stop-color="#99160C"/>
</linearGradient>
<linearGradient id="paint1_linear_27_15278" x1="173" y1="123.149" x2="173" y2="191.351" gradientUnits="userSpaceOnUse">
<stop stop-color="#99160C"/>
<stop offset="1" stop-color="#760000"/>
</linearGradient>
</defs>
</svg>
